%TF.GenerationSoftware,KiCad,Pcbnew,10.0.5*%
%TF.CreationDate,2026-08-18T22:05:46-06:00*%
%TF.ProjectId,ADC_and_amplifier_pico_breakout_board,4144435f-616e-4645-9f61-6d706c696669,rev?*%
%TF.SameCoordinates,Original*%
%TF.FileFunction,Legend,Top*%
%TF.FilePolarity,Positive*%
%FSLAX46Y46*%
G04 Gerber Fmt 4.6, Leading zero omitted, Abs format (unit mm)*
G04 Created by KiCad (PCBNEW 10.0.5) date 2026-08-18 22:05:46*
%MOMM*%
%LPD*%
G01*
G04 APERTURE LIST*
G04 Aperture macros list*
%AMRoundRect*
0 Rectangle with rounded corners*
0 $1 Rounding radius*
0 $2 $3 $4 $5 $6 $7 $8 $9 X,Y pos of 4 corners*
0 Add a 4 corners polygon primitive as box body*
4,1,4,$2,$3,$4,$5,$6,$7,$8,$9,$2,$3,0*
0 Add four circle primitives for the rounded corners*
1,1,$1+$1,$2,$3*
1,1,$1+$1,$4,$5*
1,1,$1+$1,$6,$7*
1,1,$1+$1,$8,$9*
0 Add four rect primitives between the rounded corners*
20,1,$1+$1,$2,$3,$4,$5,0*
20,1,$1+$1,$4,$5,$6,$7,0*
20,1,$1+$1,$6,$7,$8,$9,0*
20,1,$1+$1,$8,$9,$2,$3,0*%
G04 Aperture macros list end*
%ADD10C,0.100000*%
%ADD11C,0.150000*%
%ADD12C,0.125000*%
%ADD13C,0.120000*%
%ADD14C,0.152400*%
%ADD15C,0.000000*%
%ADD16C,0.200000*%
%ADD17RoundRect,0.200000X-0.200000X-0.275000X0.200000X-0.275000X0.200000X0.275000X-0.200000X0.275000X0*%
%ADD18RoundRect,0.250000X0.475000X-0.250000X0.475000X0.250000X-0.475000X0.250000X-0.475000X-0.250000X0*%
%ADD19RoundRect,0.250000X0.650000X-0.325000X0.650000X0.325000X-0.650000X0.325000X-0.650000X-0.325000X0*%
%ADD20RoundRect,0.250000X-0.650000X0.325000X-0.650000X-0.325000X0.650000X-0.325000X0.650000X0.325000X0*%
%ADD21RoundRect,0.200000X-0.275000X0.200000X-0.275000X-0.200000X0.275000X-0.200000X0.275000X0.200000X0*%
%ADD22RoundRect,0.225000X-0.250000X0.225000X-0.250000X-0.225000X0.250000X-0.225000X0.250000X0.225000X0*%
%ADD23RoundRect,0.250000X0.325000X0.650000X-0.325000X0.650000X-0.325000X-0.650000X0.325000X-0.650000X0*%
%ADD24RoundRect,0.250000X0.450000X-0.262500X0.450000X0.262500X-0.450000X0.262500X-0.450000X-0.262500X0*%
%ADD25RoundRect,0.150000X-0.512500X-0.150000X0.512500X-0.150000X0.512500X0.150000X-0.512500X0.150000X0*%
%ADD26RoundRect,0.200000X0.275000X-0.200000X0.275000X0.200000X-0.275000X0.200000X-0.275000X-0.200000X0*%
%ADD27R,1.460500X0.558800*%
%ADD28R,1.193800X0.812800*%
%ADD29R,0.254000X0.711200*%
%ADD30RoundRect,0.225000X-0.225000X-0.375000X0.225000X-0.375000X0.225000X0.375000X-0.225000X0.375000X0*%
%ADD31RoundRect,0.218750X-0.218750X-0.256250X0.218750X-0.256250X0.218750X0.256250X-0.218750X0.256250X0*%
%ADD32C,2.000000*%
%ADD33RoundRect,0.250000X-0.325000X-0.650000X0.325000X-0.650000X0.325000X0.650000X-0.325000X0.650000X0*%
%ADD34R,1.981200X0.558800*%
%ADD35RoundRect,0.225000X0.225000X0.375000X-0.225000X0.375000X-0.225000X-0.375000X0.225000X-0.375000X0*%
%ADD36RoundRect,0.218750X-0.381250X0.218750X-0.381250X-0.218750X0.381250X-0.218750X0.381250X0.218750X0*%
%ADD37RoundRect,0.250000X-0.475000X0.250000X-0.475000X-0.250000X0.475000X-0.250000X0.475000X0.250000X0*%
%ADD38R,1.651000X0.431800*%
%ADD39RoundRect,0.150000X0.150000X-0.512500X0.150000X0.512500X-0.150000X0.512500X-0.150000X-0.512500X0*%
%ADD40RoundRect,0.225000X0.225000X0.250000X-0.225000X0.250000X-0.225000X-0.250000X0.225000X-0.250000X0*%
%ADD41RoundRect,0.225000X0.250000X-0.225000X0.250000X0.225000X-0.250000X0.225000X-0.250000X-0.225000X0*%
%ADD42RoundRect,0.200000X0.200000X0.275000X-0.200000X0.275000X-0.200000X-0.275000X0.200000X-0.275000X0*%
%ADD43RoundRect,0.102000X-0.685000X0.685000X-0.685000X-0.685000X0.685000X-0.685000X0.685000X0.685000X0*%
%ADD44C,1.574000*%
%ADD45RoundRect,0.102000X0.685000X-0.685000X0.685000X0.685000X-0.685000X0.685000X-0.685000X-0.685000X0*%
%ADD46C,2.200000*%
%ADD47RoundRect,0.200100X0.949900X0.949900X-0.949900X0.949900X-0.949900X-0.949900X0.949900X-0.949900X0*%
%ADD48C,3.200000*%
G04 APERTURE END LIST*
D10*
X147750000Y-81750000D02*
X144500000Y-81750000D01*
X147750000Y-68250000D02*
X144500000Y-68250000D01*
X147750000Y-95250000D02*
X144500000Y-95250000D01*
X147750000Y-72750000D02*
X144500000Y-72750000D01*
X147750000Y-90750000D02*
X144500000Y-90750000D01*
X147750000Y-99750000D02*
X144500000Y-99750000D01*
X147750000Y-104250000D02*
X144500000Y-104250000D01*
X147750000Y-86250000D02*
X144500000Y-86250000D01*
X147750000Y-77250000D02*
X144500000Y-77250000D01*
D11*
X146399609Y-115140476D02*
X146437704Y-115064286D01*
X146437704Y-115064286D02*
X146437704Y-114950000D01*
X146437704Y-114950000D02*
X146399609Y-114835714D01*
X146399609Y-114835714D02*
X146323419Y-114759524D01*
X146323419Y-114759524D02*
X146247228Y-114721429D01*
X146247228Y-114721429D02*
X146094847Y-114683333D01*
X146094847Y-114683333D02*
X145980561Y-114683333D01*
X145980561Y-114683333D02*
X145828180Y-114721429D01*
X145828180Y-114721429D02*
X145751990Y-114759524D01*
X145751990Y-114759524D02*
X145675800Y-114835714D01*
X145675800Y-114835714D02*
X145637704Y-114950000D01*
X145637704Y-114950000D02*
X145637704Y-115026191D01*
X145637704Y-115026191D02*
X145675800Y-115140476D01*
X145675800Y-115140476D02*
X145713895Y-115178572D01*
X145713895Y-115178572D02*
X145980561Y-115178572D01*
X145980561Y-115178572D02*
X145980561Y-115026191D01*
X145637704Y-115521429D02*
X146437704Y-115521429D01*
X146437704Y-115521429D02*
X145637704Y-115978572D01*
X145637704Y-115978572D02*
X146437704Y-115978572D01*
X145637704Y-116359524D02*
X146437704Y-116359524D01*
X146437704Y-116359524D02*
X146437704Y-116550000D01*
X146437704Y-116550000D02*
X146399609Y-116664286D01*
X146399609Y-116664286D02*
X146323419Y-116740476D01*
X146323419Y-116740476D02*
X146247228Y-116778571D01*
X146247228Y-116778571D02*
X146094847Y-116816667D01*
X146094847Y-116816667D02*
X145980561Y-116816667D01*
X145980561Y-116816667D02*
X145828180Y-116778571D01*
X145828180Y-116778571D02*
X145751990Y-116740476D01*
X145751990Y-116740476D02*
X145675800Y-116664286D01*
X145675800Y-116664286D02*
X145637704Y-116550000D01*
X145637704Y-116550000D02*
X145637704Y-116359524D01*
X146319777Y-95538095D02*
X146281681Y-95652381D01*
X146281681Y-95652381D02*
X146281681Y-95842857D01*
X146281681Y-95842857D02*
X146319777Y-95919048D01*
X146319777Y-95919048D02*
X146357872Y-95957143D01*
X146357872Y-95957143D02*
X146434062Y-95995238D01*
X146434062Y-95995238D02*
X146510253Y-95995238D01*
X146510253Y-95995238D02*
X146586443Y-95957143D01*
X146586443Y-95957143D02*
X146624538Y-95919048D01*
X146624538Y-95919048D02*
X146662634Y-95842857D01*
X146662634Y-95842857D02*
X146700729Y-95690476D01*
X146700729Y-95690476D02*
X146738824Y-95614286D01*
X146738824Y-95614286D02*
X146776919Y-95576191D01*
X146776919Y-95576191D02*
X146853110Y-95538095D01*
X146853110Y-95538095D02*
X146929300Y-95538095D01*
X146929300Y-95538095D02*
X147005491Y-95576191D01*
X147005491Y-95576191D02*
X147043586Y-95614286D01*
X147043586Y-95614286D02*
X147081681Y-95690476D01*
X147081681Y-95690476D02*
X147081681Y-95880953D01*
X147081681Y-95880953D02*
X147043586Y-95995238D01*
X146281681Y-96338096D02*
X147081681Y-96338096D01*
X147043586Y-97138095D02*
X147081681Y-97061905D01*
X147081681Y-97061905D02*
X147081681Y-96947619D01*
X147081681Y-96947619D02*
X147043586Y-96833333D01*
X147043586Y-96833333D02*
X146967396Y-96757143D01*
X146967396Y-96757143D02*
X146891205Y-96719048D01*
X146891205Y-96719048D02*
X146738824Y-96680952D01*
X146738824Y-96680952D02*
X146624538Y-96680952D01*
X146624538Y-96680952D02*
X146472157Y-96719048D01*
X146472157Y-96719048D02*
X146395967Y-96757143D01*
X146395967Y-96757143D02*
X146319777Y-96833333D01*
X146319777Y-96833333D02*
X146281681Y-96947619D01*
X146281681Y-96947619D02*
X146281681Y-97023810D01*
X146281681Y-97023810D02*
X146319777Y-97138095D01*
X146319777Y-97138095D02*
X146357872Y-97176191D01*
X146357872Y-97176191D02*
X146624538Y-97176191D01*
X146624538Y-97176191D02*
X146624538Y-97023810D01*
X147081681Y-98280953D02*
X147081681Y-98433334D01*
X147081681Y-98433334D02*
X147043586Y-98509524D01*
X147043586Y-98509524D02*
X146967396Y-98585715D01*
X146967396Y-98585715D02*
X146815015Y-98623810D01*
X146815015Y-98623810D02*
X146548348Y-98623810D01*
X146548348Y-98623810D02*
X146395967Y-98585715D01*
X146395967Y-98585715D02*
X146319777Y-98509524D01*
X146319777Y-98509524D02*
X146281681Y-98433334D01*
X146281681Y-98433334D02*
X146281681Y-98280953D01*
X146281681Y-98280953D02*
X146319777Y-98204762D01*
X146319777Y-98204762D02*
X146395967Y-98128572D01*
X146395967Y-98128572D02*
X146548348Y-98090476D01*
X146548348Y-98090476D02*
X146815015Y-98090476D01*
X146815015Y-98090476D02*
X146967396Y-98128572D01*
X146967396Y-98128572D02*
X147043586Y-98204762D01*
X147043586Y-98204762D02*
X147081681Y-98280953D01*
X146281681Y-98966667D02*
X147081681Y-98966667D01*
X147081681Y-98966667D02*
X146281681Y-99423810D01*
X146281681Y-99423810D02*
X147081681Y-99423810D01*
X145717536Y-96357142D02*
X145755631Y-96395238D01*
X145755631Y-96395238D02*
X145793726Y-96471428D01*
X145793726Y-96471428D02*
X145793726Y-96661904D01*
X145793726Y-96661904D02*
X145755631Y-96738095D01*
X145755631Y-96738095D02*
X145717536Y-96776190D01*
X145717536Y-96776190D02*
X145641345Y-96814285D01*
X145641345Y-96814285D02*
X145565155Y-96814285D01*
X145565155Y-96814285D02*
X145450869Y-96776190D01*
X145450869Y-96776190D02*
X144993726Y-96319047D01*
X144993726Y-96319047D02*
X144993726Y-96814285D01*
X145069917Y-97157143D02*
X145031822Y-97195238D01*
X145031822Y-97195238D02*
X144993726Y-97157143D01*
X144993726Y-97157143D02*
X145031822Y-97119047D01*
X145031822Y-97119047D02*
X145069917Y-97157143D01*
X145069917Y-97157143D02*
X144993726Y-97157143D01*
X145793726Y-97919047D02*
X145793726Y-97538095D01*
X145793726Y-97538095D02*
X145412774Y-97499999D01*
X145412774Y-97499999D02*
X145450869Y-97538095D01*
X145450869Y-97538095D02*
X145488964Y-97614285D01*
X145488964Y-97614285D02*
X145488964Y-97804761D01*
X145488964Y-97804761D02*
X145450869Y-97880952D01*
X145450869Y-97880952D02*
X145412774Y-97919047D01*
X145412774Y-97919047D02*
X145336583Y-97957142D01*
X145336583Y-97957142D02*
X145146107Y-97957142D01*
X145146107Y-97957142D02*
X145069917Y-97919047D01*
X145069917Y-97919047D02*
X145031822Y-97880952D01*
X145031822Y-97880952D02*
X144993726Y-97804761D01*
X144993726Y-97804761D02*
X144993726Y-97614285D01*
X144993726Y-97614285D02*
X145031822Y-97538095D01*
X145031822Y-97538095D02*
X145069917Y-97499999D01*
X145793726Y-98185714D02*
X144993726Y-98452381D01*
X144993726Y-98452381D02*
X145793726Y-98719047D01*
X146510253Y-91266666D02*
X146510253Y-91647619D01*
X146281681Y-91190476D02*
X147081681Y-91457143D01*
X147081681Y-91457143D02*
X146281681Y-91723809D01*
X146281681Y-91990476D02*
X147081681Y-91990476D01*
X147081681Y-91990476D02*
X146510253Y-92257142D01*
X146510253Y-92257142D02*
X147081681Y-92523809D01*
X147081681Y-92523809D02*
X146281681Y-92523809D01*
X146281681Y-92904762D02*
X147081681Y-92904762D01*
X147081681Y-92904762D02*
X147081681Y-93209524D01*
X147081681Y-93209524D02*
X147043586Y-93285714D01*
X147043586Y-93285714D02*
X147005491Y-93323809D01*
X147005491Y-93323809D02*
X146929300Y-93361905D01*
X146929300Y-93361905D02*
X146815015Y-93361905D01*
X146815015Y-93361905D02*
X146738824Y-93323809D01*
X146738824Y-93323809D02*
X146700729Y-93285714D01*
X146700729Y-93285714D02*
X146662634Y-93209524D01*
X146662634Y-93209524D02*
X146662634Y-92904762D01*
X147005491Y-94276190D02*
X147043586Y-94314286D01*
X147043586Y-94314286D02*
X147081681Y-94390476D01*
X147081681Y-94390476D02*
X147081681Y-94580952D01*
X147081681Y-94580952D02*
X147043586Y-94657143D01*
X147043586Y-94657143D02*
X147005491Y-94695238D01*
X147005491Y-94695238D02*
X146929300Y-94733333D01*
X146929300Y-94733333D02*
X146853110Y-94733333D01*
X146853110Y-94733333D02*
X146738824Y-94695238D01*
X146738824Y-94695238D02*
X146281681Y-94238095D01*
X146281681Y-94238095D02*
X146281681Y-94733333D01*
X144993726Y-92580953D02*
X145793726Y-92580953D01*
X144993726Y-92961905D02*
X145793726Y-92961905D01*
X145793726Y-92961905D02*
X144993726Y-93419048D01*
X144993726Y-93419048D02*
X145793726Y-93419048D01*
X146437704Y-65504762D02*
X146437704Y-65123810D01*
X146437704Y-65123810D02*
X146056752Y-65085714D01*
X146056752Y-65085714D02*
X146094847Y-65123810D01*
X146094847Y-65123810D02*
X146132942Y-65200000D01*
X146132942Y-65200000D02*
X146132942Y-65390476D01*
X146132942Y-65390476D02*
X146094847Y-65466667D01*
X146094847Y-65466667D02*
X146056752Y-65504762D01*
X146056752Y-65504762D02*
X145980561Y-65542857D01*
X145980561Y-65542857D02*
X145790085Y-65542857D01*
X145790085Y-65542857D02*
X145713895Y-65504762D01*
X145713895Y-65504762D02*
X145675800Y-65466667D01*
X145675800Y-65466667D02*
X145637704Y-65390476D01*
X145637704Y-65390476D02*
X145637704Y-65200000D01*
X145637704Y-65200000D02*
X145675800Y-65123810D01*
X145675800Y-65123810D02*
X145713895Y-65085714D01*
X146437704Y-65771429D02*
X145637704Y-66038096D01*
X145637704Y-66038096D02*
X146437704Y-66304762D01*
X145866276Y-66533333D02*
X145866276Y-66914286D01*
X145637704Y-66457143D02*
X146437704Y-66723810D01*
X146437704Y-66723810D02*
X145637704Y-66990476D01*
D10*
X183036443Y-77452130D02*
X184036443Y-77452130D01*
X184036443Y-77452130D02*
X184036443Y-77833082D01*
X184036443Y-77833082D02*
X183988824Y-77928320D01*
X183988824Y-77928320D02*
X183941205Y-77975939D01*
X183941205Y-77975939D02*
X183845967Y-78023558D01*
X183845967Y-78023558D02*
X183703110Y-78023558D01*
X183703110Y-78023558D02*
X183607872Y-77975939D01*
X183607872Y-77975939D02*
X183560253Y-77928320D01*
X183560253Y-77928320D02*
X183512634Y-77833082D01*
X183512634Y-77833082D02*
X183512634Y-77452130D01*
X183036443Y-78452130D02*
X183703110Y-78452130D01*
X184036443Y-78452130D02*
X183988824Y-78404511D01*
X183988824Y-78404511D02*
X183941205Y-78452130D01*
X183941205Y-78452130D02*
X183988824Y-78499749D01*
X183988824Y-78499749D02*
X184036443Y-78452130D01*
X184036443Y-78452130D02*
X183941205Y-78452130D01*
X183036443Y-78928320D02*
X183703110Y-78928320D01*
X183607872Y-78928320D02*
X183655491Y-78975939D01*
X183655491Y-78975939D02*
X183703110Y-79071177D01*
X183703110Y-79071177D02*
X183703110Y-79214034D01*
X183703110Y-79214034D02*
X183655491Y-79309272D01*
X183655491Y-79309272D02*
X183560253Y-79356891D01*
X183560253Y-79356891D02*
X183036443Y-79356891D01*
X183560253Y-79356891D02*
X183655491Y-79404510D01*
X183655491Y-79404510D02*
X183703110Y-79499748D01*
X183703110Y-79499748D02*
X183703110Y-79642605D01*
X183703110Y-79642605D02*
X183655491Y-79737844D01*
X183655491Y-79737844D02*
X183560253Y-79785463D01*
X183560253Y-79785463D02*
X183036443Y-79785463D01*
X183036443Y-80404510D02*
X183084063Y-80309272D01*
X183084063Y-80309272D02*
X183131682Y-80261653D01*
X183131682Y-80261653D02*
X183226920Y-80214034D01*
X183226920Y-80214034D02*
X183512634Y-80214034D01*
X183512634Y-80214034D02*
X183607872Y-80261653D01*
X183607872Y-80261653D02*
X183655491Y-80309272D01*
X183655491Y-80309272D02*
X183703110Y-80404510D01*
X183703110Y-80404510D02*
X183703110Y-80547367D01*
X183703110Y-80547367D02*
X183655491Y-80642605D01*
X183655491Y-80642605D02*
X183607872Y-80690224D01*
X183607872Y-80690224D02*
X183512634Y-80737843D01*
X183512634Y-80737843D02*
X183226920Y-80737843D01*
X183226920Y-80737843D02*
X183131682Y-80690224D01*
X183131682Y-80690224D02*
X183084063Y-80642605D01*
X183084063Y-80642605D02*
X183036443Y-80547367D01*
X183036443Y-80547367D02*
X183036443Y-80404510D01*
X183036443Y-81166415D02*
X183703110Y-81166415D01*
X183512634Y-81166415D02*
X183607872Y-81214034D01*
X183607872Y-81214034D02*
X183655491Y-81261653D01*
X183655491Y-81261653D02*
X183703110Y-81356891D01*
X183703110Y-81356891D02*
X183703110Y-81452129D01*
X183036443Y-81928320D02*
X183084063Y-81833082D01*
X183084063Y-81833082D02*
X183131682Y-81785463D01*
X183131682Y-81785463D02*
X183226920Y-81737844D01*
X183226920Y-81737844D02*
X183512634Y-81737844D01*
X183512634Y-81737844D02*
X183607872Y-81785463D01*
X183607872Y-81785463D02*
X183655491Y-81833082D01*
X183655491Y-81833082D02*
X183703110Y-81928320D01*
X183703110Y-81928320D02*
X183703110Y-82071177D01*
X183703110Y-82071177D02*
X183655491Y-82166415D01*
X183655491Y-82166415D02*
X183607872Y-82214034D01*
X183607872Y-82214034D02*
X183512634Y-82261653D01*
X183512634Y-82261653D02*
X183226920Y-82261653D01*
X183226920Y-82261653D02*
X183131682Y-82214034D01*
X183131682Y-82214034D02*
X183084063Y-82166415D01*
X183084063Y-82166415D02*
X183036443Y-82071177D01*
X183036443Y-82071177D02*
X183036443Y-81928320D01*
X183703110Y-82690225D02*
X183036443Y-82690225D01*
X183607872Y-82690225D02*
X183655491Y-82737844D01*
X183655491Y-82737844D02*
X183703110Y-82833082D01*
X183703110Y-82833082D02*
X183703110Y-82975939D01*
X183703110Y-82975939D02*
X183655491Y-83071177D01*
X183655491Y-83071177D02*
X183560253Y-83118796D01*
X183560253Y-83118796D02*
X183036443Y-83118796D01*
X183036443Y-83594987D02*
X183703110Y-83594987D01*
X184036443Y-83594987D02*
X183988824Y-83547368D01*
X183988824Y-83547368D02*
X183941205Y-83594987D01*
X183941205Y-83594987D02*
X183988824Y-83642606D01*
X183988824Y-83642606D02*
X184036443Y-83594987D01*
X184036443Y-83594987D02*
X183941205Y-83594987D01*
X183036443Y-84833082D02*
X184036443Y-84833082D01*
X184036443Y-84833082D02*
X184036443Y-85214034D01*
X184036443Y-85214034D02*
X183988824Y-85309272D01*
X183988824Y-85309272D02*
X183941205Y-85356891D01*
X183941205Y-85356891D02*
X183845967Y-85404510D01*
X183845967Y-85404510D02*
X183703110Y-85404510D01*
X183703110Y-85404510D02*
X183607872Y-85356891D01*
X183607872Y-85356891D02*
X183560253Y-85309272D01*
X183560253Y-85309272D02*
X183512634Y-85214034D01*
X183512634Y-85214034D02*
X183512634Y-84833082D01*
X183036443Y-85833082D02*
X183703110Y-85833082D01*
X184036443Y-85833082D02*
X183988824Y-85785463D01*
X183988824Y-85785463D02*
X183941205Y-85833082D01*
X183941205Y-85833082D02*
X183988824Y-85880701D01*
X183988824Y-85880701D02*
X184036443Y-85833082D01*
X184036443Y-85833082D02*
X183941205Y-85833082D01*
X183084063Y-86737843D02*
X183036443Y-86642605D01*
X183036443Y-86642605D02*
X183036443Y-86452129D01*
X183036443Y-86452129D02*
X183084063Y-86356891D01*
X183084063Y-86356891D02*
X183131682Y-86309272D01*
X183131682Y-86309272D02*
X183226920Y-86261653D01*
X183226920Y-86261653D02*
X183512634Y-86261653D01*
X183512634Y-86261653D02*
X183607872Y-86309272D01*
X183607872Y-86309272D02*
X183655491Y-86356891D01*
X183655491Y-86356891D02*
X183703110Y-86452129D01*
X183703110Y-86452129D02*
X183703110Y-86642605D01*
X183703110Y-86642605D02*
X183655491Y-86737843D01*
X183036443Y-87309272D02*
X183084063Y-87214034D01*
X183084063Y-87214034D02*
X183131682Y-87166415D01*
X183131682Y-87166415D02*
X183226920Y-87118796D01*
X183226920Y-87118796D02*
X183512634Y-87118796D01*
X183512634Y-87118796D02*
X183607872Y-87166415D01*
X183607872Y-87166415D02*
X183655491Y-87214034D01*
X183655491Y-87214034D02*
X183703110Y-87309272D01*
X183703110Y-87309272D02*
X183703110Y-87452129D01*
X183703110Y-87452129D02*
X183655491Y-87547367D01*
X183655491Y-87547367D02*
X183607872Y-87594986D01*
X183607872Y-87594986D02*
X183512634Y-87642605D01*
X183512634Y-87642605D02*
X183226920Y-87642605D01*
X183226920Y-87642605D02*
X183131682Y-87594986D01*
X183131682Y-87594986D02*
X183084063Y-87547367D01*
X183084063Y-87547367D02*
X183036443Y-87452129D01*
X183036443Y-87452129D02*
X183036443Y-87309272D01*
X183036443Y-89309272D02*
X183036443Y-88833082D01*
X183036443Y-88833082D02*
X184036443Y-88833082D01*
X183036443Y-89642606D02*
X183703110Y-89642606D01*
X184036443Y-89642606D02*
X183988824Y-89594987D01*
X183988824Y-89594987D02*
X183941205Y-89642606D01*
X183941205Y-89642606D02*
X183988824Y-89690225D01*
X183988824Y-89690225D02*
X184036443Y-89642606D01*
X184036443Y-89642606D02*
X183941205Y-89642606D01*
X183036443Y-90118796D02*
X184036443Y-90118796D01*
X184036443Y-90118796D02*
X184036443Y-90499748D01*
X184036443Y-90499748D02*
X183988824Y-90594986D01*
X183988824Y-90594986D02*
X183941205Y-90642605D01*
X183941205Y-90642605D02*
X183845967Y-90690224D01*
X183845967Y-90690224D02*
X183703110Y-90690224D01*
X183703110Y-90690224D02*
X183607872Y-90642605D01*
X183607872Y-90642605D02*
X183560253Y-90594986D01*
X183560253Y-90594986D02*
X183512634Y-90499748D01*
X183512634Y-90499748D02*
X183512634Y-90118796D01*
X183036443Y-91261653D02*
X183084063Y-91166415D01*
X183084063Y-91166415D02*
X183131682Y-91118796D01*
X183131682Y-91118796D02*
X183226920Y-91071177D01*
X183226920Y-91071177D02*
X183512634Y-91071177D01*
X183512634Y-91071177D02*
X183607872Y-91118796D01*
X183607872Y-91118796D02*
X183655491Y-91166415D01*
X183655491Y-91166415D02*
X183703110Y-91261653D01*
X183703110Y-91261653D02*
X183703110Y-91404510D01*
X183703110Y-91404510D02*
X183655491Y-91499748D01*
X183655491Y-91499748D02*
X183607872Y-91547367D01*
X183607872Y-91547367D02*
X183512634Y-91594986D01*
X183512634Y-91594986D02*
X183226920Y-91594986D01*
X183226920Y-91594986D02*
X183131682Y-91547367D01*
X183131682Y-91547367D02*
X183084063Y-91499748D01*
X183084063Y-91499748D02*
X183036443Y-91404510D01*
X183036443Y-91404510D02*
X183036443Y-91261653D01*
X183941205Y-92737844D02*
X183988824Y-92785463D01*
X183988824Y-92785463D02*
X184036443Y-92880701D01*
X184036443Y-92880701D02*
X184036443Y-93118796D01*
X184036443Y-93118796D02*
X183988824Y-93214034D01*
X183988824Y-93214034D02*
X183941205Y-93261653D01*
X183941205Y-93261653D02*
X183845967Y-93309272D01*
X183845967Y-93309272D02*
X183750729Y-93309272D01*
X183750729Y-93309272D02*
X183607872Y-93261653D01*
X183607872Y-93261653D02*
X183036443Y-92690225D01*
X183036443Y-92690225D02*
X183036443Y-93309272D01*
X184036443Y-94404511D02*
X183036443Y-95071177D01*
X184036443Y-95071177D02*
X183036443Y-94404511D01*
X183036443Y-95928320D02*
X183036443Y-95452130D01*
X183036443Y-95452130D02*
X184036443Y-95452130D01*
X184036443Y-96928321D02*
X183036443Y-97166416D01*
X183036443Y-97166416D02*
X183750729Y-97356892D01*
X183750729Y-97356892D02*
X183036443Y-97547368D01*
X183036443Y-97547368D02*
X184036443Y-97785464D01*
X147750000Y-108750000D02*
X144500000Y-108750000D01*
X147750000Y-63750000D02*
X144500000Y-63750000D01*
X144500000Y-54750000D02*
X144500000Y-117750000D01*
X147750000Y-113250000D02*
X144500000Y-113250000D01*
X147750000Y-117750000D02*
X147750000Y-59250000D01*
X147750000Y-59250000D02*
X147750000Y-54750000D01*
X147750000Y-59250000D02*
X144500000Y-59250000D01*
X147750000Y-54750000D02*
X144500000Y-54750000D01*
X147750000Y-117750000D02*
X144500000Y-117750000D01*
D11*
X146510253Y-69509523D02*
X146510253Y-69890476D01*
X146281681Y-69433333D02*
X147081681Y-69700000D01*
X147081681Y-69700000D02*
X146281681Y-69966666D01*
X146281681Y-70233333D02*
X147081681Y-70233333D01*
X147081681Y-70233333D02*
X147081681Y-70423809D01*
X147081681Y-70423809D02*
X147043586Y-70538095D01*
X147043586Y-70538095D02*
X146967396Y-70614285D01*
X146967396Y-70614285D02*
X146891205Y-70652380D01*
X146891205Y-70652380D02*
X146738824Y-70690476D01*
X146738824Y-70690476D02*
X146624538Y-70690476D01*
X146624538Y-70690476D02*
X146472157Y-70652380D01*
X146472157Y-70652380D02*
X146395967Y-70614285D01*
X146395967Y-70614285D02*
X146319777Y-70538095D01*
X146319777Y-70538095D02*
X146281681Y-70423809D01*
X146281681Y-70423809D02*
X146281681Y-70233333D01*
X146357872Y-71490476D02*
X146319777Y-71452380D01*
X146319777Y-71452380D02*
X146281681Y-71338095D01*
X146281681Y-71338095D02*
X146281681Y-71261904D01*
X146281681Y-71261904D02*
X146319777Y-71147618D01*
X146319777Y-71147618D02*
X146395967Y-71071428D01*
X146395967Y-71071428D02*
X146472157Y-71033333D01*
X146472157Y-71033333D02*
X146624538Y-70995237D01*
X146624538Y-70995237D02*
X146738824Y-70995237D01*
X146738824Y-70995237D02*
X146891205Y-71033333D01*
X146891205Y-71033333D02*
X146967396Y-71071428D01*
X146967396Y-71071428D02*
X147043586Y-71147618D01*
X147043586Y-71147618D02*
X147081681Y-71261904D01*
X147081681Y-71261904D02*
X147081681Y-71338095D01*
X147081681Y-71338095D02*
X147043586Y-71452380D01*
X147043586Y-71452380D02*
X147005491Y-71490476D01*
X145793726Y-69128571D02*
X144993726Y-69395238D01*
X144993726Y-69395238D02*
X145793726Y-69661904D01*
X144993726Y-70385714D02*
X145374679Y-70119047D01*
X144993726Y-69928571D02*
X145793726Y-69928571D01*
X145793726Y-69928571D02*
X145793726Y-70233333D01*
X145793726Y-70233333D02*
X145755631Y-70309523D01*
X145755631Y-70309523D02*
X145717536Y-70347618D01*
X145717536Y-70347618D02*
X145641345Y-70385714D01*
X145641345Y-70385714D02*
X145527060Y-70385714D01*
X145527060Y-70385714D02*
X145450869Y-70347618D01*
X145450869Y-70347618D02*
X145412774Y-70309523D01*
X145412774Y-70309523D02*
X145374679Y-70233333D01*
X145374679Y-70233333D02*
X145374679Y-69928571D01*
X145412774Y-70728571D02*
X145412774Y-70995237D01*
X144993726Y-71109523D02*
X144993726Y-70728571D01*
X144993726Y-70728571D02*
X145793726Y-70728571D01*
X145793726Y-70728571D02*
X145793726Y-71109523D01*
X145412774Y-71719047D02*
X145412774Y-71452381D01*
X144993726Y-71452381D02*
X145793726Y-71452381D01*
X145793726Y-71452381D02*
X145793726Y-71833333D01*
X146510253Y-86766666D02*
X146510253Y-87147619D01*
X146281681Y-86690476D02*
X147081681Y-86957143D01*
X147081681Y-86957143D02*
X146281681Y-87223809D01*
X146281681Y-87490476D02*
X147081681Y-87490476D01*
X147081681Y-87490476D02*
X146510253Y-87757142D01*
X146510253Y-87757142D02*
X147081681Y-88023809D01*
X147081681Y-88023809D02*
X146281681Y-88023809D01*
X146281681Y-88404762D02*
X147081681Y-88404762D01*
X147081681Y-88404762D02*
X147081681Y-88709524D01*
X147081681Y-88709524D02*
X147043586Y-88785714D01*
X147043586Y-88785714D02*
X147005491Y-88823809D01*
X147005491Y-88823809D02*
X146929300Y-88861905D01*
X146929300Y-88861905D02*
X146815015Y-88861905D01*
X146815015Y-88861905D02*
X146738824Y-88823809D01*
X146738824Y-88823809D02*
X146700729Y-88785714D01*
X146700729Y-88785714D02*
X146662634Y-88709524D01*
X146662634Y-88709524D02*
X146662634Y-88404762D01*
X147005491Y-89776190D02*
X147043586Y-89814286D01*
X147043586Y-89814286D02*
X147081681Y-89890476D01*
X147081681Y-89890476D02*
X147081681Y-90080952D01*
X147081681Y-90080952D02*
X147043586Y-90157143D01*
X147043586Y-90157143D02*
X147005491Y-90195238D01*
X147005491Y-90195238D02*
X146929300Y-90233333D01*
X146929300Y-90233333D02*
X146853110Y-90233333D01*
X146853110Y-90233333D02*
X146738824Y-90195238D01*
X146738824Y-90195238D02*
X146281681Y-89738095D01*
X146281681Y-89738095D02*
X146281681Y-90233333D01*
X145793726Y-87700000D02*
X145793726Y-87852381D01*
X145793726Y-87852381D02*
X145755631Y-87928571D01*
X145755631Y-87928571D02*
X145679441Y-88004762D01*
X145679441Y-88004762D02*
X145527060Y-88042857D01*
X145527060Y-88042857D02*
X145260393Y-88042857D01*
X145260393Y-88042857D02*
X145108012Y-88004762D01*
X145108012Y-88004762D02*
X145031822Y-87928571D01*
X145031822Y-87928571D02*
X144993726Y-87852381D01*
X144993726Y-87852381D02*
X144993726Y-87700000D01*
X144993726Y-87700000D02*
X145031822Y-87623809D01*
X145031822Y-87623809D02*
X145108012Y-87547619D01*
X145108012Y-87547619D02*
X145260393Y-87509523D01*
X145260393Y-87509523D02*
X145527060Y-87509523D01*
X145527060Y-87509523D02*
X145679441Y-87547619D01*
X145679441Y-87547619D02*
X145755631Y-87623809D01*
X145755631Y-87623809D02*
X145793726Y-87700000D01*
X145793726Y-88385714D02*
X145146107Y-88385714D01*
X145146107Y-88385714D02*
X145069917Y-88423809D01*
X145069917Y-88423809D02*
X145031822Y-88461904D01*
X145031822Y-88461904D02*
X144993726Y-88538095D01*
X144993726Y-88538095D02*
X144993726Y-88690476D01*
X144993726Y-88690476D02*
X145031822Y-88766666D01*
X145031822Y-88766666D02*
X145069917Y-88804761D01*
X145069917Y-88804761D02*
X145146107Y-88842857D01*
X145146107Y-88842857D02*
X145793726Y-88842857D01*
X145793726Y-89109523D02*
X145793726Y-89566666D01*
X144993726Y-89338094D02*
X145793726Y-89338094D01*
X145976919Y-100400000D02*
X146015015Y-100361905D01*
X146015015Y-100361905D02*
X146129300Y-100285714D01*
X146129300Y-100285714D02*
X146205491Y-100247619D01*
X146205491Y-100247619D02*
X146319777Y-100209524D01*
X146319777Y-100209524D02*
X146510253Y-100171429D01*
X146510253Y-100171429D02*
X146662634Y-100171429D01*
X146662634Y-100171429D02*
X146853110Y-100209524D01*
X146853110Y-100209524D02*
X146967396Y-100247619D01*
X146967396Y-100247619D02*
X147043586Y-100285714D01*
X147043586Y-100285714D02*
X147157872Y-100361905D01*
X147157872Y-100361905D02*
X147195967Y-100400000D01*
X146281681Y-101085714D02*
X146281681Y-100704762D01*
X146281681Y-100704762D02*
X147081681Y-100704762D01*
X146281681Y-101352381D02*
X147081681Y-101352381D01*
X146700729Y-101352381D02*
X146700729Y-101809524D01*
X146281681Y-101809524D02*
X147081681Y-101809524D01*
X145976919Y-102114285D02*
X146015015Y-102152380D01*
X146015015Y-102152380D02*
X146129300Y-102228571D01*
X146129300Y-102228571D02*
X146205491Y-102266666D01*
X146205491Y-102266666D02*
X146319777Y-102304761D01*
X146319777Y-102304761D02*
X146510253Y-102342857D01*
X146510253Y-102342857D02*
X146662634Y-102342857D01*
X146662634Y-102342857D02*
X146853110Y-102304761D01*
X146853110Y-102304761D02*
X146967396Y-102266666D01*
X146967396Y-102266666D02*
X147043586Y-102228571D01*
X147043586Y-102228571D02*
X147157872Y-102152380D01*
X147157872Y-102152380D02*
X147195967Y-102114285D01*
X146700729Y-102990475D02*
X146662634Y-103104761D01*
X146662634Y-103104761D02*
X146624538Y-103142856D01*
X146624538Y-103142856D02*
X146548348Y-103180952D01*
X146548348Y-103180952D02*
X146434062Y-103180952D01*
X146434062Y-103180952D02*
X146357872Y-103142856D01*
X146357872Y-103142856D02*
X146319777Y-103104761D01*
X146319777Y-103104761D02*
X146281681Y-103028571D01*
X146281681Y-103028571D02*
X146281681Y-102723809D01*
X146281681Y-102723809D02*
X147081681Y-102723809D01*
X147081681Y-102723809D02*
X147081681Y-102990475D01*
X147081681Y-102990475D02*
X147043586Y-103066666D01*
X147043586Y-103066666D02*
X147005491Y-103104761D01*
X147005491Y-103104761D02*
X146929300Y-103142856D01*
X146929300Y-103142856D02*
X146853110Y-103142856D01*
X146853110Y-103142856D02*
X146776919Y-103104761D01*
X146776919Y-103104761D02*
X146738824Y-103066666D01*
X146738824Y-103066666D02*
X146700729Y-102990475D01*
X146700729Y-102990475D02*
X146700729Y-102723809D01*
X146700729Y-103790475D02*
X146700729Y-103523809D01*
X146281681Y-103523809D02*
X147081681Y-103523809D01*
X147081681Y-103523809D02*
X147081681Y-103904761D01*
X145031822Y-101180952D02*
X144993726Y-101295238D01*
X144993726Y-101295238D02*
X144993726Y-101485714D01*
X144993726Y-101485714D02*
X145031822Y-101561905D01*
X145031822Y-101561905D02*
X145069917Y-101600000D01*
X145069917Y-101600000D02*
X145146107Y-101638095D01*
X145146107Y-101638095D02*
X145222298Y-101638095D01*
X145222298Y-101638095D02*
X145298488Y-101600000D01*
X145298488Y-101600000D02*
X145336583Y-101561905D01*
X145336583Y-101561905D02*
X145374679Y-101485714D01*
X145374679Y-101485714D02*
X145412774Y-101333333D01*
X145412774Y-101333333D02*
X145450869Y-101257143D01*
X145450869Y-101257143D02*
X145488964Y-101219048D01*
X145488964Y-101219048D02*
X145565155Y-101180952D01*
X145565155Y-101180952D02*
X145641345Y-101180952D01*
X145641345Y-101180952D02*
X145717536Y-101219048D01*
X145717536Y-101219048D02*
X145755631Y-101257143D01*
X145755631Y-101257143D02*
X145793726Y-101333333D01*
X145793726Y-101333333D02*
X145793726Y-101523810D01*
X145793726Y-101523810D02*
X145755631Y-101638095D01*
X144993726Y-101980953D02*
X145793726Y-101980953D01*
X145755631Y-102780952D02*
X145793726Y-102704762D01*
X145793726Y-102704762D02*
X145793726Y-102590476D01*
X145793726Y-102590476D02*
X145755631Y-102476190D01*
X145755631Y-102476190D02*
X145679441Y-102400000D01*
X145679441Y-102400000D02*
X145603250Y-102361905D01*
X145603250Y-102361905D02*
X145450869Y-102323809D01*
X145450869Y-102323809D02*
X145336583Y-102323809D01*
X145336583Y-102323809D02*
X145184202Y-102361905D01*
X145184202Y-102361905D02*
X145108012Y-102400000D01*
X145108012Y-102400000D02*
X145031822Y-102476190D01*
X145031822Y-102476190D02*
X144993726Y-102590476D01*
X144993726Y-102590476D02*
X144993726Y-102666667D01*
X144993726Y-102666667D02*
X145031822Y-102780952D01*
X145031822Y-102780952D02*
X145069917Y-102819048D01*
X145069917Y-102819048D02*
X145336583Y-102819048D01*
X145336583Y-102819048D02*
X145336583Y-102666667D01*
X146510253Y-78509523D02*
X146510253Y-78890476D01*
X146281681Y-78433333D02*
X147081681Y-78700000D01*
X147081681Y-78700000D02*
X146281681Y-78966666D01*
X146281681Y-79233333D02*
X147081681Y-79233333D01*
X147081681Y-79233333D02*
X147081681Y-79423809D01*
X147081681Y-79423809D02*
X147043586Y-79538095D01*
X147043586Y-79538095D02*
X146967396Y-79614285D01*
X146967396Y-79614285D02*
X146891205Y-79652380D01*
X146891205Y-79652380D02*
X146738824Y-79690476D01*
X146738824Y-79690476D02*
X146624538Y-79690476D01*
X146624538Y-79690476D02*
X146472157Y-79652380D01*
X146472157Y-79652380D02*
X146395967Y-79614285D01*
X146395967Y-79614285D02*
X146319777Y-79538095D01*
X146319777Y-79538095D02*
X146281681Y-79423809D01*
X146281681Y-79423809D02*
X146281681Y-79233333D01*
X146357872Y-80490476D02*
X146319777Y-80452380D01*
X146319777Y-80452380D02*
X146281681Y-80338095D01*
X146281681Y-80338095D02*
X146281681Y-80261904D01*
X146281681Y-80261904D02*
X146319777Y-80147618D01*
X146319777Y-80147618D02*
X146395967Y-80071428D01*
X146395967Y-80071428D02*
X146472157Y-80033333D01*
X146472157Y-80033333D02*
X146624538Y-79995237D01*
X146624538Y-79995237D02*
X146738824Y-79995237D01*
X146738824Y-79995237D02*
X146891205Y-80033333D01*
X146891205Y-80033333D02*
X146967396Y-80071428D01*
X146967396Y-80071428D02*
X147043586Y-80147618D01*
X147043586Y-80147618D02*
X147081681Y-80261904D01*
X147081681Y-80261904D02*
X147081681Y-80338095D01*
X147081681Y-80338095D02*
X147043586Y-80452380D01*
X147043586Y-80452380D02*
X147005491Y-80490476D01*
X145717536Y-78357142D02*
X145755631Y-78395238D01*
X145755631Y-78395238D02*
X145793726Y-78471428D01*
X145793726Y-78471428D02*
X145793726Y-78661904D01*
X145793726Y-78661904D02*
X145755631Y-78738095D01*
X145755631Y-78738095D02*
X145717536Y-78776190D01*
X145717536Y-78776190D02*
X145641345Y-78814285D01*
X145641345Y-78814285D02*
X145565155Y-78814285D01*
X145565155Y-78814285D02*
X145450869Y-78776190D01*
X145450869Y-78776190D02*
X144993726Y-78319047D01*
X144993726Y-78319047D02*
X144993726Y-78814285D01*
X145069917Y-79157143D02*
X145031822Y-79195238D01*
X145031822Y-79195238D02*
X144993726Y-79157143D01*
X144993726Y-79157143D02*
X145031822Y-79119047D01*
X145031822Y-79119047D02*
X145069917Y-79157143D01*
X145069917Y-79157143D02*
X144993726Y-79157143D01*
X145793726Y-79919047D02*
X145793726Y-79538095D01*
X145793726Y-79538095D02*
X145412774Y-79499999D01*
X145412774Y-79499999D02*
X145450869Y-79538095D01*
X145450869Y-79538095D02*
X145488964Y-79614285D01*
X145488964Y-79614285D02*
X145488964Y-79804761D01*
X145488964Y-79804761D02*
X145450869Y-79880952D01*
X145450869Y-79880952D02*
X145412774Y-79919047D01*
X145412774Y-79919047D02*
X145336583Y-79957142D01*
X145336583Y-79957142D02*
X145146107Y-79957142D01*
X145146107Y-79957142D02*
X145069917Y-79919047D01*
X145069917Y-79919047D02*
X145031822Y-79880952D01*
X145031822Y-79880952D02*
X144993726Y-79804761D01*
X144993726Y-79804761D02*
X144993726Y-79614285D01*
X144993726Y-79614285D02*
X145031822Y-79538095D01*
X145031822Y-79538095D02*
X145069917Y-79499999D01*
X145793726Y-80185714D02*
X144993726Y-80452381D01*
X144993726Y-80452381D02*
X145793726Y-80719047D01*
X146319777Y-83180952D02*
X146281681Y-83295238D01*
X146281681Y-83295238D02*
X146281681Y-83485714D01*
X146281681Y-83485714D02*
X146319777Y-83561905D01*
X146319777Y-83561905D02*
X146357872Y-83600000D01*
X146357872Y-83600000D02*
X146434062Y-83638095D01*
X146434062Y-83638095D02*
X146510253Y-83638095D01*
X146510253Y-83638095D02*
X146586443Y-83600000D01*
X146586443Y-83600000D02*
X146624538Y-83561905D01*
X146624538Y-83561905D02*
X146662634Y-83485714D01*
X146662634Y-83485714D02*
X146700729Y-83333333D01*
X146700729Y-83333333D02*
X146738824Y-83257143D01*
X146738824Y-83257143D02*
X146776919Y-83219048D01*
X146776919Y-83219048D02*
X146853110Y-83180952D01*
X146853110Y-83180952D02*
X146929300Y-83180952D01*
X146929300Y-83180952D02*
X147005491Y-83219048D01*
X147005491Y-83219048D02*
X147043586Y-83257143D01*
X147043586Y-83257143D02*
X147081681Y-83333333D01*
X147081681Y-83333333D02*
X147081681Y-83523810D01*
X147081681Y-83523810D02*
X147043586Y-83638095D01*
X146281681Y-83980953D02*
X147081681Y-83980953D01*
X147081681Y-83980953D02*
X147081681Y-84285715D01*
X147081681Y-84285715D02*
X147043586Y-84361905D01*
X147043586Y-84361905D02*
X147005491Y-84400000D01*
X147005491Y-84400000D02*
X146929300Y-84438096D01*
X146929300Y-84438096D02*
X146815015Y-84438096D01*
X146815015Y-84438096D02*
X146738824Y-84400000D01*
X146738824Y-84400000D02*
X146700729Y-84361905D01*
X146700729Y-84361905D02*
X146662634Y-84285715D01*
X146662634Y-84285715D02*
X146662634Y-83980953D01*
X146281681Y-84780953D02*
X147081681Y-84780953D01*
X145069917Y-83866667D02*
X145031822Y-83828571D01*
X145031822Y-83828571D02*
X144993726Y-83714286D01*
X144993726Y-83714286D02*
X144993726Y-83638095D01*
X144993726Y-83638095D02*
X145031822Y-83523809D01*
X145031822Y-83523809D02*
X145108012Y-83447619D01*
X145108012Y-83447619D02*
X145184202Y-83409524D01*
X145184202Y-83409524D02*
X145336583Y-83371428D01*
X145336583Y-83371428D02*
X145450869Y-83371428D01*
X145450869Y-83371428D02*
X145603250Y-83409524D01*
X145603250Y-83409524D02*
X145679441Y-83447619D01*
X145679441Y-83447619D02*
X145755631Y-83523809D01*
X145755631Y-83523809D02*
X145793726Y-83638095D01*
X145793726Y-83638095D02*
X145793726Y-83714286D01*
X145793726Y-83714286D02*
X145755631Y-83828571D01*
X145755631Y-83828571D02*
X145717536Y-83866667D01*
X145031822Y-84171428D02*
X144993726Y-84285714D01*
X144993726Y-84285714D02*
X144993726Y-84476190D01*
X144993726Y-84476190D02*
X145031822Y-84552381D01*
X145031822Y-84552381D02*
X145069917Y-84590476D01*
X145069917Y-84590476D02*
X145146107Y-84628571D01*
X145146107Y-84628571D02*
X145222298Y-84628571D01*
X145222298Y-84628571D02*
X145298488Y-84590476D01*
X145298488Y-84590476D02*
X145336583Y-84552381D01*
X145336583Y-84552381D02*
X145374679Y-84476190D01*
X145374679Y-84476190D02*
X145412774Y-84323809D01*
X145412774Y-84323809D02*
X145450869Y-84247619D01*
X145450869Y-84247619D02*
X145488964Y-84209524D01*
X145488964Y-84209524D02*
X145565155Y-84171428D01*
X145565155Y-84171428D02*
X145641345Y-84171428D01*
X145641345Y-84171428D02*
X145717536Y-84209524D01*
X145717536Y-84209524D02*
X145755631Y-84247619D01*
X145755631Y-84247619D02*
X145793726Y-84323809D01*
X145793726Y-84323809D02*
X145793726Y-84514286D01*
X145793726Y-84514286D02*
X145755631Y-84628571D01*
X146510253Y-104766666D02*
X146510253Y-105147619D01*
X146281681Y-104690476D02*
X147081681Y-104957143D01*
X147081681Y-104957143D02*
X146281681Y-105223809D01*
X146281681Y-105490476D02*
X147081681Y-105490476D01*
X147081681Y-105490476D02*
X146510253Y-105757142D01*
X146510253Y-105757142D02*
X147081681Y-106023809D01*
X147081681Y-106023809D02*
X146281681Y-106023809D01*
X146281681Y-106404762D02*
X147081681Y-106404762D01*
X147081681Y-106404762D02*
X147081681Y-106709524D01*
X147081681Y-106709524D02*
X147043586Y-106785714D01*
X147043586Y-106785714D02*
X147005491Y-106823809D01*
X147005491Y-106823809D02*
X146929300Y-106861905D01*
X146929300Y-106861905D02*
X146815015Y-106861905D01*
X146815015Y-106861905D02*
X146738824Y-106823809D01*
X146738824Y-106823809D02*
X146700729Y-106785714D01*
X146700729Y-106785714D02*
X146662634Y-106709524D01*
X146662634Y-106709524D02*
X146662634Y-106404762D01*
X146281681Y-108233333D02*
X146281681Y-107776190D01*
X146281681Y-108004762D02*
X147081681Y-108004762D01*
X147081681Y-108004762D02*
X146967396Y-107928571D01*
X146967396Y-107928571D02*
X146891205Y-107852381D01*
X146891205Y-107852381D02*
X146853110Y-107776190D01*
X145793726Y-105700000D02*
X145793726Y-105852381D01*
X145793726Y-105852381D02*
X145755631Y-105928571D01*
X145755631Y-105928571D02*
X145679441Y-106004762D01*
X145679441Y-106004762D02*
X145527060Y-106042857D01*
X145527060Y-106042857D02*
X145260393Y-106042857D01*
X145260393Y-106042857D02*
X145108012Y-106004762D01*
X145108012Y-106004762D02*
X145031822Y-105928571D01*
X145031822Y-105928571D02*
X144993726Y-105852381D01*
X144993726Y-105852381D02*
X144993726Y-105700000D01*
X144993726Y-105700000D02*
X145031822Y-105623809D01*
X145031822Y-105623809D02*
X145108012Y-105547619D01*
X145108012Y-105547619D02*
X145260393Y-105509523D01*
X145260393Y-105509523D02*
X145527060Y-105509523D01*
X145527060Y-105509523D02*
X145679441Y-105547619D01*
X145679441Y-105547619D02*
X145755631Y-105623809D01*
X145755631Y-105623809D02*
X145793726Y-105700000D01*
X145793726Y-106385714D02*
X145146107Y-106385714D01*
X145146107Y-106385714D02*
X145069917Y-106423809D01*
X145069917Y-106423809D02*
X145031822Y-106461904D01*
X145031822Y-106461904D02*
X144993726Y-106538095D01*
X144993726Y-106538095D02*
X144993726Y-106690476D01*
X144993726Y-106690476D02*
X145031822Y-106766666D01*
X145031822Y-106766666D02*
X145069917Y-106804761D01*
X145069917Y-106804761D02*
X145146107Y-106842857D01*
X145146107Y-106842857D02*
X145793726Y-106842857D01*
X145793726Y-107109523D02*
X145793726Y-107566666D01*
X144993726Y-107338094D02*
X145793726Y-107338094D01*
X146281681Y-109150000D02*
X147081681Y-109150000D01*
X147081681Y-109150000D02*
X147081681Y-109316667D01*
X147081681Y-109316667D02*
X147043586Y-109416667D01*
X147043586Y-109416667D02*
X146967396Y-109483334D01*
X146967396Y-109483334D02*
X146891205Y-109516667D01*
X146891205Y-109516667D02*
X146738824Y-109550000D01*
X146738824Y-109550000D02*
X146624538Y-109550000D01*
X146624538Y-109550000D02*
X146472157Y-109516667D01*
X146472157Y-109516667D02*
X146395967Y-109483334D01*
X146395967Y-109483334D02*
X146319777Y-109416667D01*
X146319777Y-109416667D02*
X146281681Y-109316667D01*
X146281681Y-109316667D02*
X146281681Y-109150000D01*
X146281681Y-109850000D02*
X147081681Y-109850000D01*
X147043586Y-110550000D02*
X147081681Y-110483333D01*
X147081681Y-110483333D02*
X147081681Y-110383333D01*
X147081681Y-110383333D02*
X147043586Y-110283333D01*
X147043586Y-110283333D02*
X146967396Y-110216667D01*
X146967396Y-110216667D02*
X146891205Y-110183333D01*
X146891205Y-110183333D02*
X146738824Y-110150000D01*
X146738824Y-110150000D02*
X146624538Y-110150000D01*
X146624538Y-110150000D02*
X146472157Y-110183333D01*
X146472157Y-110183333D02*
X146395967Y-110216667D01*
X146395967Y-110216667D02*
X146319777Y-110283333D01*
X146319777Y-110283333D02*
X146281681Y-110383333D01*
X146281681Y-110383333D02*
X146281681Y-110450000D01*
X146281681Y-110450000D02*
X146319777Y-110550000D01*
X146319777Y-110550000D02*
X146357872Y-110583333D01*
X146357872Y-110583333D02*
X146624538Y-110583333D01*
X146624538Y-110583333D02*
X146624538Y-110450000D01*
X146281681Y-110883333D02*
X147081681Y-110883333D01*
X146281681Y-111216666D02*
X147081681Y-111216666D01*
X147081681Y-111216666D02*
X147081681Y-111483333D01*
X147081681Y-111483333D02*
X147043586Y-111550000D01*
X147043586Y-111550000D02*
X147005491Y-111583333D01*
X147005491Y-111583333D02*
X146929300Y-111616666D01*
X146929300Y-111616666D02*
X146815015Y-111616666D01*
X146815015Y-111616666D02*
X146738824Y-111583333D01*
X146738824Y-111583333D02*
X146700729Y-111550000D01*
X146700729Y-111550000D02*
X146662634Y-111483333D01*
X146662634Y-111483333D02*
X146662634Y-111216666D01*
X147081681Y-112050000D02*
X147081681Y-112183333D01*
X147081681Y-112183333D02*
X147043586Y-112250000D01*
X147043586Y-112250000D02*
X146967396Y-112316666D01*
X146967396Y-112316666D02*
X146815015Y-112350000D01*
X146815015Y-112350000D02*
X146548348Y-112350000D01*
X146548348Y-112350000D02*
X146395967Y-112316666D01*
X146395967Y-112316666D02*
X146319777Y-112250000D01*
X146319777Y-112250000D02*
X146281681Y-112183333D01*
X146281681Y-112183333D02*
X146281681Y-112050000D01*
X146281681Y-112050000D02*
X146319777Y-111983333D01*
X146319777Y-111983333D02*
X146395967Y-111916666D01*
X146395967Y-111916666D02*
X146548348Y-111883333D01*
X146548348Y-111883333D02*
X146815015Y-111883333D01*
X146815015Y-111883333D02*
X146967396Y-111916666D01*
X146967396Y-111916666D02*
X147043586Y-111983333D01*
X147043586Y-111983333D02*
X147081681Y-112050000D01*
X147081681Y-112549999D02*
X147081681Y-112949999D01*
X146281681Y-112749999D02*
X147081681Y-112749999D01*
X145717536Y-110000000D02*
X145755631Y-110033333D01*
X145755631Y-110033333D02*
X145793726Y-110100000D01*
X145793726Y-110100000D02*
X145793726Y-110266667D01*
X145793726Y-110266667D02*
X145755631Y-110333333D01*
X145755631Y-110333333D02*
X145717536Y-110366667D01*
X145717536Y-110366667D02*
X145641345Y-110400000D01*
X145641345Y-110400000D02*
X145565155Y-110400000D01*
X145565155Y-110400000D02*
X145450869Y-110366667D01*
X145450869Y-110366667D02*
X144993726Y-109966667D01*
X144993726Y-109966667D02*
X144993726Y-110400000D01*
X145069917Y-110700000D02*
X145031822Y-110733334D01*
X145031822Y-110733334D02*
X144993726Y-110700000D01*
X144993726Y-110700000D02*
X145031822Y-110666667D01*
X145031822Y-110666667D02*
X145069917Y-110700000D01*
X145069917Y-110700000D02*
X144993726Y-110700000D01*
X145793726Y-111366667D02*
X145793726Y-111033333D01*
X145793726Y-111033333D02*
X145412774Y-111000000D01*
X145412774Y-111000000D02*
X145450869Y-111033333D01*
X145450869Y-111033333D02*
X145488964Y-111100000D01*
X145488964Y-111100000D02*
X145488964Y-111266667D01*
X145488964Y-111266667D02*
X145450869Y-111333333D01*
X145450869Y-111333333D02*
X145412774Y-111366667D01*
X145412774Y-111366667D02*
X145336583Y-111400000D01*
X145336583Y-111400000D02*
X145146107Y-111400000D01*
X145146107Y-111400000D02*
X145069917Y-111366667D01*
X145069917Y-111366667D02*
X145031822Y-111333333D01*
X145031822Y-111333333D02*
X144993726Y-111266667D01*
X144993726Y-111266667D02*
X144993726Y-111100000D01*
X144993726Y-111100000D02*
X145031822Y-111033333D01*
X145031822Y-111033333D02*
X145069917Y-111000000D01*
X145793726Y-111600000D02*
X144993726Y-111833334D01*
X144993726Y-111833334D02*
X145793726Y-112066667D01*
X146399609Y-56390476D02*
X146437704Y-56314286D01*
X146437704Y-56314286D02*
X146437704Y-56200000D01*
X146437704Y-56200000D02*
X146399609Y-56085714D01*
X146399609Y-56085714D02*
X146323419Y-56009524D01*
X146323419Y-56009524D02*
X146247228Y-55971429D01*
X146247228Y-55971429D02*
X146094847Y-55933333D01*
X146094847Y-55933333D02*
X145980561Y-55933333D01*
X145980561Y-55933333D02*
X145828180Y-55971429D01*
X145828180Y-55971429D02*
X145751990Y-56009524D01*
X145751990Y-56009524D02*
X145675800Y-56085714D01*
X145675800Y-56085714D02*
X145637704Y-56200000D01*
X145637704Y-56200000D02*
X145637704Y-56276191D01*
X145637704Y-56276191D02*
X145675800Y-56390476D01*
X145675800Y-56390476D02*
X145713895Y-56428572D01*
X145713895Y-56428572D02*
X145980561Y-56428572D01*
X145980561Y-56428572D02*
X145980561Y-56276191D01*
X145637704Y-56771429D02*
X146437704Y-56771429D01*
X146437704Y-56771429D02*
X145637704Y-57228572D01*
X145637704Y-57228572D02*
X146437704Y-57228572D01*
X145637704Y-57609524D02*
X146437704Y-57609524D01*
X146437704Y-57609524D02*
X146437704Y-57800000D01*
X146437704Y-57800000D02*
X146399609Y-57914286D01*
X146399609Y-57914286D02*
X146323419Y-57990476D01*
X146323419Y-57990476D02*
X146247228Y-58028571D01*
X146247228Y-58028571D02*
X146094847Y-58066667D01*
X146094847Y-58066667D02*
X145980561Y-58066667D01*
X145980561Y-58066667D02*
X145828180Y-58028571D01*
X145828180Y-58028571D02*
X145751990Y-57990476D01*
X145751990Y-57990476D02*
X145675800Y-57914286D01*
X145675800Y-57914286D02*
X145637704Y-57800000D01*
X145637704Y-57800000D02*
X145637704Y-57609524D01*
X146510253Y-60509523D02*
X146510253Y-60890476D01*
X146281681Y-60433333D02*
X147081681Y-60700000D01*
X147081681Y-60700000D02*
X146281681Y-60966666D01*
X146281681Y-61233333D02*
X147081681Y-61233333D01*
X147081681Y-61233333D02*
X147081681Y-61423809D01*
X147081681Y-61423809D02*
X147043586Y-61538095D01*
X147043586Y-61538095D02*
X146967396Y-61614285D01*
X146967396Y-61614285D02*
X146891205Y-61652380D01*
X146891205Y-61652380D02*
X146738824Y-61690476D01*
X146738824Y-61690476D02*
X146624538Y-61690476D01*
X146624538Y-61690476D02*
X146472157Y-61652380D01*
X146472157Y-61652380D02*
X146395967Y-61614285D01*
X146395967Y-61614285D02*
X146319777Y-61538095D01*
X146319777Y-61538095D02*
X146281681Y-61423809D01*
X146281681Y-61423809D02*
X146281681Y-61233333D01*
X146357872Y-62490476D02*
X146319777Y-62452380D01*
X146319777Y-62452380D02*
X146281681Y-62338095D01*
X146281681Y-62338095D02*
X146281681Y-62261904D01*
X146281681Y-62261904D02*
X146319777Y-62147618D01*
X146319777Y-62147618D02*
X146395967Y-62071428D01*
X146395967Y-62071428D02*
X146472157Y-62033333D01*
X146472157Y-62033333D02*
X146624538Y-61995237D01*
X146624538Y-61995237D02*
X146738824Y-61995237D01*
X146738824Y-61995237D02*
X146891205Y-62033333D01*
X146891205Y-62033333D02*
X146967396Y-62071428D01*
X146967396Y-62071428D02*
X147043586Y-62147618D01*
X147043586Y-62147618D02*
X147081681Y-62261904D01*
X147081681Y-62261904D02*
X147081681Y-62338095D01*
X147081681Y-62338095D02*
X147043586Y-62452380D01*
X147043586Y-62452380D02*
X147005491Y-62490476D01*
X145793726Y-60719048D02*
X145793726Y-60871429D01*
X145793726Y-60871429D02*
X145755631Y-60947619D01*
X145755631Y-60947619D02*
X145679441Y-61023810D01*
X145679441Y-61023810D02*
X145527060Y-61061905D01*
X145527060Y-61061905D02*
X145260393Y-61061905D01*
X145260393Y-61061905D02*
X145108012Y-61023810D01*
X145108012Y-61023810D02*
X145031822Y-60947619D01*
X145031822Y-60947619D02*
X144993726Y-60871429D01*
X144993726Y-60871429D02*
X144993726Y-60719048D01*
X144993726Y-60719048D02*
X145031822Y-60642857D01*
X145031822Y-60642857D02*
X145108012Y-60566667D01*
X145108012Y-60566667D02*
X145260393Y-60528571D01*
X145260393Y-60528571D02*
X145527060Y-60528571D01*
X145527060Y-60528571D02*
X145679441Y-60566667D01*
X145679441Y-60566667D02*
X145755631Y-60642857D01*
X145755631Y-60642857D02*
X145793726Y-60719048D01*
X145793726Y-61290476D02*
X145793726Y-61747619D01*
X144993726Y-61519047D02*
X145793726Y-61519047D01*
X144993726Y-62471429D02*
X145374679Y-62204762D01*
X144993726Y-62014286D02*
X145793726Y-62014286D01*
X145793726Y-62014286D02*
X145793726Y-62319048D01*
X145793726Y-62319048D02*
X145755631Y-62395238D01*
X145755631Y-62395238D02*
X145717536Y-62433333D01*
X145717536Y-62433333D02*
X145641345Y-62471429D01*
X145641345Y-62471429D02*
X145527060Y-62471429D01*
X145527060Y-62471429D02*
X145450869Y-62433333D01*
X145450869Y-62433333D02*
X145412774Y-62395238D01*
X145412774Y-62395238D02*
X145374679Y-62319048D01*
X145374679Y-62319048D02*
X145374679Y-62014286D01*
X146510253Y-74009523D02*
X146510253Y-74390476D01*
X146281681Y-73933333D02*
X147081681Y-74200000D01*
X147081681Y-74200000D02*
X146281681Y-74466666D01*
X146281681Y-74733333D02*
X147081681Y-74733333D01*
X147081681Y-74733333D02*
X147081681Y-74923809D01*
X147081681Y-74923809D02*
X147043586Y-75038095D01*
X147043586Y-75038095D02*
X146967396Y-75114285D01*
X146967396Y-75114285D02*
X146891205Y-75152380D01*
X146891205Y-75152380D02*
X146738824Y-75190476D01*
X146738824Y-75190476D02*
X146624538Y-75190476D01*
X146624538Y-75190476D02*
X146472157Y-75152380D01*
X146472157Y-75152380D02*
X146395967Y-75114285D01*
X146395967Y-75114285D02*
X146319777Y-75038095D01*
X146319777Y-75038095D02*
X146281681Y-74923809D01*
X146281681Y-74923809D02*
X146281681Y-74733333D01*
X146357872Y-75990476D02*
X146319777Y-75952380D01*
X146319777Y-75952380D02*
X146281681Y-75838095D01*
X146281681Y-75838095D02*
X146281681Y-75761904D01*
X146281681Y-75761904D02*
X146319777Y-75647618D01*
X146319777Y-75647618D02*
X146395967Y-75571428D01*
X146395967Y-75571428D02*
X146472157Y-75533333D01*
X146472157Y-75533333D02*
X146624538Y-75495237D01*
X146624538Y-75495237D02*
X146738824Y-75495237D01*
X146738824Y-75495237D02*
X146891205Y-75533333D01*
X146891205Y-75533333D02*
X146967396Y-75571428D01*
X146967396Y-75571428D02*
X147043586Y-75647618D01*
X147043586Y-75647618D02*
X147081681Y-75761904D01*
X147081681Y-75761904D02*
X147081681Y-75838095D01*
X147081681Y-75838095D02*
X147043586Y-75952380D01*
X147043586Y-75952380D02*
X147005491Y-75990476D01*
X145069917Y-74523810D02*
X145031822Y-74485714D01*
X145031822Y-74485714D02*
X144993726Y-74371429D01*
X144993726Y-74371429D02*
X144993726Y-74295238D01*
X144993726Y-74295238D02*
X145031822Y-74180952D01*
X145031822Y-74180952D02*
X145108012Y-74104762D01*
X145108012Y-74104762D02*
X145184202Y-74066667D01*
X145184202Y-74066667D02*
X145336583Y-74028571D01*
X145336583Y-74028571D02*
X145450869Y-74028571D01*
X145450869Y-74028571D02*
X145603250Y-74066667D01*
X145603250Y-74066667D02*
X145679441Y-74104762D01*
X145679441Y-74104762D02*
X145755631Y-74180952D01*
X145755631Y-74180952D02*
X145793726Y-74295238D01*
X145793726Y-74295238D02*
X145793726Y-74371429D01*
X145793726Y-74371429D02*
X145755631Y-74485714D01*
X145755631Y-74485714D02*
X145717536Y-74523810D01*
X144993726Y-75247619D02*
X144993726Y-74866667D01*
X144993726Y-74866667D02*
X145793726Y-74866667D01*
X144993726Y-75514286D02*
X145793726Y-75514286D01*
X144993726Y-75971429D02*
X145450869Y-75628571D01*
X145793726Y-75971429D02*
X145336583Y-75514286D01*
X168911156Y-86120649D02*
X168644489Y-85739696D01*
X168454013Y-86120649D02*
X168454013Y-85320649D01*
X168454013Y-85320649D02*
X168758775Y-85320649D01*
X168758775Y-85320649D02*
X168834965Y-85358744D01*
X168834965Y-85358744D02*
X168873060Y-85396839D01*
X168873060Y-85396839D02*
X168911156Y-85473030D01*
X168911156Y-85473030D02*
X168911156Y-85587315D01*
X168911156Y-85587315D02*
X168873060Y-85663506D01*
X168873060Y-85663506D02*
X168834965Y-85701601D01*
X168834965Y-85701601D02*
X168758775Y-85739696D01*
X168758775Y-85739696D02*
X168454013Y-85739696D01*
X169673060Y-86120649D02*
X169215917Y-86120649D01*
X169444489Y-86120649D02*
X169444489Y-85320649D01*
X169444489Y-85320649D02*
X169368298Y-85434934D01*
X169368298Y-85434934D02*
X169292108Y-85511125D01*
X169292108Y-85511125D02*
X169215917Y-85549220D01*
X170168299Y-85320649D02*
X170244489Y-85320649D01*
X170244489Y-85320649D02*
X170320680Y-85358744D01*
X170320680Y-85358744D02*
X170358775Y-85396839D01*
X170358775Y-85396839D02*
X170396870Y-85473030D01*
X170396870Y-85473030D02*
X170434965Y-85625411D01*
X170434965Y-85625411D02*
X170434965Y-85815887D01*
X170434965Y-85815887D02*
X170396870Y-85968268D01*
X170396870Y-85968268D02*
X170358775Y-86044458D01*
X170358775Y-86044458D02*
X170320680Y-86082554D01*
X170320680Y-86082554D02*
X170244489Y-86120649D01*
X170244489Y-86120649D02*
X170168299Y-86120649D01*
X170168299Y-86120649D02*
X170092108Y-86082554D01*
X170092108Y-86082554D02*
X170054013Y-86044458D01*
X170054013Y-86044458D02*
X170015918Y-85968268D01*
X170015918Y-85968268D02*
X169977822Y-85815887D01*
X169977822Y-85815887D02*
X169977822Y-85625411D01*
X169977822Y-85625411D02*
X170015918Y-85473030D01*
X170015918Y-85473030D02*
X170054013Y-85396839D01*
X170054013Y-85396839D02*
X170092108Y-85358744D01*
X170092108Y-85358744D02*
X170168299Y-85320649D01*
X168912393Y-87710072D02*
X168645726Y-87329119D01*
X168455250Y-87710072D02*
X168455250Y-86910072D01*
X168455250Y-86910072D02*
X168760012Y-86910072D01*
X168760012Y-86910072D02*
X168836202Y-86948167D01*
X168836202Y-86948167D02*
X168874297Y-86986262D01*
X168874297Y-86986262D02*
X168912393Y-87062453D01*
X168912393Y-87062453D02*
X168912393Y-87176738D01*
X168912393Y-87176738D02*
X168874297Y-87252929D01*
X168874297Y-87252929D02*
X168836202Y-87291024D01*
X168836202Y-87291024D02*
X168760012Y-87329119D01*
X168760012Y-87329119D02*
X168455250Y-87329119D01*
X169674297Y-87710072D02*
X169217154Y-87710072D01*
X169445726Y-87710072D02*
X169445726Y-86910072D01*
X169445726Y-86910072D02*
X169369535Y-87024357D01*
X169369535Y-87024357D02*
X169293345Y-87100548D01*
X169293345Y-87100548D02*
X169217154Y-87138643D01*
X170436202Y-87710072D02*
X169979059Y-87710072D01*
X170207631Y-87710072D02*
X170207631Y-86910072D01*
X170207631Y-86910072D02*
X170131440Y-87024357D01*
X170131440Y-87024357D02*
X170055250Y-87100548D01*
X170055250Y-87100548D02*
X169979059Y-87138643D01*
X158206458Y-55366616D02*
X158168363Y-55328520D01*
X158168363Y-55328520D02*
X158130267Y-55214235D01*
X158130267Y-55214235D02*
X158130267Y-55138044D01*
X158130267Y-55138044D02*
X158168363Y-55023758D01*
X158168363Y-55023758D02*
X158244553Y-54947568D01*
X158244553Y-54947568D02*
X158320743Y-54909473D01*
X158320743Y-54909473D02*
X158473124Y-54871377D01*
X158473124Y-54871377D02*
X158587410Y-54871377D01*
X158587410Y-54871377D02*
X158739791Y-54909473D01*
X158739791Y-54909473D02*
X158815982Y-54947568D01*
X158815982Y-54947568D02*
X158892172Y-55023758D01*
X158892172Y-55023758D02*
X158930267Y-55138044D01*
X158930267Y-55138044D02*
X158930267Y-55214235D01*
X158930267Y-55214235D02*
X158892172Y-55328520D01*
X158892172Y-55328520D02*
X158854077Y-55366616D01*
X158130267Y-56128520D02*
X158130267Y-55671377D01*
X158130267Y-55899949D02*
X158930267Y-55899949D01*
X158930267Y-55899949D02*
X158815982Y-55823758D01*
X158815982Y-55823758D02*
X158739791Y-55747568D01*
X158739791Y-55747568D02*
X158701696Y-55671377D01*
X158587410Y-56585663D02*
X158625505Y-56509473D01*
X158625505Y-56509473D02*
X158663601Y-56471378D01*
X158663601Y-56471378D02*
X158739791Y-56433282D01*
X158739791Y-56433282D02*
X158777886Y-56433282D01*
X158777886Y-56433282D02*
X158854077Y-56471378D01*
X158854077Y-56471378D02*
X158892172Y-56509473D01*
X158892172Y-56509473D02*
X158930267Y-56585663D01*
X158930267Y-56585663D02*
X158930267Y-56738044D01*
X158930267Y-56738044D02*
X158892172Y-56814235D01*
X158892172Y-56814235D02*
X158854077Y-56852330D01*
X158854077Y-56852330D02*
X158777886Y-56890425D01*
X158777886Y-56890425D02*
X158739791Y-56890425D01*
X158739791Y-56890425D02*
X158663601Y-56852330D01*
X158663601Y-56852330D02*
X158625505Y-56814235D01*
X158625505Y-56814235D02*
X158587410Y-56738044D01*
X158587410Y-56738044D02*
X158587410Y-56585663D01*
X158587410Y-56585663D02*
X158549315Y-56509473D01*
X158549315Y-56509473D02*
X158511220Y-56471378D01*
X158511220Y-56471378D02*
X158435029Y-56433282D01*
X158435029Y-56433282D02*
X158282648Y-56433282D01*
X158282648Y-56433282D02*
X158206458Y-56471378D01*
X158206458Y-56471378D02*
X158168363Y-56509473D01*
X158168363Y-56509473D02*
X158130267Y-56585663D01*
X158130267Y-56585663D02*
X158130267Y-56738044D01*
X158130267Y-56738044D02*
X158168363Y-56814235D01*
X158168363Y-56814235D02*
X158206458Y-56852330D01*
X158206458Y-56852330D02*
X158282648Y-56890425D01*
X158282648Y-56890425D02*
X158435029Y-56890425D01*
X158435029Y-56890425D02*
X158511220Y-56852330D01*
X158511220Y-56852330D02*
X158549315Y-56814235D01*
X158549315Y-56814235D02*
X158587410Y-56738044D01*
X166463895Y-72616667D02*
X166425800Y-72578571D01*
X166425800Y-72578571D02*
X166387704Y-72464286D01*
X166387704Y-72464286D02*
X166387704Y-72388095D01*
X166387704Y-72388095D02*
X166425800Y-72273809D01*
X166425800Y-72273809D02*
X166501990Y-72197619D01*
X166501990Y-72197619D02*
X166578180Y-72159524D01*
X166578180Y-72159524D02*
X166730561Y-72121428D01*
X166730561Y-72121428D02*
X166844847Y-72121428D01*
X166844847Y-72121428D02*
X166997228Y-72159524D01*
X166997228Y-72159524D02*
X167073419Y-72197619D01*
X167073419Y-72197619D02*
X167149609Y-72273809D01*
X167149609Y-72273809D02*
X167187704Y-72388095D01*
X167187704Y-72388095D02*
X167187704Y-72464286D01*
X167187704Y-72464286D02*
X167149609Y-72578571D01*
X167149609Y-72578571D02*
X167111514Y-72616667D01*
X167111514Y-72921428D02*
X167149609Y-72959524D01*
X167149609Y-72959524D02*
X167187704Y-73035714D01*
X167187704Y-73035714D02*
X167187704Y-73226190D01*
X167187704Y-73226190D02*
X167149609Y-73302381D01*
X167149609Y-73302381D02*
X167111514Y-73340476D01*
X167111514Y-73340476D02*
X167035323Y-73378571D01*
X167035323Y-73378571D02*
X166959133Y-73378571D01*
X166959133Y-73378571D02*
X166844847Y-73340476D01*
X166844847Y-73340476D02*
X166387704Y-72883333D01*
X166387704Y-72883333D02*
X166387704Y-73378571D01*
X166421628Y-93895980D02*
X166383533Y-93857884D01*
X166383533Y-93857884D02*
X166345437Y-93743599D01*
X166345437Y-93743599D02*
X166345437Y-93667408D01*
X166345437Y-93667408D02*
X166383533Y-93553122D01*
X166383533Y-93553122D02*
X166459723Y-93476932D01*
X166459723Y-93476932D02*
X166535913Y-93438837D01*
X166535913Y-93438837D02*
X166688294Y-93400741D01*
X166688294Y-93400741D02*
X166802580Y-93400741D01*
X166802580Y-93400741D02*
X166954961Y-93438837D01*
X166954961Y-93438837D02*
X167031152Y-93476932D01*
X167031152Y-93476932D02*
X167107342Y-93553122D01*
X167107342Y-93553122D02*
X167145437Y-93667408D01*
X167145437Y-93667408D02*
X167145437Y-93743599D01*
X167145437Y-93743599D02*
X167107342Y-93857884D01*
X167107342Y-93857884D02*
X167069247Y-93895980D01*
X167145437Y-94619789D02*
X167145437Y-94238837D01*
X167145437Y-94238837D02*
X166764485Y-94200741D01*
X166764485Y-94200741D02*
X166802580Y-94238837D01*
X166802580Y-94238837D02*
X166840675Y-94315027D01*
X166840675Y-94315027D02*
X166840675Y-94505503D01*
X166840675Y-94505503D02*
X166802580Y-94581694D01*
X166802580Y-94581694D02*
X166764485Y-94619789D01*
X166764485Y-94619789D02*
X166688294Y-94657884D01*
X166688294Y-94657884D02*
X166497818Y-94657884D01*
X166497818Y-94657884D02*
X166421628Y-94619789D01*
X166421628Y-94619789D02*
X166383533Y-94581694D01*
X166383533Y-94581694D02*
X166345437Y-94505503D01*
X166345437Y-94505503D02*
X166345437Y-94315027D01*
X166345437Y-94315027D02*
X166383533Y-94238837D01*
X166383533Y-94238837D02*
X166421628Y-94200741D01*
X160007819Y-79066473D02*
X159969724Y-79028377D01*
X159969724Y-79028377D02*
X159931628Y-78914092D01*
X159931628Y-78914092D02*
X159931628Y-78837901D01*
X159931628Y-78837901D02*
X159969724Y-78723615D01*
X159969724Y-78723615D02*
X160045914Y-78647425D01*
X160045914Y-78647425D02*
X160122104Y-78609330D01*
X160122104Y-78609330D02*
X160274485Y-78571234D01*
X160274485Y-78571234D02*
X160388771Y-78571234D01*
X160388771Y-78571234D02*
X160541152Y-78609330D01*
X160541152Y-78609330D02*
X160617343Y-78647425D01*
X160617343Y-78647425D02*
X160693533Y-78723615D01*
X160693533Y-78723615D02*
X160731628Y-78837901D01*
X160731628Y-78837901D02*
X160731628Y-78914092D01*
X160731628Y-78914092D02*
X160693533Y-79028377D01*
X160693533Y-79028377D02*
X160655438Y-79066473D01*
X159931628Y-79828377D02*
X159931628Y-79371234D01*
X159931628Y-79599806D02*
X160731628Y-79599806D01*
X160731628Y-79599806D02*
X160617343Y-79523615D01*
X160617343Y-79523615D02*
X160541152Y-79447425D01*
X160541152Y-79447425D02*
X160503057Y-79371234D01*
X159931628Y-80209330D02*
X159931628Y-80361711D01*
X159931628Y-80361711D02*
X159969724Y-80437901D01*
X159969724Y-80437901D02*
X160007819Y-80475997D01*
X160007819Y-80475997D02*
X160122104Y-80552187D01*
X160122104Y-80552187D02*
X160274485Y-80590282D01*
X160274485Y-80590282D02*
X160579247Y-80590282D01*
X160579247Y-80590282D02*
X160655438Y-80552187D01*
X160655438Y-80552187D02*
X160693533Y-80514092D01*
X160693533Y-80514092D02*
X160731628Y-80437901D01*
X160731628Y-80437901D02*
X160731628Y-80285520D01*
X160731628Y-80285520D02*
X160693533Y-80209330D01*
X160693533Y-80209330D02*
X160655438Y-80171235D01*
X160655438Y-80171235D02*
X160579247Y-80133139D01*
X160579247Y-80133139D02*
X160388771Y-80133139D01*
X160388771Y-80133139D02*
X160312581Y-80171235D01*
X160312581Y-80171235D02*
X160274485Y-80209330D01*
X160274485Y-80209330D02*
X160236390Y-80285520D01*
X160236390Y-80285520D02*
X160236390Y-80437901D01*
X160236390Y-80437901D02*
X160274485Y-80514092D01*
X160274485Y-80514092D02*
X160312581Y-80552187D01*
X160312581Y-80552187D02*
X160388771Y-80590282D01*
X152137704Y-90432630D02*
X152518657Y-90165963D01*
X152137704Y-89975487D02*
X152937704Y-89975487D01*
X152937704Y-89975487D02*
X152937704Y-90280249D01*
X152937704Y-90280249D02*
X152899609Y-90356439D01*
X152899609Y-90356439D02*
X152861514Y-90394534D01*
X152861514Y-90394534D02*
X152785323Y-90432630D01*
X152785323Y-90432630D02*
X152671038Y-90432630D01*
X152671038Y-90432630D02*
X152594847Y-90394534D01*
X152594847Y-90394534D02*
X152556752Y-90356439D01*
X152556752Y-90356439D02*
X152518657Y-90280249D01*
X152518657Y-90280249D02*
X152518657Y-89975487D01*
X152937704Y-90699296D02*
X152937704Y-91194534D01*
X152937704Y-91194534D02*
X152632942Y-90927868D01*
X152632942Y-90927868D02*
X152632942Y-91042153D01*
X152632942Y-91042153D02*
X152594847Y-91118344D01*
X152594847Y-91118344D02*
X152556752Y-91156439D01*
X152556752Y-91156439D02*
X152480561Y-91194534D01*
X152480561Y-91194534D02*
X152290085Y-91194534D01*
X152290085Y-91194534D02*
X152213895Y-91156439D01*
X152213895Y-91156439D02*
X152175800Y-91118344D01*
X152175800Y-91118344D02*
X152137704Y-91042153D01*
X152137704Y-91042153D02*
X152137704Y-90813582D01*
X152137704Y-90813582D02*
X152175800Y-90737391D01*
X152175800Y-90737391D02*
X152213895Y-90699296D01*
X152213895Y-93506972D02*
X152175800Y-93468876D01*
X152175800Y-93468876D02*
X152137704Y-93354591D01*
X152137704Y-93354591D02*
X152137704Y-93278400D01*
X152137704Y-93278400D02*
X152175800Y-93164114D01*
X152175800Y-93164114D02*
X152251990Y-93087924D01*
X152251990Y-93087924D02*
X152328180Y-93049829D01*
X152328180Y-93049829D02*
X152480561Y-93011733D01*
X152480561Y-93011733D02*
X152594847Y-93011733D01*
X152594847Y-93011733D02*
X152747228Y-93049829D01*
X152747228Y-93049829D02*
X152823419Y-93087924D01*
X152823419Y-93087924D02*
X152899609Y-93164114D01*
X152899609Y-93164114D02*
X152937704Y-93278400D01*
X152937704Y-93278400D02*
X152937704Y-93354591D01*
X152937704Y-93354591D02*
X152899609Y-93468876D01*
X152899609Y-93468876D02*
X152861514Y-93506972D01*
X152671038Y-94192686D02*
X152137704Y-94192686D01*
X152975800Y-94002210D02*
X152404371Y-93811733D01*
X152404371Y-93811733D02*
X152404371Y-94306972D01*
X161713895Y-67985714D02*
X161675800Y-67947618D01*
X161675800Y-67947618D02*
X161637704Y-67833333D01*
X161637704Y-67833333D02*
X161637704Y-67757142D01*
X161637704Y-67757142D02*
X161675800Y-67642856D01*
X161675800Y-67642856D02*
X161751990Y-67566666D01*
X161751990Y-67566666D02*
X161828180Y-67528571D01*
X161828180Y-67528571D02*
X161980561Y-67490475D01*
X161980561Y-67490475D02*
X162094847Y-67490475D01*
X162094847Y-67490475D02*
X162247228Y-67528571D01*
X162247228Y-67528571D02*
X162323419Y-67566666D01*
X162323419Y-67566666D02*
X162399609Y-67642856D01*
X162399609Y-67642856D02*
X162437704Y-67757142D01*
X162437704Y-67757142D02*
X162437704Y-67833333D01*
X162437704Y-67833333D02*
X162399609Y-67947618D01*
X162399609Y-67947618D02*
X162361514Y-67985714D01*
X162361514Y-68290475D02*
X162399609Y-68328571D01*
X162399609Y-68328571D02*
X162437704Y-68404761D01*
X162437704Y-68404761D02*
X162437704Y-68595237D01*
X162437704Y-68595237D02*
X162399609Y-68671428D01*
X162399609Y-68671428D02*
X162361514Y-68709523D01*
X162361514Y-68709523D02*
X162285323Y-68747618D01*
X162285323Y-68747618D02*
X162209133Y-68747618D01*
X162209133Y-68747618D02*
X162094847Y-68709523D01*
X162094847Y-68709523D02*
X161637704Y-68252380D01*
X161637704Y-68252380D02*
X161637704Y-68747618D01*
X162437704Y-69242857D02*
X162437704Y-69319047D01*
X162437704Y-69319047D02*
X162399609Y-69395238D01*
X162399609Y-69395238D02*
X162361514Y-69433333D01*
X162361514Y-69433333D02*
X162285323Y-69471428D01*
X162285323Y-69471428D02*
X162132942Y-69509523D01*
X162132942Y-69509523D02*
X161942466Y-69509523D01*
X161942466Y-69509523D02*
X161790085Y-69471428D01*
X161790085Y-69471428D02*
X161713895Y-69433333D01*
X161713895Y-69433333D02*
X161675800Y-69395238D01*
X161675800Y-69395238D02*
X161637704Y-69319047D01*
X161637704Y-69319047D02*
X161637704Y-69242857D01*
X161637704Y-69242857D02*
X161675800Y-69166666D01*
X161675800Y-69166666D02*
X161713895Y-69128571D01*
X161713895Y-69128571D02*
X161790085Y-69090476D01*
X161790085Y-69090476D02*
X161942466Y-69052380D01*
X161942466Y-69052380D02*
X162132942Y-69052380D01*
X162132942Y-69052380D02*
X162285323Y-69090476D01*
X162285323Y-69090476D02*
X162361514Y-69128571D01*
X162361514Y-69128571D02*
X162399609Y-69166666D01*
X162399609Y-69166666D02*
X162437704Y-69242857D01*
X159637704Y-99616667D02*
X160018657Y-99350000D01*
X159637704Y-99159524D02*
X160437704Y-99159524D01*
X160437704Y-99159524D02*
X160437704Y-99464286D01*
X160437704Y-99464286D02*
X160399609Y-99540476D01*
X160399609Y-99540476D02*
X160361514Y-99578571D01*
X160361514Y-99578571D02*
X160285323Y-99616667D01*
X160285323Y-99616667D02*
X160171038Y-99616667D01*
X160171038Y-99616667D02*
X160094847Y-99578571D01*
X160094847Y-99578571D02*
X160056752Y-99540476D01*
X160056752Y-99540476D02*
X160018657Y-99464286D01*
X160018657Y-99464286D02*
X160018657Y-99159524D01*
X159637704Y-100378571D02*
X159637704Y-99921428D01*
X159637704Y-100150000D02*
X160437704Y-100150000D01*
X160437704Y-100150000D02*
X160323419Y-100073809D01*
X160323419Y-100073809D02*
X160247228Y-99997619D01*
X160247228Y-99997619D02*
X160209133Y-99921428D01*
X164386613Y-90336104D02*
X164386613Y-90983723D01*
X164386613Y-90983723D02*
X164424708Y-91059913D01*
X164424708Y-91059913D02*
X164462803Y-91098009D01*
X164462803Y-91098009D02*
X164538994Y-91136104D01*
X164538994Y-91136104D02*
X164691375Y-91136104D01*
X164691375Y-91136104D02*
X164767565Y-91098009D01*
X164767565Y-91098009D02*
X164805660Y-91059913D01*
X164805660Y-91059913D02*
X164843756Y-90983723D01*
X164843756Y-90983723D02*
X164843756Y-90336104D01*
X165148517Y-90336104D02*
X165643755Y-90336104D01*
X165643755Y-90336104D02*
X165377089Y-90640866D01*
X165377089Y-90640866D02*
X165491374Y-90640866D01*
X165491374Y-90640866D02*
X165567565Y-90678961D01*
X165567565Y-90678961D02*
X165605660Y-90717056D01*
X165605660Y-90717056D02*
X165643755Y-90793247D01*
X165643755Y-90793247D02*
X165643755Y-90983723D01*
X165643755Y-90983723D02*
X165605660Y-91059913D01*
X165605660Y-91059913D02*
X165567565Y-91098009D01*
X165567565Y-91098009D02*
X165491374Y-91136104D01*
X165491374Y-91136104D02*
X165262803Y-91136104D01*
X165262803Y-91136104D02*
X165186612Y-91098009D01*
X165186612Y-91098009D02*
X165148517Y-91059913D01*
X154637704Y-94301311D02*
X155018657Y-94034644D01*
X154637704Y-93844168D02*
X155437704Y-93844168D01*
X155437704Y-93844168D02*
X155437704Y-94148930D01*
X155437704Y-94148930D02*
X155399609Y-94225120D01*
X155399609Y-94225120D02*
X155361514Y-94263215D01*
X155361514Y-94263215D02*
X155285323Y-94301311D01*
X155285323Y-94301311D02*
X155171038Y-94301311D01*
X155171038Y-94301311D02*
X155094847Y-94263215D01*
X155094847Y-94263215D02*
X155056752Y-94225120D01*
X155056752Y-94225120D02*
X155018657Y-94148930D01*
X155018657Y-94148930D02*
X155018657Y-93844168D01*
X154637704Y-95063215D02*
X154637704Y-94606072D01*
X154637704Y-94834644D02*
X155437704Y-94834644D01*
X155437704Y-94834644D02*
X155323419Y-94758453D01*
X155323419Y-94758453D02*
X155247228Y-94682263D01*
X155247228Y-94682263D02*
X155209133Y-94606072D01*
X155361514Y-95367977D02*
X155399609Y-95406073D01*
X155399609Y-95406073D02*
X155437704Y-95482263D01*
X155437704Y-95482263D02*
X155437704Y-95672739D01*
X155437704Y-95672739D02*
X155399609Y-95748930D01*
X155399609Y-95748930D02*
X155361514Y-95787025D01*
X155361514Y-95787025D02*
X155285323Y-95825120D01*
X155285323Y-95825120D02*
X155209133Y-95825120D01*
X155209133Y-95825120D02*
X155094847Y-95787025D01*
X155094847Y-95787025D02*
X154637704Y-95329882D01*
X154637704Y-95329882D02*
X154637704Y-95825120D01*
X158637704Y-67485714D02*
X159018657Y-67219047D01*
X158637704Y-67028571D02*
X159437704Y-67028571D01*
X159437704Y-67028571D02*
X159437704Y-67333333D01*
X159437704Y-67333333D02*
X159399609Y-67409523D01*
X159399609Y-67409523D02*
X159361514Y-67447618D01*
X159361514Y-67447618D02*
X159285323Y-67485714D01*
X159285323Y-67485714D02*
X159171038Y-67485714D01*
X159171038Y-67485714D02*
X159094847Y-67447618D01*
X159094847Y-67447618D02*
X159056752Y-67409523D01*
X159056752Y-67409523D02*
X159018657Y-67333333D01*
X159018657Y-67333333D02*
X159018657Y-67028571D01*
X158637704Y-68247618D02*
X158637704Y-67790475D01*
X158637704Y-68019047D02*
X159437704Y-68019047D01*
X159437704Y-68019047D02*
X159323419Y-67942856D01*
X159323419Y-67942856D02*
X159247228Y-67866666D01*
X159247228Y-67866666D02*
X159209133Y-67790475D01*
X158637704Y-68628571D02*
X158637704Y-68780952D01*
X158637704Y-68780952D02*
X158675800Y-68857142D01*
X158675800Y-68857142D02*
X158713895Y-68895238D01*
X158713895Y-68895238D02*
X158828180Y-68971428D01*
X158828180Y-68971428D02*
X158980561Y-69009523D01*
X158980561Y-69009523D02*
X159285323Y-69009523D01*
X159285323Y-69009523D02*
X159361514Y-68971428D01*
X159361514Y-68971428D02*
X159399609Y-68933333D01*
X159399609Y-68933333D02*
X159437704Y-68857142D01*
X159437704Y-68857142D02*
X159437704Y-68704761D01*
X159437704Y-68704761D02*
X159399609Y-68628571D01*
X159399609Y-68628571D02*
X159361514Y-68590476D01*
X159361514Y-68590476D02*
X159285323Y-68552380D01*
X159285323Y-68552380D02*
X159094847Y-68552380D01*
X159094847Y-68552380D02*
X159018657Y-68590476D01*
X159018657Y-68590476D02*
X158980561Y-68628571D01*
X158980561Y-68628571D02*
X158942466Y-68704761D01*
X158942466Y-68704761D02*
X158942466Y-68857142D01*
X158942466Y-68857142D02*
X158980561Y-68933333D01*
X158980561Y-68933333D02*
X159018657Y-68971428D01*
X159018657Y-68971428D02*
X159094847Y-69009523D01*
X169713895Y-96081231D02*
X169675800Y-96043135D01*
X169675800Y-96043135D02*
X169637704Y-95928850D01*
X169637704Y-95928850D02*
X169637704Y-95852659D01*
X169637704Y-95852659D02*
X169675800Y-95738373D01*
X169675800Y-95738373D02*
X169751990Y-95662183D01*
X169751990Y-95662183D02*
X169828180Y-95624088D01*
X169828180Y-95624088D02*
X169980561Y-95585992D01*
X169980561Y-95585992D02*
X170094847Y-95585992D01*
X170094847Y-95585992D02*
X170247228Y-95624088D01*
X170247228Y-95624088D02*
X170323419Y-95662183D01*
X170323419Y-95662183D02*
X170399609Y-95738373D01*
X170399609Y-95738373D02*
X170437704Y-95852659D01*
X170437704Y-95852659D02*
X170437704Y-95928850D01*
X170437704Y-95928850D02*
X170399609Y-96043135D01*
X170399609Y-96043135D02*
X170361514Y-96081231D01*
X170437704Y-96766945D02*
X170437704Y-96614564D01*
X170437704Y-96614564D02*
X170399609Y-96538373D01*
X170399609Y-96538373D02*
X170361514Y-96500278D01*
X170361514Y-96500278D02*
X170247228Y-96424088D01*
X170247228Y-96424088D02*
X170094847Y-96385992D01*
X170094847Y-96385992D02*
X169790085Y-96385992D01*
X169790085Y-96385992D02*
X169713895Y-96424088D01*
X169713895Y-96424088D02*
X169675800Y-96462183D01*
X169675800Y-96462183D02*
X169637704Y-96538373D01*
X169637704Y-96538373D02*
X169637704Y-96690754D01*
X169637704Y-96690754D02*
X169675800Y-96766945D01*
X169675800Y-96766945D02*
X169713895Y-96805040D01*
X169713895Y-96805040D02*
X169790085Y-96843135D01*
X169790085Y-96843135D02*
X169980561Y-96843135D01*
X169980561Y-96843135D02*
X170056752Y-96805040D01*
X170056752Y-96805040D02*
X170094847Y-96766945D01*
X170094847Y-96766945D02*
X170132942Y-96690754D01*
X170132942Y-96690754D02*
X170132942Y-96538373D01*
X170132942Y-96538373D02*
X170094847Y-96462183D01*
X170094847Y-96462183D02*
X170056752Y-96424088D01*
X170056752Y-96424088D02*
X169980561Y-96385992D01*
X154213895Y-63735714D02*
X154175800Y-63697618D01*
X154175800Y-63697618D02*
X154137704Y-63583333D01*
X154137704Y-63583333D02*
X154137704Y-63507142D01*
X154137704Y-63507142D02*
X154175800Y-63392856D01*
X154175800Y-63392856D02*
X154251990Y-63316666D01*
X154251990Y-63316666D02*
X154328180Y-63278571D01*
X154328180Y-63278571D02*
X154480561Y-63240475D01*
X154480561Y-63240475D02*
X154594847Y-63240475D01*
X154594847Y-63240475D02*
X154747228Y-63278571D01*
X154747228Y-63278571D02*
X154823419Y-63316666D01*
X154823419Y-63316666D02*
X154899609Y-63392856D01*
X154899609Y-63392856D02*
X154937704Y-63507142D01*
X154937704Y-63507142D02*
X154937704Y-63583333D01*
X154937704Y-63583333D02*
X154899609Y-63697618D01*
X154899609Y-63697618D02*
X154861514Y-63735714D01*
X154137704Y-64497618D02*
X154137704Y-64040475D01*
X154137704Y-64269047D02*
X154937704Y-64269047D01*
X154937704Y-64269047D02*
X154823419Y-64192856D01*
X154823419Y-64192856D02*
X154747228Y-64116666D01*
X154747228Y-64116666D02*
X154709133Y-64040475D01*
X154671038Y-65183333D02*
X154137704Y-65183333D01*
X154975800Y-64992857D02*
X154404371Y-64802380D01*
X154404371Y-64802380D02*
X154404371Y-65297619D01*
X169890476Y-79562295D02*
X169890476Y-80209914D01*
X169890476Y-80209914D02*
X169928571Y-80286104D01*
X169928571Y-80286104D02*
X169966666Y-80324200D01*
X169966666Y-80324200D02*
X170042857Y-80362295D01*
X170042857Y-80362295D02*
X170195238Y-80362295D01*
X170195238Y-80362295D02*
X170271428Y-80324200D01*
X170271428Y-80324200D02*
X170309523Y-80286104D01*
X170309523Y-80286104D02*
X170347619Y-80209914D01*
X170347619Y-80209914D02*
X170347619Y-79562295D01*
X170690475Y-79638485D02*
X170728571Y-79600390D01*
X170728571Y-79600390D02*
X170804761Y-79562295D01*
X170804761Y-79562295D02*
X170995237Y-79562295D01*
X170995237Y-79562295D02*
X171071428Y-79600390D01*
X171071428Y-79600390D02*
X171109523Y-79638485D01*
X171109523Y-79638485D02*
X171147618Y-79714676D01*
X171147618Y-79714676D02*
X171147618Y-79790866D01*
X171147618Y-79790866D02*
X171109523Y-79905152D01*
X171109523Y-79905152D02*
X170652380Y-80362295D01*
X170652380Y-80362295D02*
X171147618Y-80362295D01*
X159102517Y-90682295D02*
X158835850Y-90301342D01*
X158645374Y-90682295D02*
X158645374Y-89882295D01*
X158645374Y-89882295D02*
X158950136Y-89882295D01*
X158950136Y-89882295D02*
X159026326Y-89920390D01*
X159026326Y-89920390D02*
X159064421Y-89958485D01*
X159064421Y-89958485D02*
X159102517Y-90034676D01*
X159102517Y-90034676D02*
X159102517Y-90148961D01*
X159102517Y-90148961D02*
X159064421Y-90225152D01*
X159064421Y-90225152D02*
X159026326Y-90263247D01*
X159026326Y-90263247D02*
X158950136Y-90301342D01*
X158950136Y-90301342D02*
X158645374Y-90301342D01*
X159407278Y-89958485D02*
X159445374Y-89920390D01*
X159445374Y-89920390D02*
X159521564Y-89882295D01*
X159521564Y-89882295D02*
X159712040Y-89882295D01*
X159712040Y-89882295D02*
X159788231Y-89920390D01*
X159788231Y-89920390D02*
X159826326Y-89958485D01*
X159826326Y-89958485D02*
X159864421Y-90034676D01*
X159864421Y-90034676D02*
X159864421Y-90110866D01*
X159864421Y-90110866D02*
X159826326Y-90225152D01*
X159826326Y-90225152D02*
X159369183Y-90682295D01*
X159369183Y-90682295D02*
X159864421Y-90682295D01*
X154637704Y-91235714D02*
X155018657Y-90969047D01*
X154637704Y-90778571D02*
X155437704Y-90778571D01*
X155437704Y-90778571D02*
X155437704Y-91083333D01*
X155437704Y-91083333D02*
X155399609Y-91159523D01*
X155399609Y-91159523D02*
X155361514Y-91197618D01*
X155361514Y-91197618D02*
X155285323Y-91235714D01*
X155285323Y-91235714D02*
X155171038Y-91235714D01*
X155171038Y-91235714D02*
X155094847Y-91197618D01*
X155094847Y-91197618D02*
X155056752Y-91159523D01*
X155056752Y-91159523D02*
X155018657Y-91083333D01*
X155018657Y-91083333D02*
X155018657Y-90778571D01*
X154637704Y-91997618D02*
X154637704Y-91540475D01*
X154637704Y-91769047D02*
X155437704Y-91769047D01*
X155437704Y-91769047D02*
X155323419Y-91692856D01*
X155323419Y-91692856D02*
X155247228Y-91616666D01*
X155247228Y-91616666D02*
X155209133Y-91540475D01*
X155437704Y-92264285D02*
X155437704Y-92759523D01*
X155437704Y-92759523D02*
X155132942Y-92492857D01*
X155132942Y-92492857D02*
X155132942Y-92607142D01*
X155132942Y-92607142D02*
X155094847Y-92683333D01*
X155094847Y-92683333D02*
X155056752Y-92721428D01*
X155056752Y-92721428D02*
X154980561Y-92759523D01*
X154980561Y-92759523D02*
X154790085Y-92759523D01*
X154790085Y-92759523D02*
X154713895Y-92721428D01*
X154713895Y-92721428D02*
X154675800Y-92683333D01*
X154675800Y-92683333D02*
X154637704Y-92607142D01*
X154637704Y-92607142D02*
X154637704Y-92378571D01*
X154637704Y-92378571D02*
X154675800Y-92302380D01*
X154675800Y-92302380D02*
X154713895Y-92264285D01*
D12*
X161436404Y-83640476D02*
X160788785Y-83640476D01*
X160788785Y-83640476D02*
X160712595Y-83678571D01*
X160712595Y-83678571D02*
X160674500Y-83716666D01*
X160674500Y-83716666D02*
X160636404Y-83792857D01*
X160636404Y-83792857D02*
X160636404Y-83945238D01*
X160636404Y-83945238D02*
X160674500Y-84021428D01*
X160674500Y-84021428D02*
X160712595Y-84059523D01*
X160712595Y-84059523D02*
X160788785Y-84097619D01*
X160788785Y-84097619D02*
X161436404Y-84097619D01*
X160636404Y-84897618D02*
X160636404Y-84440475D01*
X160636404Y-84669047D02*
X161436404Y-84669047D01*
X161436404Y-84669047D02*
X161322119Y-84592856D01*
X161322119Y-84592856D02*
X161245928Y-84516666D01*
X161245928Y-84516666D02*
X161207833Y-84440475D01*
D11*
X164887704Y-94659524D02*
X165687704Y-94659524D01*
X165687704Y-94659524D02*
X165687704Y-94850000D01*
X165687704Y-94850000D02*
X165649609Y-94964286D01*
X165649609Y-94964286D02*
X165573419Y-95040476D01*
X165573419Y-95040476D02*
X165497228Y-95078571D01*
X165497228Y-95078571D02*
X165344847Y-95116667D01*
X165344847Y-95116667D02*
X165230561Y-95116667D01*
X165230561Y-95116667D02*
X165078180Y-95078571D01*
X165078180Y-95078571D02*
X165001990Y-95040476D01*
X165001990Y-95040476D02*
X164925800Y-94964286D01*
X164925800Y-94964286D02*
X164887704Y-94850000D01*
X164887704Y-94850000D02*
X164887704Y-94659524D01*
X165611514Y-95421428D02*
X165649609Y-95459524D01*
X165649609Y-95459524D02*
X165687704Y-95535714D01*
X165687704Y-95535714D02*
X165687704Y-95726190D01*
X165687704Y-95726190D02*
X165649609Y-95802381D01*
X165649609Y-95802381D02*
X165611514Y-95840476D01*
X165611514Y-95840476D02*
X165535323Y-95878571D01*
X165535323Y-95878571D02*
X165459133Y-95878571D01*
X165459133Y-95878571D02*
X165344847Y-95840476D01*
X165344847Y-95840476D02*
X164887704Y-95383333D01*
X164887704Y-95383333D02*
X164887704Y-95878571D01*
X163963837Y-88938054D02*
X163925741Y-88976150D01*
X163925741Y-88976150D02*
X163811456Y-89014245D01*
X163811456Y-89014245D02*
X163735265Y-89014245D01*
X163735265Y-89014245D02*
X163620979Y-88976150D01*
X163620979Y-88976150D02*
X163544789Y-88899959D01*
X163544789Y-88899959D02*
X163506694Y-88823769D01*
X163506694Y-88823769D02*
X163468598Y-88671388D01*
X163468598Y-88671388D02*
X163468598Y-88557102D01*
X163468598Y-88557102D02*
X163506694Y-88404721D01*
X163506694Y-88404721D02*
X163544789Y-88328530D01*
X163544789Y-88328530D02*
X163620979Y-88252340D01*
X163620979Y-88252340D02*
X163735265Y-88214245D01*
X163735265Y-88214245D02*
X163811456Y-88214245D01*
X163811456Y-88214245D02*
X163925741Y-88252340D01*
X163925741Y-88252340D02*
X163963837Y-88290435D01*
X164725741Y-89014245D02*
X164268598Y-89014245D01*
X164497170Y-89014245D02*
X164497170Y-88214245D01*
X164497170Y-88214245D02*
X164420979Y-88328530D01*
X164420979Y-88328530D02*
X164344789Y-88404721D01*
X164344789Y-88404721D02*
X164268598Y-88442816D01*
X165220980Y-88214245D02*
X165297170Y-88214245D01*
X165297170Y-88214245D02*
X165373361Y-88252340D01*
X165373361Y-88252340D02*
X165411456Y-88290435D01*
X165411456Y-88290435D02*
X165449551Y-88366626D01*
X165449551Y-88366626D02*
X165487646Y-88519007D01*
X165487646Y-88519007D02*
X165487646Y-88709483D01*
X165487646Y-88709483D02*
X165449551Y-88861864D01*
X165449551Y-88861864D02*
X165411456Y-88938054D01*
X165411456Y-88938054D02*
X165373361Y-88976150D01*
X165373361Y-88976150D02*
X165297170Y-89014245D01*
X165297170Y-89014245D02*
X165220980Y-89014245D01*
X165220980Y-89014245D02*
X165144789Y-88976150D01*
X165144789Y-88976150D02*
X165106694Y-88938054D01*
X165106694Y-88938054D02*
X165068599Y-88861864D01*
X165068599Y-88861864D02*
X165030503Y-88709483D01*
X165030503Y-88709483D02*
X165030503Y-88519007D01*
X165030503Y-88519007D02*
X165068599Y-88366626D01*
X165068599Y-88366626D02*
X165106694Y-88290435D01*
X165106694Y-88290435D02*
X165144789Y-88252340D01*
X165144789Y-88252340D02*
X165220980Y-88214245D01*
X165876555Y-98807461D02*
X166257508Y-98540794D01*
X165876555Y-98350318D02*
X166676555Y-98350318D01*
X166676555Y-98350318D02*
X166676555Y-98655080D01*
X166676555Y-98655080D02*
X166638460Y-98731270D01*
X166638460Y-98731270D02*
X166600365Y-98769365D01*
X166600365Y-98769365D02*
X166524174Y-98807461D01*
X166524174Y-98807461D02*
X166409889Y-98807461D01*
X166409889Y-98807461D02*
X166333698Y-98769365D01*
X166333698Y-98769365D02*
X166295603Y-98731270D01*
X166295603Y-98731270D02*
X166257508Y-98655080D01*
X166257508Y-98655080D02*
X166257508Y-98350318D01*
X166333698Y-99264603D02*
X166371793Y-99188413D01*
X166371793Y-99188413D02*
X166409889Y-99150318D01*
X166409889Y-99150318D02*
X166486079Y-99112222D01*
X166486079Y-99112222D02*
X166524174Y-99112222D01*
X166524174Y-99112222D02*
X166600365Y-99150318D01*
X166600365Y-99150318D02*
X166638460Y-99188413D01*
X166638460Y-99188413D02*
X166676555Y-99264603D01*
X166676555Y-99264603D02*
X166676555Y-99416984D01*
X166676555Y-99416984D02*
X166638460Y-99493175D01*
X166638460Y-99493175D02*
X166600365Y-99531270D01*
X166600365Y-99531270D02*
X166524174Y-99569365D01*
X166524174Y-99569365D02*
X166486079Y-99569365D01*
X166486079Y-99569365D02*
X166409889Y-99531270D01*
X166409889Y-99531270D02*
X166371793Y-99493175D01*
X166371793Y-99493175D02*
X166333698Y-99416984D01*
X166333698Y-99416984D02*
X166333698Y-99264603D01*
X166333698Y-99264603D02*
X166295603Y-99188413D01*
X166295603Y-99188413D02*
X166257508Y-99150318D01*
X166257508Y-99150318D02*
X166181317Y-99112222D01*
X166181317Y-99112222D02*
X166028936Y-99112222D01*
X166028936Y-99112222D02*
X165952746Y-99150318D01*
X165952746Y-99150318D02*
X165914651Y-99188413D01*
X165914651Y-99188413D02*
X165876555Y-99264603D01*
X165876555Y-99264603D02*
X165876555Y-99416984D01*
X165876555Y-99416984D02*
X165914651Y-99493175D01*
X165914651Y-99493175D02*
X165952746Y-99531270D01*
X165952746Y-99531270D02*
X166028936Y-99569365D01*
X166028936Y-99569365D02*
X166181317Y-99569365D01*
X166181317Y-99569365D02*
X166257508Y-99531270D01*
X166257508Y-99531270D02*
X166295603Y-99493175D01*
X166295603Y-99493175D02*
X166333698Y-99416984D01*
X159583859Y-51365450D02*
X160383859Y-51365450D01*
X160383859Y-51365450D02*
X160383859Y-51555926D01*
X160383859Y-51555926D02*
X160345764Y-51670212D01*
X160345764Y-51670212D02*
X160269574Y-51746402D01*
X160269574Y-51746402D02*
X160193383Y-51784497D01*
X160193383Y-51784497D02*
X160041002Y-51822593D01*
X160041002Y-51822593D02*
X159926716Y-51822593D01*
X159926716Y-51822593D02*
X159774335Y-51784497D01*
X159774335Y-51784497D02*
X159698145Y-51746402D01*
X159698145Y-51746402D02*
X159621955Y-51670212D01*
X159621955Y-51670212D02*
X159583859Y-51555926D01*
X159583859Y-51555926D02*
X159583859Y-51365450D01*
X160383859Y-52089259D02*
X160383859Y-52584497D01*
X160383859Y-52584497D02*
X160079097Y-52317831D01*
X160079097Y-52317831D02*
X160079097Y-52432116D01*
X160079097Y-52432116D02*
X160041002Y-52508307D01*
X160041002Y-52508307D02*
X160002907Y-52546402D01*
X160002907Y-52546402D02*
X159926716Y-52584497D01*
X159926716Y-52584497D02*
X159736240Y-52584497D01*
X159736240Y-52584497D02*
X159660050Y-52546402D01*
X159660050Y-52546402D02*
X159621955Y-52508307D01*
X159621955Y-52508307D02*
X159583859Y-52432116D01*
X159583859Y-52432116D02*
X159583859Y-52203545D01*
X159583859Y-52203545D02*
X159621955Y-52127354D01*
X159621955Y-52127354D02*
X159660050Y-52089259D01*
X156373554Y-51866667D02*
X156754507Y-51600000D01*
X156373554Y-51409524D02*
X157173554Y-51409524D01*
X157173554Y-51409524D02*
X157173554Y-51714286D01*
X157173554Y-51714286D02*
X157135459Y-51790476D01*
X157135459Y-51790476D02*
X157097364Y-51828571D01*
X157097364Y-51828571D02*
X157021173Y-51866667D01*
X157021173Y-51866667D02*
X156906888Y-51866667D01*
X156906888Y-51866667D02*
X156830697Y-51828571D01*
X156830697Y-51828571D02*
X156792602Y-51790476D01*
X156792602Y-51790476D02*
X156754507Y-51714286D01*
X156754507Y-51714286D02*
X156754507Y-51409524D01*
X156906888Y-52552381D02*
X156373554Y-52552381D01*
X157211650Y-52361905D02*
X156640221Y-52171428D01*
X156640221Y-52171428D02*
X156640221Y-52666667D01*
X161093155Y-70692166D02*
X161055060Y-70654070D01*
X161055060Y-70654070D02*
X161016964Y-70539785D01*
X161016964Y-70539785D02*
X161016964Y-70463594D01*
X161016964Y-70463594D02*
X161055060Y-70349308D01*
X161055060Y-70349308D02*
X161131250Y-70273118D01*
X161131250Y-70273118D02*
X161207440Y-70235023D01*
X161207440Y-70235023D02*
X161359821Y-70196927D01*
X161359821Y-70196927D02*
X161474107Y-70196927D01*
X161474107Y-70196927D02*
X161626488Y-70235023D01*
X161626488Y-70235023D02*
X161702679Y-70273118D01*
X161702679Y-70273118D02*
X161778869Y-70349308D01*
X161778869Y-70349308D02*
X161816964Y-70463594D01*
X161816964Y-70463594D02*
X161816964Y-70539785D01*
X161816964Y-70539785D02*
X161778869Y-70654070D01*
X161778869Y-70654070D02*
X161740774Y-70692166D01*
X161016964Y-71454070D02*
X161016964Y-70996927D01*
X161016964Y-71225499D02*
X161816964Y-71225499D01*
X161816964Y-71225499D02*
X161702679Y-71149308D01*
X161702679Y-71149308D02*
X161626488Y-71073118D01*
X161626488Y-71073118D02*
X161588393Y-70996927D01*
X152637704Y-78366667D02*
X153018657Y-78100000D01*
X152637704Y-77909524D02*
X153437704Y-77909524D01*
X153437704Y-77909524D02*
X153437704Y-78214286D01*
X153437704Y-78214286D02*
X153399609Y-78290476D01*
X153399609Y-78290476D02*
X153361514Y-78328571D01*
X153361514Y-78328571D02*
X153285323Y-78366667D01*
X153285323Y-78366667D02*
X153171038Y-78366667D01*
X153171038Y-78366667D02*
X153094847Y-78328571D01*
X153094847Y-78328571D02*
X153056752Y-78290476D01*
X153056752Y-78290476D02*
X153018657Y-78214286D01*
X153018657Y-78214286D02*
X153018657Y-77909524D01*
X153437704Y-79090476D02*
X153437704Y-78709524D01*
X153437704Y-78709524D02*
X153056752Y-78671428D01*
X153056752Y-78671428D02*
X153094847Y-78709524D01*
X153094847Y-78709524D02*
X153132942Y-78785714D01*
X153132942Y-78785714D02*
X153132942Y-78976190D01*
X153132942Y-78976190D02*
X153094847Y-79052381D01*
X153094847Y-79052381D02*
X153056752Y-79090476D01*
X153056752Y-79090476D02*
X152980561Y-79128571D01*
X152980561Y-79128571D02*
X152790085Y-79128571D01*
X152790085Y-79128571D02*
X152713895Y-79090476D01*
X152713895Y-79090476D02*
X152675800Y-79052381D01*
X152675800Y-79052381D02*
X152637704Y-78976190D01*
X152637704Y-78976190D02*
X152637704Y-78785714D01*
X152637704Y-78785714D02*
X152675800Y-78709524D01*
X152675800Y-78709524D02*
X152713895Y-78671428D01*
X152437704Y-76390476D02*
X151790085Y-76390476D01*
X151790085Y-76390476D02*
X151713895Y-76428571D01*
X151713895Y-76428571D02*
X151675800Y-76466666D01*
X151675800Y-76466666D02*
X151637704Y-76542857D01*
X151637704Y-76542857D02*
X151637704Y-76695238D01*
X151637704Y-76695238D02*
X151675800Y-76771428D01*
X151675800Y-76771428D02*
X151713895Y-76809523D01*
X151713895Y-76809523D02*
X151790085Y-76847619D01*
X151790085Y-76847619D02*
X152437704Y-76847619D01*
X152437704Y-77571428D02*
X152437704Y-77419047D01*
X152437704Y-77419047D02*
X152399609Y-77342856D01*
X152399609Y-77342856D02*
X152361514Y-77304761D01*
X152361514Y-77304761D02*
X152247228Y-77228571D01*
X152247228Y-77228571D02*
X152094847Y-77190475D01*
X152094847Y-77190475D02*
X151790085Y-77190475D01*
X151790085Y-77190475D02*
X151713895Y-77228571D01*
X151713895Y-77228571D02*
X151675800Y-77266666D01*
X151675800Y-77266666D02*
X151637704Y-77342856D01*
X151637704Y-77342856D02*
X151637704Y-77495237D01*
X151637704Y-77495237D02*
X151675800Y-77571428D01*
X151675800Y-77571428D02*
X151713895Y-77609523D01*
X151713895Y-77609523D02*
X151790085Y-77647618D01*
X151790085Y-77647618D02*
X151980561Y-77647618D01*
X151980561Y-77647618D02*
X152056752Y-77609523D01*
X152056752Y-77609523D02*
X152094847Y-77571428D01*
X152094847Y-77571428D02*
X152132942Y-77495237D01*
X152132942Y-77495237D02*
X152132942Y-77342856D01*
X152132942Y-77342856D02*
X152094847Y-77266666D01*
X152094847Y-77266666D02*
X152056752Y-77228571D01*
X152056752Y-77228571D02*
X151980561Y-77190475D01*
X164887704Y-97159524D02*
X165687704Y-97159524D01*
X165687704Y-97159524D02*
X165687704Y-97350000D01*
X165687704Y-97350000D02*
X165649609Y-97464286D01*
X165649609Y-97464286D02*
X165573419Y-97540476D01*
X165573419Y-97540476D02*
X165497228Y-97578571D01*
X165497228Y-97578571D02*
X165344847Y-97616667D01*
X165344847Y-97616667D02*
X165230561Y-97616667D01*
X165230561Y-97616667D02*
X165078180Y-97578571D01*
X165078180Y-97578571D02*
X165001990Y-97540476D01*
X165001990Y-97540476D02*
X164925800Y-97464286D01*
X164925800Y-97464286D02*
X164887704Y-97350000D01*
X164887704Y-97350000D02*
X164887704Y-97159524D01*
X164887704Y-98378571D02*
X164887704Y-97921428D01*
X164887704Y-98150000D02*
X165687704Y-98150000D01*
X165687704Y-98150000D02*
X165573419Y-98073809D01*
X165573419Y-98073809D02*
X165497228Y-97997619D01*
X165497228Y-97997619D02*
X165459133Y-97921428D01*
X162056752Y-65207118D02*
X162056752Y-64940452D01*
X161637704Y-64940452D02*
X162437704Y-64940452D01*
X162437704Y-64940452D02*
X162437704Y-65321404D01*
X162056752Y-65892832D02*
X162018657Y-66007118D01*
X162018657Y-66007118D02*
X161980561Y-66045213D01*
X161980561Y-66045213D02*
X161904371Y-66083309D01*
X161904371Y-66083309D02*
X161790085Y-66083309D01*
X161790085Y-66083309D02*
X161713895Y-66045213D01*
X161713895Y-66045213D02*
X161675800Y-66007118D01*
X161675800Y-66007118D02*
X161637704Y-65930928D01*
X161637704Y-65930928D02*
X161637704Y-65626166D01*
X161637704Y-65626166D02*
X162437704Y-65626166D01*
X162437704Y-65626166D02*
X162437704Y-65892832D01*
X162437704Y-65892832D02*
X162399609Y-65969023D01*
X162399609Y-65969023D02*
X162361514Y-66007118D01*
X162361514Y-66007118D02*
X162285323Y-66045213D01*
X162285323Y-66045213D02*
X162209133Y-66045213D01*
X162209133Y-66045213D02*
X162132942Y-66007118D01*
X162132942Y-66007118D02*
X162094847Y-65969023D01*
X162094847Y-65969023D02*
X162056752Y-65892832D01*
X162056752Y-65892832D02*
X162056752Y-65626166D01*
X162361514Y-66388070D02*
X162399609Y-66426166D01*
X162399609Y-66426166D02*
X162437704Y-66502356D01*
X162437704Y-66502356D02*
X162437704Y-66692832D01*
X162437704Y-66692832D02*
X162399609Y-66769023D01*
X162399609Y-66769023D02*
X162361514Y-66807118D01*
X162361514Y-66807118D02*
X162285323Y-66845213D01*
X162285323Y-66845213D02*
X162209133Y-66845213D01*
X162209133Y-66845213D02*
X162094847Y-66807118D01*
X162094847Y-66807118D02*
X161637704Y-66349975D01*
X161637704Y-66349975D02*
X161637704Y-66845213D01*
D12*
X151136404Y-67485714D02*
X151517357Y-67219047D01*
X151136404Y-67028571D02*
X151936404Y-67028571D01*
X151936404Y-67028571D02*
X151936404Y-67333333D01*
X151936404Y-67333333D02*
X151898309Y-67409523D01*
X151898309Y-67409523D02*
X151860214Y-67447618D01*
X151860214Y-67447618D02*
X151784023Y-67485714D01*
X151784023Y-67485714D02*
X151669738Y-67485714D01*
X151669738Y-67485714D02*
X151593547Y-67447618D01*
X151593547Y-67447618D02*
X151555452Y-67409523D01*
X151555452Y-67409523D02*
X151517357Y-67333333D01*
X151517357Y-67333333D02*
X151517357Y-67028571D01*
X151136404Y-68247618D02*
X151136404Y-67790475D01*
X151136404Y-68019047D02*
X151936404Y-68019047D01*
X151936404Y-68019047D02*
X151822119Y-67942856D01*
X151822119Y-67942856D02*
X151745928Y-67866666D01*
X151745928Y-67866666D02*
X151707833Y-67790475D01*
X151593547Y-68704761D02*
X151631642Y-68628571D01*
X151631642Y-68628571D02*
X151669738Y-68590476D01*
X151669738Y-68590476D02*
X151745928Y-68552380D01*
X151745928Y-68552380D02*
X151784023Y-68552380D01*
X151784023Y-68552380D02*
X151860214Y-68590476D01*
X151860214Y-68590476D02*
X151898309Y-68628571D01*
X151898309Y-68628571D02*
X151936404Y-68704761D01*
X151936404Y-68704761D02*
X151936404Y-68857142D01*
X151936404Y-68857142D02*
X151898309Y-68933333D01*
X151898309Y-68933333D02*
X151860214Y-68971428D01*
X151860214Y-68971428D02*
X151784023Y-69009523D01*
X151784023Y-69009523D02*
X151745928Y-69009523D01*
X151745928Y-69009523D02*
X151669738Y-68971428D01*
X151669738Y-68971428D02*
X151631642Y-68933333D01*
X151631642Y-68933333D02*
X151593547Y-68857142D01*
X151593547Y-68857142D02*
X151593547Y-68704761D01*
X151593547Y-68704761D02*
X151555452Y-68628571D01*
X151555452Y-68628571D02*
X151517357Y-68590476D01*
X151517357Y-68590476D02*
X151441166Y-68552380D01*
X151441166Y-68552380D02*
X151288785Y-68552380D01*
X151288785Y-68552380D02*
X151212595Y-68590476D01*
X151212595Y-68590476D02*
X151174500Y-68628571D01*
X151174500Y-68628571D02*
X151136404Y-68704761D01*
X151136404Y-68704761D02*
X151136404Y-68857142D01*
X151136404Y-68857142D02*
X151174500Y-68933333D01*
X151174500Y-68933333D02*
X151212595Y-68971428D01*
X151212595Y-68971428D02*
X151288785Y-69009523D01*
X151288785Y-69009523D02*
X151441166Y-69009523D01*
X151441166Y-69009523D02*
X151517357Y-68971428D01*
X151517357Y-68971428D02*
X151555452Y-68933333D01*
X151555452Y-68933333D02*
X151593547Y-68857142D01*
D11*
X169313895Y-72985714D02*
X169275800Y-72947618D01*
X169275800Y-72947618D02*
X169237704Y-72833333D01*
X169237704Y-72833333D02*
X169237704Y-72757142D01*
X169237704Y-72757142D02*
X169275800Y-72642856D01*
X169275800Y-72642856D02*
X169351990Y-72566666D01*
X169351990Y-72566666D02*
X169428180Y-72528571D01*
X169428180Y-72528571D02*
X169580561Y-72490475D01*
X169580561Y-72490475D02*
X169694847Y-72490475D01*
X169694847Y-72490475D02*
X169847228Y-72528571D01*
X169847228Y-72528571D02*
X169923419Y-72566666D01*
X169923419Y-72566666D02*
X169999609Y-72642856D01*
X169999609Y-72642856D02*
X170037704Y-72757142D01*
X170037704Y-72757142D02*
X170037704Y-72833333D01*
X170037704Y-72833333D02*
X169999609Y-72947618D01*
X169999609Y-72947618D02*
X169961514Y-72985714D01*
X169237704Y-73747618D02*
X169237704Y-73290475D01*
X169237704Y-73519047D02*
X170037704Y-73519047D01*
X170037704Y-73519047D02*
X169923419Y-73442856D01*
X169923419Y-73442856D02*
X169847228Y-73366666D01*
X169847228Y-73366666D02*
X169809133Y-73290475D01*
X170037704Y-74014285D02*
X170037704Y-74547619D01*
X170037704Y-74547619D02*
X169237704Y-74204761D01*
X165169708Y-52100143D02*
X164522089Y-52100143D01*
X164522089Y-52100143D02*
X164445899Y-52138238D01*
X164445899Y-52138238D02*
X164407804Y-52176333D01*
X164407804Y-52176333D02*
X164369708Y-52252524D01*
X164369708Y-52252524D02*
X164369708Y-52404905D01*
X164369708Y-52404905D02*
X164407804Y-52481095D01*
X164407804Y-52481095D02*
X164445899Y-52519190D01*
X164445899Y-52519190D02*
X164522089Y-52557286D01*
X164522089Y-52557286D02*
X165169708Y-52557286D01*
X165169708Y-53319190D02*
X165169708Y-52938238D01*
X165169708Y-52938238D02*
X164788756Y-52900142D01*
X164788756Y-52900142D02*
X164826851Y-52938238D01*
X164826851Y-52938238D02*
X164864946Y-53014428D01*
X164864946Y-53014428D02*
X164864946Y-53204904D01*
X164864946Y-53204904D02*
X164826851Y-53281095D01*
X164826851Y-53281095D02*
X164788756Y-53319190D01*
X164788756Y-53319190D02*
X164712565Y-53357285D01*
X164712565Y-53357285D02*
X164522089Y-53357285D01*
X164522089Y-53357285D02*
X164445899Y-53319190D01*
X164445899Y-53319190D02*
X164407804Y-53281095D01*
X164407804Y-53281095D02*
X164369708Y-53204904D01*
X164369708Y-53204904D02*
X164369708Y-53014428D01*
X164369708Y-53014428D02*
X164407804Y-52938238D01*
X164407804Y-52938238D02*
X164445899Y-52900142D01*
X156608385Y-80685093D02*
X156570289Y-80723189D01*
X156570289Y-80723189D02*
X156456004Y-80761284D01*
X156456004Y-80761284D02*
X156379813Y-80761284D01*
X156379813Y-80761284D02*
X156265527Y-80723189D01*
X156265527Y-80723189D02*
X156189337Y-80646998D01*
X156189337Y-80646998D02*
X156151242Y-80570808D01*
X156151242Y-80570808D02*
X156113146Y-80418427D01*
X156113146Y-80418427D02*
X156113146Y-80304141D01*
X156113146Y-80304141D02*
X156151242Y-80151760D01*
X156151242Y-80151760D02*
X156189337Y-80075569D01*
X156189337Y-80075569D02*
X156265527Y-79999379D01*
X156265527Y-79999379D02*
X156379813Y-79961284D01*
X156379813Y-79961284D02*
X156456004Y-79961284D01*
X156456004Y-79961284D02*
X156570289Y-79999379D01*
X156570289Y-79999379D02*
X156608385Y-80037474D01*
X156875051Y-79961284D02*
X157408385Y-79961284D01*
X157408385Y-79961284D02*
X157065527Y-80761284D01*
X156559060Y-89140476D02*
X155911441Y-89140476D01*
X155911441Y-89140476D02*
X155835251Y-89178571D01*
X155835251Y-89178571D02*
X155797156Y-89216666D01*
X155797156Y-89216666D02*
X155759060Y-89292857D01*
X155759060Y-89292857D02*
X155759060Y-89445238D01*
X155759060Y-89445238D02*
X155797156Y-89521428D01*
X155797156Y-89521428D02*
X155835251Y-89559523D01*
X155835251Y-89559523D02*
X155911441Y-89597619D01*
X155911441Y-89597619D02*
X156559060Y-89597619D01*
X156292394Y-90321428D02*
X155759060Y-90321428D01*
X156597156Y-90130952D02*
X156025727Y-89940475D01*
X156025727Y-89940475D02*
X156025727Y-90435714D01*
X154213895Y-61235714D02*
X154175800Y-61197618D01*
X154175800Y-61197618D02*
X154137704Y-61083333D01*
X154137704Y-61083333D02*
X154137704Y-61007142D01*
X154137704Y-61007142D02*
X154175800Y-60892856D01*
X154175800Y-60892856D02*
X154251990Y-60816666D01*
X154251990Y-60816666D02*
X154328180Y-60778571D01*
X154328180Y-60778571D02*
X154480561Y-60740475D01*
X154480561Y-60740475D02*
X154594847Y-60740475D01*
X154594847Y-60740475D02*
X154747228Y-60778571D01*
X154747228Y-60778571D02*
X154823419Y-60816666D01*
X154823419Y-60816666D02*
X154899609Y-60892856D01*
X154899609Y-60892856D02*
X154937704Y-61007142D01*
X154937704Y-61007142D02*
X154937704Y-61083333D01*
X154937704Y-61083333D02*
X154899609Y-61197618D01*
X154899609Y-61197618D02*
X154861514Y-61235714D01*
X154137704Y-61997618D02*
X154137704Y-61540475D01*
X154137704Y-61769047D02*
X154937704Y-61769047D01*
X154937704Y-61769047D02*
X154823419Y-61692856D01*
X154823419Y-61692856D02*
X154747228Y-61616666D01*
X154747228Y-61616666D02*
X154709133Y-61540475D01*
X154937704Y-62721428D02*
X154937704Y-62340476D01*
X154937704Y-62340476D02*
X154556752Y-62302380D01*
X154556752Y-62302380D02*
X154594847Y-62340476D01*
X154594847Y-62340476D02*
X154632942Y-62416666D01*
X154632942Y-62416666D02*
X154632942Y-62607142D01*
X154632942Y-62607142D02*
X154594847Y-62683333D01*
X154594847Y-62683333D02*
X154556752Y-62721428D01*
X154556752Y-62721428D02*
X154480561Y-62759523D01*
X154480561Y-62759523D02*
X154290085Y-62759523D01*
X154290085Y-62759523D02*
X154213895Y-62721428D01*
X154213895Y-62721428D02*
X154175800Y-62683333D01*
X154175800Y-62683333D02*
X154137704Y-62607142D01*
X154137704Y-62607142D02*
X154137704Y-62416666D01*
X154137704Y-62416666D02*
X154175800Y-62340476D01*
X154175800Y-62340476D02*
X154213895Y-62302380D01*
X157722575Y-96753097D02*
X157684479Y-96791193D01*
X157684479Y-96791193D02*
X157570194Y-96829288D01*
X157570194Y-96829288D02*
X157494003Y-96829288D01*
X157494003Y-96829288D02*
X157379717Y-96791193D01*
X157379717Y-96791193D02*
X157303527Y-96715002D01*
X157303527Y-96715002D02*
X157265432Y-96638812D01*
X157265432Y-96638812D02*
X157227336Y-96486431D01*
X157227336Y-96486431D02*
X157227336Y-96372145D01*
X157227336Y-96372145D02*
X157265432Y-96219764D01*
X157265432Y-96219764D02*
X157303527Y-96143573D01*
X157303527Y-96143573D02*
X157379717Y-96067383D01*
X157379717Y-96067383D02*
X157494003Y-96029288D01*
X157494003Y-96029288D02*
X157570194Y-96029288D01*
X157570194Y-96029288D02*
X157684479Y-96067383D01*
X157684479Y-96067383D02*
X157722575Y-96105478D01*
X158484479Y-96829288D02*
X158027336Y-96829288D01*
X158255908Y-96829288D02*
X158255908Y-96029288D01*
X158255908Y-96029288D02*
X158179717Y-96143573D01*
X158179717Y-96143573D02*
X158103527Y-96219764D01*
X158103527Y-96219764D02*
X158027336Y-96257859D01*
X158789241Y-96105478D02*
X158827337Y-96067383D01*
X158827337Y-96067383D02*
X158903527Y-96029288D01*
X158903527Y-96029288D02*
X159094003Y-96029288D01*
X159094003Y-96029288D02*
X159170194Y-96067383D01*
X159170194Y-96067383D02*
X159208289Y-96105478D01*
X159208289Y-96105478D02*
X159246384Y-96181669D01*
X159246384Y-96181669D02*
X159246384Y-96257859D01*
X159246384Y-96257859D02*
X159208289Y-96372145D01*
X159208289Y-96372145D02*
X158751146Y-96829288D01*
X158751146Y-96829288D02*
X159246384Y-96829288D01*
X159637704Y-81841667D02*
X160018657Y-81575000D01*
X159637704Y-81384524D02*
X160437704Y-81384524D01*
X160437704Y-81384524D02*
X160437704Y-81689286D01*
X160437704Y-81689286D02*
X160399609Y-81765476D01*
X160399609Y-81765476D02*
X160361514Y-81803571D01*
X160361514Y-81803571D02*
X160285323Y-81841667D01*
X160285323Y-81841667D02*
X160171038Y-81841667D01*
X160171038Y-81841667D02*
X160094847Y-81803571D01*
X160094847Y-81803571D02*
X160056752Y-81765476D01*
X160056752Y-81765476D02*
X160018657Y-81689286D01*
X160018657Y-81689286D02*
X160018657Y-81384524D01*
X159637704Y-82222619D02*
X159637704Y-82375000D01*
X159637704Y-82375000D02*
X159675800Y-82451190D01*
X159675800Y-82451190D02*
X159713895Y-82489286D01*
X159713895Y-82489286D02*
X159828180Y-82565476D01*
X159828180Y-82565476D02*
X159980561Y-82603571D01*
X159980561Y-82603571D02*
X160285323Y-82603571D01*
X160285323Y-82603571D02*
X160361514Y-82565476D01*
X160361514Y-82565476D02*
X160399609Y-82527381D01*
X160399609Y-82527381D02*
X160437704Y-82451190D01*
X160437704Y-82451190D02*
X160437704Y-82298809D01*
X160437704Y-82298809D02*
X160399609Y-82222619D01*
X160399609Y-82222619D02*
X160361514Y-82184524D01*
X160361514Y-82184524D02*
X160285323Y-82146428D01*
X160285323Y-82146428D02*
X160094847Y-82146428D01*
X160094847Y-82146428D02*
X160018657Y-82184524D01*
X160018657Y-82184524D02*
X159980561Y-82222619D01*
X159980561Y-82222619D02*
X159942466Y-82298809D01*
X159942466Y-82298809D02*
X159942466Y-82451190D01*
X159942466Y-82451190D02*
X159980561Y-82527381D01*
X159980561Y-82527381D02*
X160018657Y-82565476D01*
X160018657Y-82565476D02*
X160094847Y-82603571D01*
X154721564Y-69036104D02*
X154683468Y-69074200D01*
X154683468Y-69074200D02*
X154569183Y-69112295D01*
X154569183Y-69112295D02*
X154492992Y-69112295D01*
X154492992Y-69112295D02*
X154378706Y-69074200D01*
X154378706Y-69074200D02*
X154302516Y-68998009D01*
X154302516Y-68998009D02*
X154264421Y-68921819D01*
X154264421Y-68921819D02*
X154226325Y-68769438D01*
X154226325Y-68769438D02*
X154226325Y-68655152D01*
X154226325Y-68655152D02*
X154264421Y-68502771D01*
X154264421Y-68502771D02*
X154302516Y-68426580D01*
X154302516Y-68426580D02*
X154378706Y-68350390D01*
X154378706Y-68350390D02*
X154492992Y-68312295D01*
X154492992Y-68312295D02*
X154569183Y-68312295D01*
X154569183Y-68312295D02*
X154683468Y-68350390D01*
X154683468Y-68350390D02*
X154721564Y-68388485D01*
X155483468Y-69112295D02*
X155026325Y-69112295D01*
X155254897Y-69112295D02*
X155254897Y-68312295D01*
X155254897Y-68312295D02*
X155178706Y-68426580D01*
X155178706Y-68426580D02*
X155102516Y-68502771D01*
X155102516Y-68502771D02*
X155026325Y-68540866D01*
X155750135Y-68312295D02*
X156245373Y-68312295D01*
X156245373Y-68312295D02*
X155978707Y-68617057D01*
X155978707Y-68617057D02*
X156092992Y-68617057D01*
X156092992Y-68617057D02*
X156169183Y-68655152D01*
X156169183Y-68655152D02*
X156207278Y-68693247D01*
X156207278Y-68693247D02*
X156245373Y-68769438D01*
X156245373Y-68769438D02*
X156245373Y-68959914D01*
X156245373Y-68959914D02*
X156207278Y-69036104D01*
X156207278Y-69036104D02*
X156169183Y-69074200D01*
X156169183Y-69074200D02*
X156092992Y-69112295D01*
X156092992Y-69112295D02*
X155864421Y-69112295D01*
X155864421Y-69112295D02*
X155788230Y-69074200D01*
X155788230Y-69074200D02*
X155750135Y-69036104D01*
X158963895Y-83616667D02*
X158925800Y-83578571D01*
X158925800Y-83578571D02*
X158887704Y-83464286D01*
X158887704Y-83464286D02*
X158887704Y-83388095D01*
X158887704Y-83388095D02*
X158925800Y-83273809D01*
X158925800Y-83273809D02*
X159001990Y-83197619D01*
X159001990Y-83197619D02*
X159078180Y-83159524D01*
X159078180Y-83159524D02*
X159230561Y-83121428D01*
X159230561Y-83121428D02*
X159344847Y-83121428D01*
X159344847Y-83121428D02*
X159497228Y-83159524D01*
X159497228Y-83159524D02*
X159573419Y-83197619D01*
X159573419Y-83197619D02*
X159649609Y-83273809D01*
X159649609Y-83273809D02*
X159687704Y-83388095D01*
X159687704Y-83388095D02*
X159687704Y-83464286D01*
X159687704Y-83464286D02*
X159649609Y-83578571D01*
X159649609Y-83578571D02*
X159611514Y-83616667D01*
X158887704Y-83997619D02*
X158887704Y-84150000D01*
X158887704Y-84150000D02*
X158925800Y-84226190D01*
X158925800Y-84226190D02*
X158963895Y-84264286D01*
X158963895Y-84264286D02*
X159078180Y-84340476D01*
X159078180Y-84340476D02*
X159230561Y-84378571D01*
X159230561Y-84378571D02*
X159535323Y-84378571D01*
X159535323Y-84378571D02*
X159611514Y-84340476D01*
X159611514Y-84340476D02*
X159649609Y-84302381D01*
X159649609Y-84302381D02*
X159687704Y-84226190D01*
X159687704Y-84226190D02*
X159687704Y-84073809D01*
X159687704Y-84073809D02*
X159649609Y-83997619D01*
X159649609Y-83997619D02*
X159611514Y-83959524D01*
X159611514Y-83959524D02*
X159535323Y-83921428D01*
X159535323Y-83921428D02*
X159344847Y-83921428D01*
X159344847Y-83921428D02*
X159268657Y-83959524D01*
X159268657Y-83959524D02*
X159230561Y-83997619D01*
X159230561Y-83997619D02*
X159192466Y-84073809D01*
X159192466Y-84073809D02*
X159192466Y-84226190D01*
X159192466Y-84226190D02*
X159230561Y-84302381D01*
X159230561Y-84302381D02*
X159268657Y-84340476D01*
X159268657Y-84340476D02*
X159344847Y-84378571D01*
X169637704Y-92116667D02*
X170018657Y-91850000D01*
X169637704Y-91659524D02*
X170437704Y-91659524D01*
X170437704Y-91659524D02*
X170437704Y-91964286D01*
X170437704Y-91964286D02*
X170399609Y-92040476D01*
X170399609Y-92040476D02*
X170361514Y-92078571D01*
X170361514Y-92078571D02*
X170285323Y-92116667D01*
X170285323Y-92116667D02*
X170171038Y-92116667D01*
X170171038Y-92116667D02*
X170094847Y-92078571D01*
X170094847Y-92078571D02*
X170056752Y-92040476D01*
X170056752Y-92040476D02*
X170018657Y-91964286D01*
X170018657Y-91964286D02*
X170018657Y-91659524D01*
X170437704Y-92802381D02*
X170437704Y-92650000D01*
X170437704Y-92650000D02*
X170399609Y-92573809D01*
X170399609Y-92573809D02*
X170361514Y-92535714D01*
X170361514Y-92535714D02*
X170247228Y-92459524D01*
X170247228Y-92459524D02*
X170094847Y-92421428D01*
X170094847Y-92421428D02*
X169790085Y-92421428D01*
X169790085Y-92421428D02*
X169713895Y-92459524D01*
X169713895Y-92459524D02*
X169675800Y-92497619D01*
X169675800Y-92497619D02*
X169637704Y-92573809D01*
X169637704Y-92573809D02*
X169637704Y-92726190D01*
X169637704Y-92726190D02*
X169675800Y-92802381D01*
X169675800Y-92802381D02*
X169713895Y-92840476D01*
X169713895Y-92840476D02*
X169790085Y-92878571D01*
X169790085Y-92878571D02*
X169980561Y-92878571D01*
X169980561Y-92878571D02*
X170056752Y-92840476D01*
X170056752Y-92840476D02*
X170094847Y-92802381D01*
X170094847Y-92802381D02*
X170132942Y-92726190D01*
X170132942Y-92726190D02*
X170132942Y-92573809D01*
X170132942Y-92573809D02*
X170094847Y-92497619D01*
X170094847Y-92497619D02*
X170056752Y-92459524D01*
X170056752Y-92459524D02*
X169980561Y-92421428D01*
X169556752Y-66583333D02*
X169556752Y-66316667D01*
X169137704Y-66316667D02*
X169937704Y-66316667D01*
X169937704Y-66316667D02*
X169937704Y-66697619D01*
X169556752Y-67269047D02*
X169518657Y-67383333D01*
X169518657Y-67383333D02*
X169480561Y-67421428D01*
X169480561Y-67421428D02*
X169404371Y-67459524D01*
X169404371Y-67459524D02*
X169290085Y-67459524D01*
X169290085Y-67459524D02*
X169213895Y-67421428D01*
X169213895Y-67421428D02*
X169175800Y-67383333D01*
X169175800Y-67383333D02*
X169137704Y-67307143D01*
X169137704Y-67307143D02*
X169137704Y-67002381D01*
X169137704Y-67002381D02*
X169937704Y-67002381D01*
X169937704Y-67002381D02*
X169937704Y-67269047D01*
X169937704Y-67269047D02*
X169899609Y-67345238D01*
X169899609Y-67345238D02*
X169861514Y-67383333D01*
X169861514Y-67383333D02*
X169785323Y-67421428D01*
X169785323Y-67421428D02*
X169709133Y-67421428D01*
X169709133Y-67421428D02*
X169632942Y-67383333D01*
X169632942Y-67383333D02*
X169594847Y-67345238D01*
X169594847Y-67345238D02*
X169556752Y-67269047D01*
X169556752Y-67269047D02*
X169556752Y-67002381D01*
X169137704Y-68221428D02*
X169137704Y-67764285D01*
X169137704Y-67992857D02*
X169937704Y-67992857D01*
X169937704Y-67992857D02*
X169823419Y-67916666D01*
X169823419Y-67916666D02*
X169747228Y-67840476D01*
X169747228Y-67840476D02*
X169709133Y-67764285D01*
X162963895Y-93153943D02*
X162925800Y-93115847D01*
X162925800Y-93115847D02*
X162887704Y-93001562D01*
X162887704Y-93001562D02*
X162887704Y-92925371D01*
X162887704Y-92925371D02*
X162925800Y-92811085D01*
X162925800Y-92811085D02*
X163001990Y-92734895D01*
X163001990Y-92734895D02*
X163078180Y-92696800D01*
X163078180Y-92696800D02*
X163230561Y-92658704D01*
X163230561Y-92658704D02*
X163344847Y-92658704D01*
X163344847Y-92658704D02*
X163497228Y-92696800D01*
X163497228Y-92696800D02*
X163573419Y-92734895D01*
X163573419Y-92734895D02*
X163649609Y-92811085D01*
X163649609Y-92811085D02*
X163687704Y-92925371D01*
X163687704Y-92925371D02*
X163687704Y-93001562D01*
X163687704Y-93001562D02*
X163649609Y-93115847D01*
X163649609Y-93115847D02*
X163611514Y-93153943D01*
X163687704Y-93420609D02*
X163687704Y-93915847D01*
X163687704Y-93915847D02*
X163382942Y-93649181D01*
X163382942Y-93649181D02*
X163382942Y-93763466D01*
X163382942Y-93763466D02*
X163344847Y-93839657D01*
X163344847Y-93839657D02*
X163306752Y-93877752D01*
X163306752Y-93877752D02*
X163230561Y-93915847D01*
X163230561Y-93915847D02*
X163040085Y-93915847D01*
X163040085Y-93915847D02*
X162963895Y-93877752D01*
X162963895Y-93877752D02*
X162925800Y-93839657D01*
X162925800Y-93839657D02*
X162887704Y-93763466D01*
X162887704Y-93763466D02*
X162887704Y-93534895D01*
X162887704Y-93534895D02*
X162925800Y-93458704D01*
X162925800Y-93458704D02*
X162963895Y-93420609D01*
X156769660Y-78003128D02*
X157150613Y-77736461D01*
X156769660Y-77545985D02*
X157569660Y-77545985D01*
X157569660Y-77545985D02*
X157569660Y-77850747D01*
X157569660Y-77850747D02*
X157531565Y-77926937D01*
X157531565Y-77926937D02*
X157493470Y-77965032D01*
X157493470Y-77965032D02*
X157417279Y-78003128D01*
X157417279Y-78003128D02*
X157302994Y-78003128D01*
X157302994Y-78003128D02*
X157226803Y-77965032D01*
X157226803Y-77965032D02*
X157188708Y-77926937D01*
X157188708Y-77926937D02*
X157150613Y-77850747D01*
X157150613Y-77850747D02*
X157150613Y-77545985D01*
X157493470Y-78307889D02*
X157531565Y-78345985D01*
X157531565Y-78345985D02*
X157569660Y-78422175D01*
X157569660Y-78422175D02*
X157569660Y-78612651D01*
X157569660Y-78612651D02*
X157531565Y-78688842D01*
X157531565Y-78688842D02*
X157493470Y-78726937D01*
X157493470Y-78726937D02*
X157417279Y-78765032D01*
X157417279Y-78765032D02*
X157341089Y-78765032D01*
X157341089Y-78765032D02*
X157226803Y-78726937D01*
X157226803Y-78726937D02*
X156769660Y-78269794D01*
X156769660Y-78269794D02*
X156769660Y-78765032D01*
X157569660Y-79260271D02*
X157569660Y-79336461D01*
X157569660Y-79336461D02*
X157531565Y-79412652D01*
X157531565Y-79412652D02*
X157493470Y-79450747D01*
X157493470Y-79450747D02*
X157417279Y-79488842D01*
X157417279Y-79488842D02*
X157264898Y-79526937D01*
X157264898Y-79526937D02*
X157074422Y-79526937D01*
X157074422Y-79526937D02*
X156922041Y-79488842D01*
X156922041Y-79488842D02*
X156845851Y-79450747D01*
X156845851Y-79450747D02*
X156807756Y-79412652D01*
X156807756Y-79412652D02*
X156769660Y-79336461D01*
X156769660Y-79336461D02*
X156769660Y-79260271D01*
X156769660Y-79260271D02*
X156807756Y-79184080D01*
X156807756Y-79184080D02*
X156845851Y-79145985D01*
X156845851Y-79145985D02*
X156922041Y-79107890D01*
X156922041Y-79107890D02*
X157074422Y-79069794D01*
X157074422Y-79069794D02*
X157264898Y-79069794D01*
X157264898Y-79069794D02*
X157417279Y-79107890D01*
X157417279Y-79107890D02*
X157493470Y-79145985D01*
X157493470Y-79145985D02*
X157531565Y-79184080D01*
X157531565Y-79184080D02*
X157569660Y-79260271D01*
D12*
X151386404Y-69985714D02*
X151767357Y-69719047D01*
X151386404Y-69528571D02*
X152186404Y-69528571D01*
X152186404Y-69528571D02*
X152186404Y-69833333D01*
X152186404Y-69833333D02*
X152148309Y-69909523D01*
X152148309Y-69909523D02*
X152110214Y-69947618D01*
X152110214Y-69947618D02*
X152034023Y-69985714D01*
X152034023Y-69985714D02*
X151919738Y-69985714D01*
X151919738Y-69985714D02*
X151843547Y-69947618D01*
X151843547Y-69947618D02*
X151805452Y-69909523D01*
X151805452Y-69909523D02*
X151767357Y-69833333D01*
X151767357Y-69833333D02*
X151767357Y-69528571D01*
X151386404Y-70747618D02*
X151386404Y-70290475D01*
X151386404Y-70519047D02*
X152186404Y-70519047D01*
X152186404Y-70519047D02*
X152072119Y-70442856D01*
X152072119Y-70442856D02*
X151995928Y-70366666D01*
X151995928Y-70366666D02*
X151957833Y-70290475D01*
X152186404Y-71014285D02*
X152186404Y-71547619D01*
X152186404Y-71547619D02*
X151386404Y-71204761D01*
D11*
X154099745Y-57485714D02*
X154061650Y-57447618D01*
X154061650Y-57447618D02*
X154023554Y-57333333D01*
X154023554Y-57333333D02*
X154023554Y-57257142D01*
X154023554Y-57257142D02*
X154061650Y-57142856D01*
X154061650Y-57142856D02*
X154137840Y-57066666D01*
X154137840Y-57066666D02*
X154214030Y-57028571D01*
X154214030Y-57028571D02*
X154366411Y-56990475D01*
X154366411Y-56990475D02*
X154480697Y-56990475D01*
X154480697Y-56990475D02*
X154633078Y-57028571D01*
X154633078Y-57028571D02*
X154709269Y-57066666D01*
X154709269Y-57066666D02*
X154785459Y-57142856D01*
X154785459Y-57142856D02*
X154823554Y-57257142D01*
X154823554Y-57257142D02*
X154823554Y-57333333D01*
X154823554Y-57333333D02*
X154785459Y-57447618D01*
X154785459Y-57447618D02*
X154747364Y-57485714D01*
X154023554Y-58247618D02*
X154023554Y-57790475D01*
X154023554Y-58019047D02*
X154823554Y-58019047D01*
X154823554Y-58019047D02*
X154709269Y-57942856D01*
X154709269Y-57942856D02*
X154633078Y-57866666D01*
X154633078Y-57866666D02*
X154594983Y-57790475D01*
X154023554Y-59009523D02*
X154023554Y-58552380D01*
X154023554Y-58780952D02*
X154823554Y-58780952D01*
X154823554Y-58780952D02*
X154709269Y-58704761D01*
X154709269Y-58704761D02*
X154633078Y-58628571D01*
X154633078Y-58628571D02*
X154594983Y-58552380D01*
X155213895Y-98235714D02*
X155175800Y-98197618D01*
X155175800Y-98197618D02*
X155137704Y-98083333D01*
X155137704Y-98083333D02*
X155137704Y-98007142D01*
X155137704Y-98007142D02*
X155175800Y-97892856D01*
X155175800Y-97892856D02*
X155251990Y-97816666D01*
X155251990Y-97816666D02*
X155328180Y-97778571D01*
X155328180Y-97778571D02*
X155480561Y-97740475D01*
X155480561Y-97740475D02*
X155594847Y-97740475D01*
X155594847Y-97740475D02*
X155747228Y-97778571D01*
X155747228Y-97778571D02*
X155823419Y-97816666D01*
X155823419Y-97816666D02*
X155899609Y-97892856D01*
X155899609Y-97892856D02*
X155937704Y-98007142D01*
X155937704Y-98007142D02*
X155937704Y-98083333D01*
X155937704Y-98083333D02*
X155899609Y-98197618D01*
X155899609Y-98197618D02*
X155861514Y-98235714D01*
X155137704Y-98997618D02*
X155137704Y-98540475D01*
X155137704Y-98769047D02*
X155937704Y-98769047D01*
X155937704Y-98769047D02*
X155823419Y-98692856D01*
X155823419Y-98692856D02*
X155747228Y-98616666D01*
X155747228Y-98616666D02*
X155709133Y-98540475D01*
X155937704Y-99683333D02*
X155937704Y-99530952D01*
X155937704Y-99530952D02*
X155899609Y-99454761D01*
X155899609Y-99454761D02*
X155861514Y-99416666D01*
X155861514Y-99416666D02*
X155747228Y-99340476D01*
X155747228Y-99340476D02*
X155594847Y-99302380D01*
X155594847Y-99302380D02*
X155290085Y-99302380D01*
X155290085Y-99302380D02*
X155213895Y-99340476D01*
X155213895Y-99340476D02*
X155175800Y-99378571D01*
X155175800Y-99378571D02*
X155137704Y-99454761D01*
X155137704Y-99454761D02*
X155137704Y-99607142D01*
X155137704Y-99607142D02*
X155175800Y-99683333D01*
X155175800Y-99683333D02*
X155213895Y-99721428D01*
X155213895Y-99721428D02*
X155290085Y-99759523D01*
X155290085Y-99759523D02*
X155480561Y-99759523D01*
X155480561Y-99759523D02*
X155556752Y-99721428D01*
X155556752Y-99721428D02*
X155594847Y-99683333D01*
X155594847Y-99683333D02*
X155632942Y-99607142D01*
X155632942Y-99607142D02*
X155632942Y-99454761D01*
X155632942Y-99454761D02*
X155594847Y-99378571D01*
X155594847Y-99378571D02*
X155556752Y-99340476D01*
X155556752Y-99340476D02*
X155480561Y-99302380D01*
X154109341Y-80672471D02*
X154071245Y-80710567D01*
X154071245Y-80710567D02*
X153956960Y-80748662D01*
X153956960Y-80748662D02*
X153880769Y-80748662D01*
X153880769Y-80748662D02*
X153766483Y-80710567D01*
X153766483Y-80710567D02*
X153690293Y-80634376D01*
X153690293Y-80634376D02*
X153652198Y-80558186D01*
X153652198Y-80558186D02*
X153614102Y-80405805D01*
X153614102Y-80405805D02*
X153614102Y-80291519D01*
X153614102Y-80291519D02*
X153652198Y-80139138D01*
X153652198Y-80139138D02*
X153690293Y-80062947D01*
X153690293Y-80062947D02*
X153766483Y-79986757D01*
X153766483Y-79986757D02*
X153880769Y-79948662D01*
X153880769Y-79948662D02*
X153956960Y-79948662D01*
X153956960Y-79948662D02*
X154071245Y-79986757D01*
X154071245Y-79986757D02*
X154109341Y-80024852D01*
X154566483Y-80291519D02*
X154490293Y-80253424D01*
X154490293Y-80253424D02*
X154452198Y-80215328D01*
X154452198Y-80215328D02*
X154414102Y-80139138D01*
X154414102Y-80139138D02*
X154414102Y-80101043D01*
X154414102Y-80101043D02*
X154452198Y-80024852D01*
X154452198Y-80024852D02*
X154490293Y-79986757D01*
X154490293Y-79986757D02*
X154566483Y-79948662D01*
X154566483Y-79948662D02*
X154718864Y-79948662D01*
X154718864Y-79948662D02*
X154795055Y-79986757D01*
X154795055Y-79986757D02*
X154833150Y-80024852D01*
X154833150Y-80024852D02*
X154871245Y-80101043D01*
X154871245Y-80101043D02*
X154871245Y-80139138D01*
X154871245Y-80139138D02*
X154833150Y-80215328D01*
X154833150Y-80215328D02*
X154795055Y-80253424D01*
X154795055Y-80253424D02*
X154718864Y-80291519D01*
X154718864Y-80291519D02*
X154566483Y-80291519D01*
X154566483Y-80291519D02*
X154490293Y-80329614D01*
X154490293Y-80329614D02*
X154452198Y-80367709D01*
X154452198Y-80367709D02*
X154414102Y-80443900D01*
X154414102Y-80443900D02*
X154414102Y-80596281D01*
X154414102Y-80596281D02*
X154452198Y-80672471D01*
X154452198Y-80672471D02*
X154490293Y-80710567D01*
X154490293Y-80710567D02*
X154566483Y-80748662D01*
X154566483Y-80748662D02*
X154718864Y-80748662D01*
X154718864Y-80748662D02*
X154795055Y-80710567D01*
X154795055Y-80710567D02*
X154833150Y-80672471D01*
X154833150Y-80672471D02*
X154871245Y-80596281D01*
X154871245Y-80596281D02*
X154871245Y-80443900D01*
X154871245Y-80443900D02*
X154833150Y-80367709D01*
X154833150Y-80367709D02*
X154795055Y-80329614D01*
X154795055Y-80329614D02*
X154718864Y-80291519D01*
D12*
X158636404Y-69985714D02*
X159017357Y-69719047D01*
X158636404Y-69528571D02*
X159436404Y-69528571D01*
X159436404Y-69528571D02*
X159436404Y-69833333D01*
X159436404Y-69833333D02*
X159398309Y-69909523D01*
X159398309Y-69909523D02*
X159360214Y-69947618D01*
X159360214Y-69947618D02*
X159284023Y-69985714D01*
X159284023Y-69985714D02*
X159169738Y-69985714D01*
X159169738Y-69985714D02*
X159093547Y-69947618D01*
X159093547Y-69947618D02*
X159055452Y-69909523D01*
X159055452Y-69909523D02*
X159017357Y-69833333D01*
X159017357Y-69833333D02*
X159017357Y-69528571D01*
X158636404Y-70747618D02*
X158636404Y-70290475D01*
X158636404Y-70519047D02*
X159436404Y-70519047D01*
X159436404Y-70519047D02*
X159322119Y-70442856D01*
X159322119Y-70442856D02*
X159245928Y-70366666D01*
X159245928Y-70366666D02*
X159207833Y-70290475D01*
X159436404Y-71433333D02*
X159436404Y-71280952D01*
X159436404Y-71280952D02*
X159398309Y-71204761D01*
X159398309Y-71204761D02*
X159360214Y-71166666D01*
X159360214Y-71166666D02*
X159245928Y-71090476D01*
X159245928Y-71090476D02*
X159093547Y-71052380D01*
X159093547Y-71052380D02*
X158788785Y-71052380D01*
X158788785Y-71052380D02*
X158712595Y-71090476D01*
X158712595Y-71090476D02*
X158674500Y-71128571D01*
X158674500Y-71128571D02*
X158636404Y-71204761D01*
X158636404Y-71204761D02*
X158636404Y-71357142D01*
X158636404Y-71357142D02*
X158674500Y-71433333D01*
X158674500Y-71433333D02*
X158712595Y-71471428D01*
X158712595Y-71471428D02*
X158788785Y-71509523D01*
X158788785Y-71509523D02*
X158979261Y-71509523D01*
X158979261Y-71509523D02*
X159055452Y-71471428D01*
X159055452Y-71471428D02*
X159093547Y-71433333D01*
X159093547Y-71433333D02*
X159131642Y-71357142D01*
X159131642Y-71357142D02*
X159131642Y-71204761D01*
X159131642Y-71204761D02*
X159093547Y-71128571D01*
X159093547Y-71128571D02*
X159055452Y-71090476D01*
X159055452Y-71090476D02*
X158979261Y-71052380D01*
D11*
X152137704Y-87366667D02*
X152518657Y-87100000D01*
X152137704Y-86909524D02*
X152937704Y-86909524D01*
X152937704Y-86909524D02*
X152937704Y-87214286D01*
X152937704Y-87214286D02*
X152899609Y-87290476D01*
X152899609Y-87290476D02*
X152861514Y-87328571D01*
X152861514Y-87328571D02*
X152785323Y-87366667D01*
X152785323Y-87366667D02*
X152671038Y-87366667D01*
X152671038Y-87366667D02*
X152594847Y-87328571D01*
X152594847Y-87328571D02*
X152556752Y-87290476D01*
X152556752Y-87290476D02*
X152518657Y-87214286D01*
X152518657Y-87214286D02*
X152518657Y-86909524D01*
X152937704Y-87633333D02*
X152937704Y-88166667D01*
X152937704Y-88166667D02*
X152137704Y-87823809D01*
X154775346Y-77953426D02*
X155156299Y-77686759D01*
X154775346Y-77496283D02*
X155575346Y-77496283D01*
X155575346Y-77496283D02*
X155575346Y-77801045D01*
X155575346Y-77801045D02*
X155537251Y-77877235D01*
X155537251Y-77877235D02*
X155499156Y-77915330D01*
X155499156Y-77915330D02*
X155422965Y-77953426D01*
X155422965Y-77953426D02*
X155308680Y-77953426D01*
X155308680Y-77953426D02*
X155232489Y-77915330D01*
X155232489Y-77915330D02*
X155194394Y-77877235D01*
X155194394Y-77877235D02*
X155156299Y-77801045D01*
X155156299Y-77801045D02*
X155156299Y-77496283D01*
X154775346Y-78715330D02*
X154775346Y-78258187D01*
X154775346Y-78486759D02*
X155575346Y-78486759D01*
X155575346Y-78486759D02*
X155461061Y-78410568D01*
X155461061Y-78410568D02*
X155384870Y-78334378D01*
X155384870Y-78334378D02*
X155346775Y-78258187D01*
X155308680Y-79401045D02*
X154775346Y-79401045D01*
X155613442Y-79210569D02*
X155042013Y-79020092D01*
X155042013Y-79020092D02*
X155042013Y-79515331D01*
X154009330Y-122191666D02*
X153295045Y-122191666D01*
X153295045Y-122191666D02*
X153152188Y-122144047D01*
X153152188Y-122144047D02*
X153056950Y-122048809D01*
X153056950Y-122048809D02*
X153009330Y-121905952D01*
X153009330Y-121905952D02*
X153009330Y-121810714D01*
X153009330Y-123191666D02*
X153009330Y-122620238D01*
X153009330Y-122905952D02*
X154009330Y-122905952D01*
X154009330Y-122905952D02*
X153866473Y-122810714D01*
X153866473Y-122810714D02*
X153771235Y-122715476D01*
X153771235Y-122715476D02*
X153723616Y-122620238D01*
%TO.C,R10*%
D13*
X166826833Y-85229076D02*
X167301349Y-85229076D01*
X166826833Y-86274076D02*
X167301349Y-86274076D01*
%TO.C,R11*%
X166832371Y-86835107D02*
X167306887Y-86835107D01*
X166832371Y-87880107D02*
X167306887Y-87880107D01*
%TO.C,C18*%
X159220850Y-58761252D02*
X159220850Y-58238748D01*
X157750850Y-58761252D02*
X157750850Y-58238748D01*
%TO.C,C2*%
X166145850Y-73461252D02*
X166145850Y-72038748D01*
X164325850Y-73461252D02*
X164325850Y-72038748D01*
%TO.C,C5*%
X167645850Y-91961252D02*
X167645850Y-90538748D01*
X165825850Y-91961252D02*
X165825850Y-90538748D01*
%TO.C,C19*%
X161205403Y-75702127D02*
X161205403Y-77124631D01*
X159385403Y-75702127D02*
X159385403Y-77124631D01*
%TO.C,R3*%
X153206426Y-90328705D02*
X153206426Y-90803221D01*
X154251426Y-90328705D02*
X154251426Y-90803221D01*
%TO.C,C4*%
X153218926Y-93499725D02*
X153218926Y-93780885D01*
X154238926Y-93499725D02*
X154238926Y-93780885D01*
%TO.C,C20*%
X165461252Y-67590000D02*
X164038748Y-67590000D01*
X165461252Y-69410000D02*
X164038748Y-69410000D01*
%TO.C,R1*%
X159470850Y-98977064D02*
X159470850Y-98522936D01*
X158000850Y-98977064D02*
X158000850Y-98522936D01*
%TO.C,U3*%
X161785850Y-89240000D02*
X161545850Y-88910000D01*
X162025850Y-88910000D01*
X161785850Y-89240000D01*
G36*
X161785850Y-89240000D02*
G01*
X161545850Y-88910000D01*
X162025850Y-88910000D01*
X161785850Y-89240000D01*
G37*
X164145850Y-92310000D02*
X162325850Y-92310000D01*
X164145850Y-92260000D02*
X164145850Y-92310000D01*
X164145850Y-90360000D02*
X164145850Y-91140000D01*
X164145850Y-89190000D02*
X164145850Y-89240000D01*
X162325850Y-92310000D02*
X162325850Y-92260000D01*
X162325850Y-89240000D02*
X162325850Y-89190000D01*
X162325850Y-89190000D02*
X164145850Y-89190000D01*
%TO.C,R12*%
X155710434Y-94578339D02*
X155710434Y-95052855D01*
X156755434Y-94578339D02*
X156755434Y-95052855D01*
%TO.C,R19*%
X157213350Y-68237258D02*
X157213350Y-67762742D01*
X158258350Y-68237258D02*
X158258350Y-67762742D01*
%TO.C,C6*%
X167325850Y-96936252D02*
X167325850Y-95513748D01*
X169145850Y-96936252D02*
X169145850Y-95513748D01*
%TO.C,C14*%
X158063665Y-63341576D02*
X156641161Y-63341576D01*
X158063665Y-65161576D02*
X156641161Y-65161576D01*
%TO.C,U2*%
D14*
X167606750Y-75504200D02*
X163364950Y-75504200D01*
X163364950Y-84495800D02*
X167606750Y-84495800D01*
D15*
G36*
X169448250Y-81460500D02*
G01*
X169194250Y-81460500D01*
X169194250Y-81079500D01*
X169448250Y-81079500D01*
X169448250Y-81460500D01*
G37*
%TO.C,R2*%
D13*
X158998592Y-92272500D02*
X159473108Y-92272500D01*
X158998592Y-91227500D02*
X159473108Y-91227500D01*
%TO.C,R13*%
X155713350Y-91512742D02*
X155713350Y-91987258D01*
X156758350Y-91512742D02*
X156758350Y-91987258D01*
%TO.C,U1*%
D14*
X163166951Y-87009345D02*
X163166951Y-85984055D01*
X160804751Y-85984055D02*
X160804751Y-87009345D01*
X162837451Y-84587000D02*
G75*
G02*
X162634251Y-84587000I-101600J0D01*
G01*
X162634251Y-84587000D02*
G75*
G02*
X162837451Y-84587000I101600J0D01*
G01*
%TO.C,D2*%
D13*
X159875850Y-96250000D02*
X163885850Y-96250000D01*
X159875850Y-94250000D02*
X163885850Y-94250000D01*
X159875850Y-94250000D02*
X159875850Y-96250000D01*
%TO.C,C10*%
X165220850Y-86961252D02*
X165220850Y-86438748D01*
X163750850Y-86961252D02*
X163750850Y-86438748D01*
%TO.C,R8*%
X165713350Y-96987258D02*
X165713350Y-96512742D01*
X166758350Y-96987258D02*
X166758350Y-96512742D01*
%TO.C,D3*%
X158463350Y-52765000D02*
X158463350Y-54235000D01*
X158463350Y-54235000D02*
X160748350Y-54235000D01*
X160748350Y-52765000D02*
X158463350Y-52765000D01*
%TO.C,R4*%
X156498592Y-54022500D02*
X156973108Y-54022500D01*
X156498592Y-52977500D02*
X156973108Y-52977500D01*
%TO.C,TP7*%
X151000000Y-66000000D02*
G75*
G02*
X148000000Y-66000000I-1500000J0D01*
G01*
X148000000Y-66000000D02*
G75*
G02*
X151000000Y-66000000I1500000J0D01*
G01*
%TO.C,C1*%
X160668008Y-73585499D02*
X162090512Y-73585499D01*
X160668008Y-71765499D02*
X162090512Y-71765499D01*
%TO.C,R5*%
X154758350Y-78262742D02*
X154758350Y-78737258D01*
X153713350Y-78262742D02*
X153713350Y-78737258D01*
%TO.C,U6*%
D14*
X153114950Y-76628900D02*
X157356750Y-76628900D01*
X157356750Y-71371100D02*
X153114950Y-71371100D01*
%TO.C,D1*%
D13*
X164595850Y-98750000D02*
X164595850Y-96750000D01*
X164595850Y-98750000D02*
X160585850Y-98750000D01*
X164595850Y-96750000D02*
X160585850Y-96750000D01*
%TO.C,FB2*%
X160090315Y-65463523D02*
X160090315Y-66262767D01*
X161210315Y-65463523D02*
X161210315Y-66262767D01*
%TO.C,R18*%
X152213350Y-67762742D02*
X152213350Y-68237258D01*
X153258350Y-67762742D02*
X153258350Y-68237258D01*
%TO.C,C17*%
X168970850Y-73238748D02*
X168970850Y-73761252D01*
X167500850Y-73238748D02*
X167500850Y-73761252D01*
%TO.C,U5*%
D14*
X161814850Y-64023640D02*
X161814850Y-64622100D01*
X167656850Y-54476362D02*
X167656850Y-53877900D01*
X167656850Y-64622100D02*
X167656850Y-64023640D01*
X161814850Y-64622100D02*
X167656850Y-64622100D01*
X161814850Y-53877900D02*
X161814850Y-54476360D01*
X167656850Y-53877900D02*
X161814850Y-53877900D01*
D15*
G36*
X160024150Y-58465501D02*
G01*
X159770150Y-58465501D01*
X159770150Y-58084501D01*
X160024150Y-58084501D01*
X160024150Y-58465501D01*
G37*
G36*
X169701550Y-57815502D02*
G01*
X169447550Y-57815502D01*
X169447550Y-57434502D01*
X169701550Y-57434502D01*
X169701550Y-57815502D01*
G37*
%TO.C,C7*%
D13*
X157645850Y-82038748D02*
X157645850Y-83461252D01*
X155825850Y-82038748D02*
X155825850Y-83461252D01*
%TO.C,U4*%
X154725850Y-88700000D02*
X154395850Y-88940000D01*
X154395850Y-88460000D01*
X154725850Y-88700000D01*
G36*
X154725850Y-88700000D02*
G01*
X154395850Y-88940000D01*
X154395850Y-88460000D01*
X154725850Y-88700000D01*
G37*
X157795850Y-86340000D02*
X157795850Y-88160000D01*
X157745850Y-86340000D02*
X157795850Y-86340000D01*
X155845850Y-86340000D02*
X156625850Y-86340000D01*
X154675850Y-86340000D02*
X154725850Y-86340000D01*
X157795850Y-88160000D02*
X157745850Y-88160000D01*
X154725850Y-88160000D02*
X154675850Y-88160000D01*
X154675850Y-88160000D02*
X154675850Y-86340000D01*
%TO.C,C15*%
X158222102Y-60840000D02*
X156799598Y-60840000D01*
X158222102Y-62660000D02*
X156799598Y-62660000D01*
%TO.C,C12*%
X158970850Y-94561252D02*
X158970850Y-94038748D01*
X157500850Y-94561252D02*
X157500850Y-94038748D01*
%TO.C,R9*%
X158213350Y-81737742D02*
X158213350Y-82212258D01*
X159258350Y-81737742D02*
X159258350Y-82212258D01*
%TO.C,C13*%
X155376430Y-66740000D02*
X155095270Y-66740000D01*
X155376430Y-67760000D02*
X155095270Y-67760000D01*
%TO.C,C9*%
X158325850Y-85763748D02*
X158325850Y-87186252D01*
X160145850Y-85763748D02*
X160145850Y-87186252D01*
%TO.C,R6*%
X168213350Y-92012742D02*
X168213350Y-92487258D01*
X169258350Y-92012742D02*
X169258350Y-92487258D01*
%TO.C,FB1*%
X167690000Y-66850378D02*
X167690000Y-67649622D01*
X168810000Y-66850378D02*
X168810000Y-67649622D01*
%TO.C,C3*%
X161583208Y-92788470D02*
X161302048Y-92788470D01*
X161583208Y-93808470D02*
X161302048Y-93808470D01*
%TO.C,R20*%
X157477500Y-78737258D02*
X157477500Y-78262742D01*
X158522500Y-78737258D02*
X158522500Y-78262742D01*
%TO.C,R17*%
X153262742Y-71022500D02*
X153737258Y-71022500D01*
X153262742Y-69977500D02*
X153737258Y-69977500D01*
%TO.C,C11*%
X157145850Y-58711252D02*
X157145850Y-57288748D01*
X155325850Y-58711252D02*
X155325850Y-57288748D01*
%TO.C,C16*%
X157245850Y-98890580D02*
X157245850Y-98609420D01*
X156225850Y-98890580D02*
X156225850Y-98609420D01*
%TO.C,C8*%
X153325850Y-82038748D02*
X153325850Y-83461252D01*
X155145850Y-82038748D02*
X155145850Y-83461252D01*
%TO.C,R16*%
X157167754Y-70860597D02*
X156693238Y-70860597D01*
X157167754Y-69815597D02*
X156693238Y-69815597D01*
%TO.C,R7*%
X153213350Y-87262742D02*
X153213350Y-87737258D01*
X154258350Y-87262742D02*
X154258350Y-87737258D01*
%TO.C,J2*%
D16*
X174668000Y-47825000D02*
X177078000Y-47825000D01*
X174668000Y-124535000D02*
X174668000Y-47825000D01*
X177078000Y-124535000D02*
X174668000Y-124535000D01*
X177078000Y-124535000D02*
X177078000Y-47825000D01*
X189908000Y-47825000D02*
X189908000Y-124535000D01*
X189908000Y-47825000D02*
X192318000Y-47825000D01*
X192318000Y-47825000D02*
X192318000Y-124535000D01*
X192318000Y-124535000D02*
X189908000Y-124535000D01*
X175973000Y-47175000D02*
G75*
G02*
X175773000Y-47175000I-100000J0D01*
G01*
X175773000Y-47175000D02*
G75*
G02*
X175973000Y-47175000I100000J0D01*
G01*
X191213000Y-125185000D02*
G75*
G02*
X191013000Y-125185000I-100000J0D01*
G01*
X191013000Y-125185000D02*
G75*
G02*
X191213000Y-125185000I100000J0D01*
G01*
%TO.C,R14*%
D13*
X156772500Y-78262742D02*
X156772500Y-78737258D01*
X155727500Y-78262742D02*
X155727500Y-78737258D01*
%TO.C,J1*%
X154840000Y-118415000D02*
X162660000Y-118415000D01*
X162660000Y-126235000D01*
X154840000Y-126235000D01*
X154840000Y-118415000D01*
X162135000Y-122325000D02*
X162635000Y-122825000D01*
X162635000Y-121825000D02*
X162135000Y-122325000D01*
%TO.C,TP11*%
X151000000Y-79500000D02*
G75*
G02*
X148000000Y-79500000I-1500000J0D01*
G01*
X148000000Y-79500000D02*
G75*
G02*
X151000000Y-79500000I1500000J0D01*
G01*
%TO.C,TP3*%
X151000000Y-93000000D02*
G75*
G02*
X148000000Y-93000000I-1500000J0D01*
G01*
X148000000Y-93000000D02*
G75*
G02*
X151000000Y-93000000I1500000J0D01*
G01*
%TO.C,TP6*%
X151000000Y-57000000D02*
G75*
G02*
X148000000Y-57000000I-1500000J0D01*
G01*
X148000000Y-57000000D02*
G75*
G02*
X151000000Y-57000000I1500000J0D01*
G01*
%TO.C,TP2*%
X151000000Y-106500000D02*
G75*
G02*
X148000000Y-106500000I-1500000J0D01*
G01*
X148000000Y-106500000D02*
G75*
G02*
X151000000Y-106500000I1500000J0D01*
G01*
%TO.C,TP4*%
X151000000Y-88500000D02*
G75*
G02*
X148000000Y-88500000I-1500000J0D01*
G01*
X148000000Y-88500000D02*
G75*
G02*
X151000000Y-88500000I1500000J0D01*
G01*
%TO.C,TP8*%
X151000000Y-111000000D02*
G75*
G02*
X148000000Y-111000000I-1500000J0D01*
G01*
X148000000Y-111000000D02*
G75*
G02*
X151000000Y-111000000I1500000J0D01*
G01*
%TO.C,TP9*%
X151000000Y-97500000D02*
G75*
G02*
X148000000Y-97500000I-1500000J0D01*
G01*
X148000000Y-97500000D02*
G75*
G02*
X151000000Y-97500000I1500000J0D01*
G01*
%TO.C,TP10*%
X151000000Y-61500000D02*
G75*
G02*
X148000000Y-61500000I-1500000J0D01*
G01*
X148000000Y-61500000D02*
G75*
G02*
X151000000Y-61500000I1500000J0D01*
G01*
%TO.C,TP13*%
X151000000Y-75000000D02*
G75*
G02*
X148000000Y-75000000I-1500000J0D01*
G01*
X148000000Y-75000000D02*
G75*
G02*
X151000000Y-75000000I1500000J0D01*
G01*
%TO.C,TP1*%
X151000000Y-84000000D02*
G75*
G02*
X148000000Y-84000000I-1500000J0D01*
G01*
X148000000Y-84000000D02*
G75*
G02*
X151000000Y-84000000I1500000J0D01*
G01*
%TO.C,TP5*%
X151000000Y-115500000D02*
G75*
G02*
X148000000Y-115500000I-1500000J0D01*
G01*
X148000000Y-115500000D02*
G75*
G02*
X151000000Y-115500000I1500000J0D01*
G01*
%TO.C,TP12*%
X151000000Y-70500000D02*
G75*
G02*
X148000000Y-70500000I-1500000J0D01*
G01*
X148000000Y-70500000D02*
G75*
G02*
X151000000Y-70500000I1500000J0D01*
G01*
%TO.C,TP14*%
X151000000Y-102000000D02*
G75*
G02*
X148000000Y-102000000I-1500000J0D01*
G01*
X148000000Y-102000000D02*
G75*
G02*
X151000000Y-102000000I1500000J0D01*
G01*
%TD*%
%LPC*%
D17*
%TO.C,R10*%
X166239091Y-85751576D03*
X167889091Y-85751576D03*
%TD*%
%TO.C,R11*%
X166244629Y-87357607D03*
X167894629Y-87357607D03*
%TD*%
D18*
%TO.C,C18*%
X158485850Y-57550000D03*
X158485850Y-59450000D03*
%TD*%
D19*
%TO.C,C2*%
X165235850Y-71275000D03*
X165235850Y-74225000D03*
%TD*%
%TO.C,C5*%
X166735850Y-89775000D03*
X166735850Y-92725000D03*
%TD*%
D20*
%TO.C,C19*%
X160295403Y-74938379D03*
X160295403Y-77888379D03*
%TD*%
D21*
%TO.C,R3*%
X153728926Y-91390963D03*
X153728926Y-89740963D03*
%TD*%
D22*
%TO.C,C4*%
X153728926Y-94415305D03*
X153728926Y-92865305D03*
%TD*%
D23*
%TO.C,C20*%
X163275000Y-68500000D03*
X166225000Y-68500000D03*
%TD*%
D24*
%TO.C,R1*%
X158735850Y-97837500D03*
X158735850Y-99662500D03*
%TD*%
D25*
%TO.C,U3*%
X164373350Y-89800000D03*
X164373350Y-91700000D03*
X162098350Y-91700000D03*
X162098350Y-90750000D03*
X162098350Y-89800000D03*
%TD*%
D21*
%TO.C,R12*%
X156232934Y-95640597D03*
X156232934Y-93990597D03*
%TD*%
D26*
%TO.C,R19*%
X157735850Y-68825000D03*
X157735850Y-67175000D03*
%TD*%
D19*
%TO.C,C6*%
X168235850Y-97700000D03*
X168235850Y-94750000D03*
%TD*%
D23*
%TO.C,C14*%
X155877413Y-64251576D03*
X158827413Y-64251576D03*
%TD*%
D27*
%TO.C,U2*%
X168210000Y-76190000D03*
X168210000Y-77460000D03*
X168210000Y-78730000D03*
X168210000Y-80000000D03*
X168210000Y-81270000D03*
X168210000Y-82540000D03*
X168210000Y-83810000D03*
X162761700Y-83810000D03*
X162761700Y-82540000D03*
X162761700Y-81270000D03*
X162761700Y-80000000D03*
X162761700Y-78730000D03*
X162761700Y-77460000D03*
X162761700Y-76190000D03*
%TD*%
D17*
%TO.C,R2*%
X160060850Y-91750000D03*
X158410850Y-91750000D03*
%TD*%
D21*
%TO.C,R13*%
X156235850Y-92575000D03*
X156235850Y-90925000D03*
%TD*%
D28*
%TO.C,U1*%
X161985851Y-86496700D03*
D29*
X162735852Y-87500000D03*
X162235851Y-87500000D03*
X161735851Y-87500000D03*
X161235850Y-87500000D03*
X161235850Y-85493400D03*
X161735851Y-85493400D03*
X162235851Y-85493400D03*
X162735852Y-85493400D03*
%TD*%
D30*
%TO.C,D2*%
X163885850Y-95250000D03*
X160585850Y-95250000D03*
%TD*%
D18*
%TO.C,C10*%
X164485850Y-85750000D03*
X164485850Y-87650000D03*
%TD*%
D26*
%TO.C,R8*%
X166235850Y-97575000D03*
X166235850Y-95925000D03*
%TD*%
D31*
%TO.C,D3*%
X159160850Y-53500000D03*
X160735850Y-53500000D03*
%TD*%
D17*
%TO.C,R4*%
X157560850Y-53500000D03*
X155910850Y-53500000D03*
%TD*%
D32*
%TO.C,TP7*%
X149500000Y-66000000D03*
%TD*%
D33*
%TO.C,C1*%
X162854260Y-72675499D03*
X159904260Y-72675499D03*
%TD*%
D21*
%TO.C,R5*%
X154235850Y-77675000D03*
X154235850Y-79325000D03*
%TD*%
D34*
%TO.C,U6*%
X152772050Y-75905000D03*
X152772050Y-74635000D03*
X152772050Y-73365000D03*
X152772050Y-72095000D03*
X157699650Y-72095000D03*
X157699650Y-73365000D03*
X157699650Y-74635000D03*
X157699650Y-75905000D03*
%TD*%
D35*
%TO.C,D1*%
X163885850Y-97750000D03*
X160585850Y-97750000D03*
%TD*%
D36*
%TO.C,FB2*%
X160650315Y-66925645D03*
X160650315Y-64800645D03*
%TD*%
D21*
%TO.C,R18*%
X152735850Y-68825000D03*
X152735850Y-67175000D03*
%TD*%
D37*
%TO.C,C17*%
X168235850Y-72550000D03*
X168235850Y-74450000D03*
%TD*%
D38*
%TO.C,U5*%
X161103650Y-63475000D03*
X161103650Y-62824999D03*
X161103650Y-62175000D03*
X161103650Y-61524999D03*
X161103650Y-60875001D03*
X161103650Y-60224999D03*
X161103650Y-59575001D03*
X161103650Y-58924999D03*
X161103650Y-58275001D03*
X161103650Y-57624999D03*
X161103650Y-56975001D03*
X161103650Y-56325000D03*
X161103650Y-55675001D03*
X161103650Y-55025000D03*
X168368050Y-55025002D03*
X168368050Y-55675001D03*
X168368050Y-56325002D03*
X168368050Y-56975001D03*
X168368050Y-57625002D03*
X168368050Y-58275001D03*
X168368050Y-58925002D03*
X168368050Y-59575001D03*
X168368050Y-60224999D03*
X168368050Y-60875001D03*
X168368050Y-61524999D03*
X168368050Y-62175000D03*
X168368050Y-62824999D03*
X168368050Y-63475000D03*
%TD*%
D20*
%TO.C,C7*%
X156735850Y-81275000D03*
X156735850Y-84225000D03*
%TD*%
D39*
%TO.C,U4*%
X155285850Y-86112500D03*
X157185850Y-86112500D03*
X157185850Y-88387500D03*
X156235850Y-88387500D03*
X155285850Y-88387500D03*
%TD*%
D23*
%TO.C,C15*%
X156035850Y-61750000D03*
X158985850Y-61750000D03*
%TD*%
D18*
%TO.C,C12*%
X158235850Y-93350000D03*
X158235850Y-95250000D03*
%TD*%
D21*
%TO.C,R9*%
X158735850Y-82800000D03*
X158735850Y-81150000D03*
%TD*%
D40*
%TO.C,C13*%
X154460850Y-67250000D03*
X156010850Y-67250000D03*
%TD*%
D20*
%TO.C,C9*%
X159235850Y-87950000D03*
X159235850Y-85000000D03*
%TD*%
D21*
%TO.C,R6*%
X168735850Y-93075000D03*
X168735850Y-91425000D03*
%TD*%
D36*
%TO.C,FB1*%
X168250000Y-68312500D03*
X168250000Y-66187500D03*
%TD*%
D40*
%TO.C,C3*%
X160667628Y-93298470D03*
X162217628Y-93298470D03*
%TD*%
D26*
%TO.C,R20*%
X158000000Y-79325000D03*
X158000000Y-77675000D03*
%TD*%
D17*
%TO.C,R17*%
X154325000Y-70500000D03*
X152675000Y-70500000D03*
%TD*%
D19*
%TO.C,C11*%
X156235850Y-56525000D03*
X156235850Y-59475000D03*
%TD*%
D41*
%TO.C,C16*%
X156735850Y-97975000D03*
X156735850Y-99525000D03*
%TD*%
D20*
%TO.C,C8*%
X154235850Y-84225000D03*
X154235850Y-81275000D03*
%TD*%
D42*
%TO.C,R16*%
X157755496Y-70338097D03*
X156105496Y-70338097D03*
%TD*%
D21*
%TO.C,R7*%
X153735850Y-88325000D03*
X153735850Y-86675000D03*
%TD*%
D43*
%TO.C,J2*%
X175746000Y-49350000D03*
D44*
X176000000Y-51890000D03*
X175746000Y-54430000D03*
X176000000Y-56970000D03*
X175746000Y-59510000D03*
X176000000Y-62050000D03*
X175746000Y-64590000D03*
X176000000Y-67130000D03*
X175746000Y-69670000D03*
X176000000Y-72210000D03*
X175746000Y-74750000D03*
X176000000Y-77290000D03*
X175746000Y-79830000D03*
X176000000Y-82370000D03*
X175746000Y-84910000D03*
X176000000Y-87450000D03*
X175746000Y-89990000D03*
X176000000Y-92530000D03*
X175746000Y-95070000D03*
X176000000Y-97610000D03*
X175746000Y-100150000D03*
X176000000Y-102690000D03*
X175746000Y-105230000D03*
X176000000Y-107770000D03*
X175746000Y-110310000D03*
X176000000Y-112850000D03*
X175746000Y-115390000D03*
X176000000Y-117930000D03*
X175746000Y-120470000D03*
X176000000Y-123010000D03*
D45*
X191240000Y-123010000D03*
D44*
X190986000Y-120470000D03*
X191240000Y-117930000D03*
X190986000Y-115390000D03*
X191240000Y-112850000D03*
X190986000Y-110310000D03*
X191240000Y-107770000D03*
X190986000Y-105230000D03*
X191240000Y-102690000D03*
X190986000Y-100150000D03*
X191240000Y-97610000D03*
X190986000Y-95070000D03*
X191240000Y-92530000D03*
X190986000Y-89990000D03*
X191240000Y-87450000D03*
X190986000Y-84910000D03*
X191240000Y-82370000D03*
X190986000Y-79830000D03*
X191240000Y-77290000D03*
X190986000Y-74750000D03*
X191240000Y-72210000D03*
X190986000Y-69670000D03*
X191240000Y-67130000D03*
X190986000Y-64590000D03*
X191240000Y-62050000D03*
X190986000Y-59510000D03*
X191240000Y-56970000D03*
X190986000Y-54430000D03*
X191240000Y-51890000D03*
X190986000Y-49350000D03*
%TD*%
D21*
%TO.C,R14*%
X156250000Y-77675000D03*
X156250000Y-79325000D03*
%TD*%
D46*
%TO.C,J1*%
X156200000Y-119775000D03*
X156200000Y-124875000D03*
X161300000Y-119775000D03*
X161300000Y-124875000D03*
D47*
X158750000Y-122325000D03*
%TD*%
D32*
%TO.C,TP11*%
X149500000Y-79500000D03*
%TD*%
%TO.C,TP3*%
X149500000Y-93000000D03*
%TD*%
%TO.C,TP6*%
X149500000Y-57000000D03*
%TD*%
%TO.C,TP2*%
X149500000Y-106500000D03*
%TD*%
%TO.C,TP4*%
X149500000Y-88500000D03*
%TD*%
%TO.C,TP8*%
X149500000Y-111000000D03*
%TD*%
%TO.C,TP9*%
X149500000Y-97500000D03*
%TD*%
%TO.C,TP10*%
X149500000Y-61500000D03*
%TD*%
%TO.C,TP13*%
X149500000Y-75000000D03*
%TD*%
%TO.C,TP1*%
X149500000Y-84000000D03*
%TD*%
%TO.C,TP5*%
X149500000Y-115500000D03*
%TD*%
%TO.C,TP12*%
X149500000Y-70500000D03*
%TD*%
%TO.C,TP14*%
X149500000Y-102000000D03*
%TD*%
D48*
%TO.C,REF\u002A\u002A*%
X147750000Y-123250000D03*
%TD*%
%TO.C,REF\u002A\u002A*%
X196250000Y-123250000D03*
%TD*%
%TO.C,REF\u002A\u002A*%
X196250000Y-49250000D03*
%TD*%
%TO.C,REF\u002A\u002A*%
X147750000Y-49250000D03*
%TD*%
%LPD*%
M02*
