%TF.GenerationSoftware,KiCad,Pcbnew,10.0.5*%
%TF.CreationDate,2026-08-18T22:05:46-06:00*%
%TF.ProjectId,ADC_and_amplifier_pico_breakout_board,4144435f-616e-4645-9f61-6d706c696669,rev?*%
%TF.SameCoordinates,Original*%
%TF.FileFunction,Copper,L4,Bot*%
%TF.FilePolarity,Positive*%
%FSLAX46Y46*%
G04 Gerber Fmt 4.6, Leading zero omitted, Abs format (unit mm)*
G04 Created by KiCad (PCBNEW 10.0.5) date 2026-08-18 22:05:46*
%MOMM*%
%LPD*%
G01*
G04 APERTURE LIST*
G04 Aperture macros list*
%AMRoundRect*
0 Rectangle with rounded corners*
0 $1 Rounding radius*
0 $2 $3 $4 $5 $6 $7 $8 $9 X,Y pos of 4 corners*
0 Add a 4 corners polygon primitive as box body*
4,1,4,$2,$3,$4,$5,$6,$7,$8,$9,$2,$3,0*
0 Add four circle primitives for the rounded corners*
1,1,$1+$1,$2,$3*
1,1,$1+$1,$4,$5*
1,1,$1+$1,$6,$7*
1,1,$1+$1,$8,$9*
0 Add four rect primitives between the rounded corners*
20,1,$1+$1,$2,$3,$4,$5,0*
20,1,$1+$1,$4,$5,$6,$7,0*
20,1,$1+$1,$6,$7,$8,$9,0*
20,1,$1+$1,$8,$9,$2,$3,0*%
G04 Aperture macros list end*
%TA.AperFunction,ComponentPad*%
%ADD10C,2.000000*%
%TD*%
%TA.AperFunction,ComponentPad*%
%ADD11R,1.370000X1.370000*%
%TD*%
%TA.AperFunction,ComponentPad*%
%ADD12C,1.370000*%
%TD*%
%TA.AperFunction,ComponentPad*%
%ADD13C,2.200000*%
%TD*%
%TA.AperFunction,ComponentPad*%
%ADD14RoundRect,0.200100X0.949900X0.949900X-0.949900X0.949900X-0.949900X-0.949900X0.949900X-0.949900X0*%
%TD*%
%TA.AperFunction,ViaPad*%
%ADD15C,0.600000*%
%TD*%
%TA.AperFunction,Conductor*%
%ADD16C,0.250000*%
%TD*%
G04 APERTURE END LIST*
D10*
%TO.P,TP7,1,1_1*%
%TO.N,+5V*%
X149500000Y-66000000D03*
%TD*%
D11*
%TO.P,J2,01,GP0_RX_01*%
%TO.N,Net-(J2-GP0_RX)*%
X175746000Y-49350000D03*
D12*
%TO.P,J2,02,GP1_CSn_02*%
%TO.N,Net-(J2-GP1_CSn)*%
X176000000Y-51890000D03*
%TO.P,J2,03,GND_03*%
%TO.N,GND*%
X175746000Y-54430000D03*
%TO.P,J2,04,GP2_SCK_04*%
%TO.N,Net-(J2-GP2_SCK)*%
X176000000Y-56970000D03*
%TO.P,J2,05,GP3_TX_05*%
%TO.N,Net-(J2-GP3_TX)*%
X175746000Y-59510000D03*
%TO.P,J2,06,GP4_RX_06*%
%TO.N,Net-(J2-GP4_RX)*%
X176000000Y-62050000D03*
%TO.P,J2,07,GP5_CSn_07*%
%TO.N,Net-(J2-GP5_CSn)*%
X175746000Y-64590000D03*
%TO.P,J2,08,GND_08*%
%TO.N,GND*%
X176000000Y-67130000D03*
%TO.P,J2,09,GP6_SCK_09*%
%TO.N,Net-(J2-GP6_SCK)*%
X175746000Y-69670000D03*
%TO.P,J2,10,GP7_TX_10*%
%TO.N,Net-(J2-GP7_TX)*%
X176000000Y-72210000D03*
%TO.P,J2,11,GP8_RX_11*%
%TO.N,Net-(J2-GP8_RX)*%
X175746000Y-74750000D03*
%TO.P,J2,12,GP9_CSn_12*%
%TO.N,Net-(J2-GP9_CSn)*%
X176000000Y-77290000D03*
%TO.P,J2,13,GND_13*%
%TO.N,GND*%
X175746000Y-79830000D03*
%TO.P,J2,14,GP10_SCK_14*%
%TO.N,Net-(J2-GP10_SCK)*%
X176000000Y-82370000D03*
%TO.P,J2,15,GP11_TX_15*%
%TO.N,Net-(J2-GP11_TX)*%
X175746000Y-84910000D03*
%TO.P,J2,16,GP12_RX_16*%
%TO.N,Net-(J2-GP12_RX)*%
X176000000Y-87450000D03*
%TO.P,J2,17,GP13_CSn_17*%
%TO.N,Net-(J2-GP13_CSn)*%
X175746000Y-89990000D03*
%TO.P,J2,18,GND_18*%
%TO.N,GND*%
X176000000Y-92530000D03*
%TO.P,J2,19,GP14_SCK_19*%
%TO.N,Net-(J2-GP14_SCK)*%
X175746000Y-95070000D03*
%TO.P,J2,20,GP15_TX_20*%
%TO.N,Net-(J2-GP15_TX)*%
X176000000Y-97610000D03*
%TO.P,J2,21,3V3_21*%
%TO.N,Net-(FB2-Pad2)*%
X175746000Y-100150000D03*
%TO.P,J2,22,GP31_TX_22*%
%TO.N,unconnected-(J2-GP31_TX-Pad22)*%
X176000000Y-102690000D03*
%TO.P,J2,23,GND_23*%
%TO.N,GND*%
X175746000Y-105230000D03*
%TO.P,J2,24,GP32_RX_24*%
%TO.N,unconnected-(J2-GP32_RX-Pad24)*%
X176000000Y-107770000D03*
%TO.P,J2,25,GP33_CSn_25*%
%TO.N,unconnected-(J2-GP33_CSn-Pad25)*%
X175746000Y-110310000D03*
%TO.P,J2,26,GP34_SCK_26*%
%TO.N,unconnected-(J2-GP34_SCK-Pad26)*%
X176000000Y-112850000D03*
%TO.P,J2,27,GP35_TX_27*%
%TO.N,unconnected-(J2-GP35_TX-Pad27)*%
X175746000Y-115390000D03*
%TO.P,J2,28,GND_28*%
%TO.N,GND*%
X176000000Y-117930000D03*
%TO.P,J2,29,GP36_RX_29*%
%TO.N,unconnected-(J2-GP36_RX-Pad29)*%
X175746000Y-120470000D03*
%TO.P,J2,30,GP37_CSn_30*%
%TO.N,unconnected-(J2-GP37_CSn-Pad30)*%
X176000000Y-123010000D03*
D11*
%TO.P,J2,31,GP38_SCK_31*%
%TO.N,unconnected-(J2-GP38_SCK-Pad31)*%
X191240000Y-123010000D03*
D12*
%TO.P,J2,32,GP39_TX_32*%
%TO.N,unconnected-(J2-GP39_TX-Pad32)*%
X190986000Y-120470000D03*
%TO.P,J2,33,GND_33*%
%TO.N,GND*%
X191240000Y-117930000D03*
%TO.P,J2,34,NC_34*%
%TO.N,unconnected-(J2-NC-Pad34)*%
X190986000Y-115390000D03*
%TO.P,J2,35,GP44_RX_35*%
%TO.N,unconnected-(J2-GP44_RX-Pad35)*%
X191240000Y-112850000D03*
%TO.P,J2,36,GP45_CSn_36*%
%TO.N,unconnected-(J2-GP45_CSn-Pad36)*%
X190986000Y-110310000D03*
%TO.P,J2,37,GP46_SCK_37*%
%TO.N,unconnected-(J2-GP46_SCK-Pad37)*%
X191240000Y-107770000D03*
%TO.P,J2,38,GND_38*%
%TO.N,GND*%
X190986000Y-105230000D03*
%TO.P,J2,39,NC_39*%
%TO.N,unconnected-(J2-NC-Pad39)*%
X191240000Y-102690000D03*
%TO.P,J2,40,GP30_BOOT_40*%
%TO.N,unconnected-(J2-GP30_BOOT-Pad40)*%
X190986000Y-100150000D03*
%TO.P,J2,41,GP16_RX_41*%
%TO.N,unconnected-(J2-GP16_RX-Pad41)*%
X191240000Y-97610000D03*
%TO.P,J2,42,GP17_CSn_42*%
%TO.N,unconnected-(J2-GP17_CSn-Pad42)*%
X190986000Y-95070000D03*
%TO.P,J2,43,GND_43*%
%TO.N,GND*%
X191240000Y-92530000D03*
%TO.P,J2,44,GP18_SCK_44*%
%TO.N,unconnected-(J2-GP18_SCK-Pad44)*%
X190986000Y-89990000D03*
%TO.P,J2,45,GP19_TX_45*%
%TO.N,unconnected-(J2-GP19_TX-Pad45)*%
X191240000Y-87450000D03*
%TO.P,J2,46,GP20_RX_46*%
%TO.N,unconnected-(J2-GP20_RX-Pad46)*%
X190986000Y-84910000D03*
%TO.P,J2,47,GP21_CSn_47*%
%TO.N,unconnected-(J2-GP21_CSn-Pad47)*%
X191240000Y-82370000D03*
%TO.P,J2,48,GND_48*%
%TO.N,GND*%
X190986000Y-79830000D03*
%TO.P,J2,49,GP22_SCK_49*%
%TO.N,unconnected-(J2-GP22_SCK-Pad49)*%
X191240000Y-77290000D03*
%TO.P,J2,50,RUN_50*%
%TO.N,unconnected-(J2-RUN-Pad50)*%
X190986000Y-74750000D03*
%TO.P,J2,51,GP26_SCK_ADC0_51*%
%TO.N,unconnected-(J2-GP26_SCK_ADC0-Pad51)*%
X191240000Y-72210000D03*
%TO.P,J2,52,GP27_TX_ADC1_52*%
%TO.N,unconnected-(J2-GP27_TX_ADC1-Pad52)*%
X190986000Y-69670000D03*
%TO.P,J2,53,GND_53*%
%TO.N,GND*%
X191240000Y-67130000D03*
%TO.P,J2,54,GP28_RX_ADC2_54*%
%TO.N,unconnected-(J2-GP28_RX_ADC2-Pad54)*%
X190986000Y-64590000D03*
%TO.P,J2,55,ADC_VREF_55*%
%TO.N,unconnected-(J2-ADC_VREF-Pad55)*%
X191240000Y-62050000D03*
%TO.P,J2,56,3V3_56*%
%TO.N,unconnected-(J2-3V3-Pad56)*%
X190986000Y-59510000D03*
%TO.P,J2,57,3V3_EN_57*%
%TO.N,unconnected-(J2-3V3_EN-Pad57)*%
X191240000Y-56970000D03*
%TO.P,J2,58,GND_58*%
%TO.N,GND*%
X190986000Y-54430000D03*
%TO.P,J2,59,VSYS_59*%
%TO.N,unconnected-(J2-VSYS-Pad59)*%
X191240000Y-51890000D03*
%TO.P,J2,60,VBUS_5V+_60*%
%TO.N,Net-(J2-VBUS_5V+)*%
X190986000Y-49350000D03*
%TD*%
D13*
%TO.P,J1,2,GND_2*%
%TO.N,GND*%
X156200000Y-119775000D03*
X156200000Y-124875000D03*
X161300000Y-119775000D03*
X161300000Y-124875000D03*
D14*
%TO.P,J1,1,SIGNAL_1*%
%TO.N,Net-(J1-SIGNAL)*%
X158750000Y-122325000D03*
%TD*%
D10*
%TO.P,TP11,1,1_1*%
%TO.N,Net-(U6--IN)*%
X149500000Y-79500000D03*
%TD*%
%TO.P,TP3,1,1_1*%
%TO.N,Net-(U1-W)*%
X149500000Y-93000000D03*
%TD*%
%TO.P,TP6,1,1_1*%
%TO.N,GND*%
X149500000Y-57000000D03*
%TD*%
%TO.P,TP2,1,1_1*%
%TO.N,Net-(U1-H)*%
X149500000Y-106500000D03*
%TD*%
%TO.P,TP4,1,1_1*%
%TO.N,Net-(C4-Pad1)*%
X149500000Y-88500000D03*
%TD*%
%TO.P,TP8,1,1_1*%
%TO.N,Net-(U1-L)*%
X149500000Y-111000000D03*
%TD*%
%TO.P,TP9,1,1_1*%
%TO.N,Net-(C12-Pad2)*%
X149500000Y-97500000D03*
%TD*%
%TO.P,TP10,1,1_1*%
%TO.N,Net-(D3-A)*%
X149500000Y-61500000D03*
%TD*%
%TO.P,TP13,1,1_1*%
%TO.N,Net-(J2-GP12_RX)*%
X149500000Y-75000000D03*
%TD*%
%TO.P,TP1,1,1_1*%
%TO.N,Net-(U1-\u002ACS)*%
X149500000Y-84000000D03*
%TD*%
%TO.P,TP5,1,1_1*%
%TO.N,GND*%
X149500000Y-115500000D03*
%TD*%
%TO.P,TP12,1,1_1*%
%TO.N,Net-(U5-VREF)*%
X149500000Y-70500000D03*
%TD*%
%TO.P,TP14,1,1_1*%
%TO.N,Net-(U3-+)*%
X149500000Y-102000000D03*
%TD*%
D15*
%TO.N,Net-(U3-+)*%
X163500000Y-93500000D03*
%TO.N,Net-(J2-VBUS_5V+)*%
X168250000Y-65000000D03*
%TO.N,Net-(J2-GP12_RX)*%
X169500000Y-71000000D03*
%TO.N,Net-(D3-A)*%
X159000000Y-55000000D03*
%TO.N,Net-(U1-H)*%
X170000000Y-92500000D03*
%TO.N,Net-(U1-L)*%
X169000000Y-87500000D03*
%TO.N,Net-(U6--IN)*%
X154435850Y-76500000D03*
%TO.N,Net-(U1-\u002ACS)*%
X169116499Y-84856957D03*
%TO.N,Net-(U1-W)*%
X158250000Y-90500000D03*
%TO.N,GND*%
X162500000Y-66000000D03*
%TO.N,+5V*%
X169750000Y-85750000D03*
X168235850Y-89800000D03*
X156232934Y-96815597D03*
X155235850Y-78500000D03*
X159750000Y-71000000D03*
X154235850Y-85500000D03*
X159985850Y-89250000D03*
X166985850Y-74500000D03*
%TO.N,GND*%
X162735850Y-63000000D03*
X165235850Y-92750000D03*
X165235850Y-95250000D03*
X166710000Y-80960000D03*
X165735850Y-88250000D03*
X166985850Y-71250000D03*
X159977938Y-83725000D03*
X164210000Y-80460000D03*
X165235850Y-97750000D03*
X164210000Y-83460000D03*
X162735850Y-56000000D03*
X166710000Y-77460000D03*
X162735850Y-74250000D03*
X156235850Y-89750000D03*
X164210000Y-76460000D03*
X160235850Y-79250000D03*
X155985850Y-66000000D03*
X160735850Y-90750000D03*
X153735850Y-96000000D03*
X154485850Y-73750000D03*
X162735850Y-59750000D03*
X157485850Y-90000000D03*
X162735850Y-57750000D03*
X159235850Y-95750000D03*
X162735850Y-61250000D03*
X155226665Y-80114108D03*
X161985851Y-86496700D03*
%TO.N,Net-(U5-VINA)*%
X163485850Y-60500000D03*
X159250000Y-67000000D03*
%TO.N,Net-(U5-VREF)*%
X163485850Y-57000000D03*
X166735850Y-72750000D03*
%TO.N,Net-(FB2-Pad2)*%
X160750000Y-68250000D03*
%TO.N,Net-(J2-GP14_SCK)*%
X165310850Y-78250000D03*
X171215000Y-92642884D03*
%TO.N,Net-(J2-GP15_TX)*%
X165250000Y-82000000D03*
X170500000Y-95000000D03*
%TO.N,Net-(J2-GP13_CSn)*%
X166000000Y-83000000D03*
%TO.N,GND*%
X155985850Y-54750000D03*
X155735850Y-99250000D03*
%TD*%
%TO.N,Net-(U1-W)*%
D16*
X155750000Y-93000000D02*
X149500000Y-93000000D01*
X158250000Y-90500000D02*
X155750000Y-93000000D01*
%TO.N,Net-(U5-VREF)*%
X165250000Y-71264150D02*
X165250000Y-64500000D01*
X166735850Y-72750000D02*
X165250000Y-71264150D01*
%TO.N,Net-(U1-\u002ACS)*%
X157553884Y-84000000D02*
X164718884Y-76835000D01*
X149500000Y-84000000D02*
X157553884Y-84000000D01*
%TO.N,Net-(J2-GP13_CSn)*%
X172631000Y-86875000D02*
X175746000Y-89990000D01*
X168875000Y-86875000D02*
X172631000Y-86875000D01*
X168250000Y-86250000D02*
X168875000Y-86875000D01*
X168250000Y-85250000D02*
X168250000Y-86250000D01*
%TO.N,Net-(J2-GP12_RX)*%
X165375000Y-75125000D02*
X169500000Y-71000000D01*
X149625000Y-75125000D02*
X165375000Y-75125000D01*
X149500000Y-75000000D02*
X149625000Y-75125000D01*
%TO.N,Net-(J2-GP13_CSn)*%
X166000000Y-83000000D02*
X168250000Y-85250000D01*
%TO.N,Net-(U1-H)*%
X155476966Y-98625000D02*
X167758884Y-98625000D01*
X149500000Y-104601966D02*
X155476966Y-98625000D01*
X149500000Y-106500000D02*
X149500000Y-104601966D01*
%TO.N,Net-(U1-L)*%
X155000000Y-100000000D02*
X167020280Y-100000000D01*
X152500000Y-102500000D02*
X155000000Y-100000000D01*
X152500000Y-108000000D02*
X152500000Y-102500000D01*
X149500000Y-111000000D02*
X152500000Y-108000000D01*
%TO.N,Net-(U6--IN)*%
X152500000Y-76500000D02*
X149500000Y-79500000D01*
X154435850Y-76500000D02*
X152500000Y-76500000D01*
%TO.N,Net-(U5-VREF)*%
X152375000Y-67625000D02*
X149500000Y-70500000D01*
X162125000Y-67625000D02*
X152375000Y-67625000D01*
%TO.N,Net-(D3-A)*%
X152500000Y-61500000D02*
X149500000Y-61500000D01*
X159000000Y-55000000D02*
X152500000Y-61500000D01*
%TO.N,Net-(U1-L)*%
X172000000Y-90500000D02*
X172000000Y-95020280D01*
X169000000Y-87500000D02*
X172000000Y-90500000D01*
X172000000Y-95020280D02*
X167020280Y-100000000D01*
%TO.N,Net-(U1-H)*%
X171125000Y-95258884D02*
X167758884Y-98625000D01*
X171125000Y-93625000D02*
X171125000Y-95258884D01*
X170000000Y-92500000D02*
X171125000Y-93625000D01*
%TO.N,Net-(U1-\u002ACS)*%
X164718884Y-76835000D02*
X166968884Y-76835000D01*
X169116499Y-78982615D02*
X169116499Y-84856957D01*
X166968884Y-76835000D02*
X169116499Y-78982615D01*
%TO.N,Net-(U5-VREF)*%
X165250000Y-64500000D02*
X165250000Y-58764150D01*
%TO.N,Net-(U5-VINA)*%
X159619734Y-67000000D02*
X163485850Y-63133884D01*
X163485850Y-63133884D02*
X163485850Y-60500000D01*
X159250000Y-67000000D02*
X159619734Y-67000000D01*
%TO.N,Net-(U5-VREF)*%
X165250000Y-58764150D02*
X163485850Y-57000000D01*
%TO.N,Net-(J2-GP14_SCK)*%
X168860850Y-89541116D02*
X168860850Y-90288734D01*
X164625000Y-81741116D02*
X164625000Y-82875000D01*
X165310850Y-78250000D02*
X165310850Y-81055266D01*
X164625000Y-82875000D02*
X166360850Y-84610850D01*
X166360850Y-87041116D02*
X168860850Y-89541116D01*
X165310850Y-81055266D02*
X164625000Y-81741116D01*
X166360850Y-84610850D02*
X166360850Y-87041116D01*
X168860850Y-90288734D02*
X171161058Y-92588942D01*
%TO.N,Net-(J2-GP15_TX)*%
X163585000Y-88085000D02*
X170500000Y-95000000D01*
X165051966Y-77625000D02*
X163585000Y-79091966D01*
X165569734Y-77625000D02*
X165051966Y-77625000D01*
X165935850Y-81314150D02*
X165935850Y-77991116D01*
X163585000Y-79091966D02*
X163585000Y-88085000D01*
X165250000Y-82000000D02*
X165935850Y-81314150D01*
X165935850Y-77991116D02*
X165569734Y-77625000D01*
%TO.N,Net-(U5-VREF)*%
X165250000Y-64500000D02*
X162125000Y-67625000D01*
%TO.N,Net-(U3-+)*%
X158000000Y-93500000D02*
X163500000Y-93500000D01*
X149500000Y-102000000D02*
X158000000Y-93500000D01*
%TD*%
M02*
