%TF.GenerationSoftware,KiCad,Pcbnew,10.0.5*%
%TF.CreationDate,2026-08-18T22:05:46-06:00*%
%TF.ProjectId,ADC_and_amplifier_pico_breakout_board,4144435f-616e-4645-9f61-6d706c696669,rev?*%
%TF.SameCoordinates,Original*%
%TF.FileFunction,Soldermask,Top*%
%TF.FilePolarity,Negative*%
%FSLAX46Y46*%
G04 Gerber Fmt 4.6, Leading zero omitted, Abs format (unit mm)*
G04 Created by KiCad (PCBNEW 10.0.5) date 2026-08-18 22:05:46*
%MOMM*%
%LPD*%
G01*
G04 APERTURE LIST*
G04 Aperture macros list*
%AMRoundRect*
0 Rectangle with rounded corners*
0 $1 Rounding radius*
0 $2 $3 $4 $5 $6 $7 $8 $9 X,Y pos of 4 corners*
0 Add a 4 corners polygon primitive as box body*
4,1,4,$2,$3,$4,$5,$6,$7,$8,$9,$2,$3,0*
0 Add four circle primitives for the rounded corners*
1,1,$1+$1,$2,$3*
1,1,$1+$1,$4,$5*
1,1,$1+$1,$6,$7*
1,1,$1+$1,$8,$9*
0 Add four rect primitives between the rounded corners*
20,1,$1+$1,$2,$3,$4,$5,0*
20,1,$1+$1,$4,$5,$6,$7,0*
20,1,$1+$1,$6,$7,$8,$9,0*
20,1,$1+$1,$8,$9,$2,$3,0*%
G04 Aperture macros list end*
%ADD10RoundRect,0.200000X-0.200000X-0.275000X0.200000X-0.275000X0.200000X0.275000X-0.200000X0.275000X0*%
%ADD11RoundRect,0.250000X0.475000X-0.250000X0.475000X0.250000X-0.475000X0.250000X-0.475000X-0.250000X0*%
%ADD12RoundRect,0.250000X0.650000X-0.325000X0.650000X0.325000X-0.650000X0.325000X-0.650000X-0.325000X0*%
%ADD13RoundRect,0.250000X-0.650000X0.325000X-0.650000X-0.325000X0.650000X-0.325000X0.650000X0.325000X0*%
%ADD14RoundRect,0.200000X-0.275000X0.200000X-0.275000X-0.200000X0.275000X-0.200000X0.275000X0.200000X0*%
%ADD15RoundRect,0.225000X-0.250000X0.225000X-0.250000X-0.225000X0.250000X-0.225000X0.250000X0.225000X0*%
%ADD16RoundRect,0.250000X0.325000X0.650000X-0.325000X0.650000X-0.325000X-0.650000X0.325000X-0.650000X0*%
%ADD17RoundRect,0.250000X0.450000X-0.262500X0.450000X0.262500X-0.450000X0.262500X-0.450000X-0.262500X0*%
%ADD18RoundRect,0.150000X-0.512500X-0.150000X0.512500X-0.150000X0.512500X0.150000X-0.512500X0.150000X0*%
%ADD19RoundRect,0.200000X0.275000X-0.200000X0.275000X0.200000X-0.275000X0.200000X-0.275000X-0.200000X0*%
%ADD20R,1.460500X0.558800*%
%ADD21R,1.193800X0.812800*%
%ADD22R,0.254000X0.711200*%
%ADD23RoundRect,0.225000X-0.225000X-0.375000X0.225000X-0.375000X0.225000X0.375000X-0.225000X0.375000X0*%
%ADD24RoundRect,0.218750X-0.218750X-0.256250X0.218750X-0.256250X0.218750X0.256250X-0.218750X0.256250X0*%
%ADD25C,2.000000*%
%ADD26RoundRect,0.250000X-0.325000X-0.650000X0.325000X-0.650000X0.325000X0.650000X-0.325000X0.650000X0*%
%ADD27R,1.981200X0.558800*%
%ADD28RoundRect,0.225000X0.225000X0.375000X-0.225000X0.375000X-0.225000X-0.375000X0.225000X-0.375000X0*%
%ADD29RoundRect,0.218750X-0.381250X0.218750X-0.381250X-0.218750X0.381250X-0.218750X0.381250X0.218750X0*%
%ADD30RoundRect,0.250000X-0.475000X0.250000X-0.475000X-0.250000X0.475000X-0.250000X0.475000X0.250000X0*%
%ADD31R,1.651000X0.431800*%
%ADD32RoundRect,0.150000X0.150000X-0.512500X0.150000X0.512500X-0.150000X0.512500X-0.150000X-0.512500X0*%
%ADD33RoundRect,0.225000X0.225000X0.250000X-0.225000X0.250000X-0.225000X-0.250000X0.225000X-0.250000X0*%
%ADD34RoundRect,0.225000X0.250000X-0.225000X0.250000X0.225000X-0.250000X0.225000X-0.250000X-0.225000X0*%
%ADD35RoundRect,0.200000X0.200000X0.275000X-0.200000X0.275000X-0.200000X-0.275000X0.200000X-0.275000X0*%
%ADD36RoundRect,0.102000X-0.685000X0.685000X-0.685000X-0.685000X0.685000X-0.685000X0.685000X0.685000X0*%
%ADD37C,1.574000*%
%ADD38RoundRect,0.102000X0.685000X-0.685000X0.685000X0.685000X-0.685000X0.685000X-0.685000X-0.685000X0*%
%ADD39C,2.200000*%
%ADD40RoundRect,0.200100X0.949900X0.949900X-0.949900X0.949900X-0.949900X-0.949900X0.949900X-0.949900X0*%
G04 APERTURE END LIST*
D10*
%TO.C,R10*%
X166239091Y-85751576D03*
X167889091Y-85751576D03*
%TD*%
%TO.C,R11*%
X166244629Y-87357607D03*
X167894629Y-87357607D03*
%TD*%
D11*
%TO.C,C18*%
X158485850Y-57550000D03*
X158485850Y-59450000D03*
%TD*%
D12*
%TO.C,C2*%
X165235850Y-71275000D03*
X165235850Y-74225000D03*
%TD*%
%TO.C,C5*%
X166735850Y-89775000D03*
X166735850Y-92725000D03*
%TD*%
D13*
%TO.C,C19*%
X160295403Y-74938379D03*
X160295403Y-77888379D03*
%TD*%
D14*
%TO.C,R3*%
X153728926Y-91390963D03*
X153728926Y-89740963D03*
%TD*%
D15*
%TO.C,C4*%
X153728926Y-94415305D03*
X153728926Y-92865305D03*
%TD*%
D16*
%TO.C,C20*%
X163275000Y-68500000D03*
X166225000Y-68500000D03*
%TD*%
D17*
%TO.C,R1*%
X158735850Y-97837500D03*
X158735850Y-99662500D03*
%TD*%
D18*
%TO.C,U3*%
X164373350Y-89800000D03*
X164373350Y-91700000D03*
X162098350Y-91700000D03*
X162098350Y-90750000D03*
X162098350Y-89800000D03*
%TD*%
D14*
%TO.C,R12*%
X156232934Y-95640597D03*
X156232934Y-93990597D03*
%TD*%
D19*
%TO.C,R19*%
X157735850Y-68825000D03*
X157735850Y-67175000D03*
%TD*%
D12*
%TO.C,C6*%
X168235850Y-97700000D03*
X168235850Y-94750000D03*
%TD*%
D16*
%TO.C,C14*%
X155877413Y-64251576D03*
X158827413Y-64251576D03*
%TD*%
D20*
%TO.C,U2*%
X168210000Y-76190000D03*
X168210000Y-77460000D03*
X168210000Y-78730000D03*
X168210000Y-80000000D03*
X168210000Y-81270000D03*
X168210000Y-82540000D03*
X168210000Y-83810000D03*
X162761700Y-83810000D03*
X162761700Y-82540000D03*
X162761700Y-81270000D03*
X162761700Y-80000000D03*
X162761700Y-78730000D03*
X162761700Y-77460000D03*
X162761700Y-76190000D03*
%TD*%
D10*
%TO.C,R2*%
X160060850Y-91750000D03*
X158410850Y-91750000D03*
%TD*%
D14*
%TO.C,R13*%
X156235850Y-92575000D03*
X156235850Y-90925000D03*
%TD*%
D21*
%TO.C,U1*%
X161985851Y-86496700D03*
D22*
X162735852Y-87500000D03*
X162235851Y-87500000D03*
X161735851Y-87500000D03*
X161235850Y-87500000D03*
X161235850Y-85493400D03*
X161735851Y-85493400D03*
X162235851Y-85493400D03*
X162735852Y-85493400D03*
%TD*%
D23*
%TO.C,D2*%
X163885850Y-95250000D03*
X160585850Y-95250000D03*
%TD*%
D11*
%TO.C,C10*%
X164485850Y-85750000D03*
X164485850Y-87650000D03*
%TD*%
D19*
%TO.C,R8*%
X166235850Y-97575000D03*
X166235850Y-95925000D03*
%TD*%
D24*
%TO.C,D3*%
X159160850Y-53500000D03*
X160735850Y-53500000D03*
%TD*%
D10*
%TO.C,R4*%
X157560850Y-53500000D03*
X155910850Y-53500000D03*
%TD*%
D25*
%TO.C,TP7*%
X149500000Y-66000000D03*
%TD*%
D26*
%TO.C,C1*%
X162854260Y-72675499D03*
X159904260Y-72675499D03*
%TD*%
D14*
%TO.C,R5*%
X154235850Y-77675000D03*
X154235850Y-79325000D03*
%TD*%
D27*
%TO.C,U6*%
X152772050Y-75905000D03*
X152772050Y-74635000D03*
X152772050Y-73365000D03*
X152772050Y-72095000D03*
X157699650Y-72095000D03*
X157699650Y-73365000D03*
X157699650Y-74635000D03*
X157699650Y-75905000D03*
%TD*%
D28*
%TO.C,D1*%
X163885850Y-97750000D03*
X160585850Y-97750000D03*
%TD*%
D29*
%TO.C,FB2*%
X160650315Y-66925645D03*
X160650315Y-64800645D03*
%TD*%
D14*
%TO.C,R18*%
X152735850Y-68825000D03*
X152735850Y-67175000D03*
%TD*%
D30*
%TO.C,C17*%
X168235850Y-72550000D03*
X168235850Y-74450000D03*
%TD*%
D31*
%TO.C,U5*%
X161103650Y-63475000D03*
X161103650Y-62824999D03*
X161103650Y-62175000D03*
X161103650Y-61524999D03*
X161103650Y-60875001D03*
X161103650Y-60224999D03*
X161103650Y-59575001D03*
X161103650Y-58924999D03*
X161103650Y-58275001D03*
X161103650Y-57624999D03*
X161103650Y-56975001D03*
X161103650Y-56325000D03*
X161103650Y-55675001D03*
X161103650Y-55025000D03*
X168368050Y-55025002D03*
X168368050Y-55675001D03*
X168368050Y-56325002D03*
X168368050Y-56975001D03*
X168368050Y-57625002D03*
X168368050Y-58275001D03*
X168368050Y-58925002D03*
X168368050Y-59575001D03*
X168368050Y-60224999D03*
X168368050Y-60875001D03*
X168368050Y-61524999D03*
X168368050Y-62175000D03*
X168368050Y-62824999D03*
X168368050Y-63475000D03*
%TD*%
D13*
%TO.C,C7*%
X156735850Y-81275000D03*
X156735850Y-84225000D03*
%TD*%
D32*
%TO.C,U4*%
X155285850Y-86112500D03*
X157185850Y-86112500D03*
X157185850Y-88387500D03*
X156235850Y-88387500D03*
X155285850Y-88387500D03*
%TD*%
D16*
%TO.C,C15*%
X156035850Y-61750000D03*
X158985850Y-61750000D03*
%TD*%
D11*
%TO.C,C12*%
X158235850Y-93350000D03*
X158235850Y-95250000D03*
%TD*%
D14*
%TO.C,R9*%
X158735850Y-82800000D03*
X158735850Y-81150000D03*
%TD*%
D33*
%TO.C,C13*%
X154460850Y-67250000D03*
X156010850Y-67250000D03*
%TD*%
D13*
%TO.C,C9*%
X159235850Y-87950000D03*
X159235850Y-85000000D03*
%TD*%
D14*
%TO.C,R6*%
X168735850Y-93075000D03*
X168735850Y-91425000D03*
%TD*%
D29*
%TO.C,FB1*%
X168250000Y-68312500D03*
X168250000Y-66187500D03*
%TD*%
D33*
%TO.C,C3*%
X160667628Y-93298470D03*
X162217628Y-93298470D03*
%TD*%
D19*
%TO.C,R20*%
X158000000Y-79325000D03*
X158000000Y-77675000D03*
%TD*%
D10*
%TO.C,R17*%
X154325000Y-70500000D03*
X152675000Y-70500000D03*
%TD*%
D12*
%TO.C,C11*%
X156235850Y-56525000D03*
X156235850Y-59475000D03*
%TD*%
D34*
%TO.C,C16*%
X156735850Y-97975000D03*
X156735850Y-99525000D03*
%TD*%
D13*
%TO.C,C8*%
X154235850Y-84225000D03*
X154235850Y-81275000D03*
%TD*%
D35*
%TO.C,R16*%
X157755496Y-70338097D03*
X156105496Y-70338097D03*
%TD*%
D14*
%TO.C,R7*%
X153735850Y-88325000D03*
X153735850Y-86675000D03*
%TD*%
D36*
%TO.C,J2*%
X175746000Y-49350000D03*
D37*
X176000000Y-51890000D03*
X175746000Y-54430000D03*
X176000000Y-56970000D03*
X175746000Y-59510000D03*
X176000000Y-62050000D03*
X175746000Y-64590000D03*
X176000000Y-67130000D03*
X175746000Y-69670000D03*
X176000000Y-72210000D03*
X175746000Y-74750000D03*
X176000000Y-77290000D03*
X175746000Y-79830000D03*
X176000000Y-82370000D03*
X175746000Y-84910000D03*
X176000000Y-87450000D03*
X175746000Y-89990000D03*
X176000000Y-92530000D03*
X175746000Y-95070000D03*
X176000000Y-97610000D03*
X175746000Y-100150000D03*
X176000000Y-102690000D03*
X175746000Y-105230000D03*
X176000000Y-107770000D03*
X175746000Y-110310000D03*
X176000000Y-112850000D03*
X175746000Y-115390000D03*
X176000000Y-117930000D03*
X175746000Y-120470000D03*
X176000000Y-123010000D03*
D38*
X191240000Y-123010000D03*
D37*
X190986000Y-120470000D03*
X191240000Y-117930000D03*
X190986000Y-115390000D03*
X191240000Y-112850000D03*
X190986000Y-110310000D03*
X191240000Y-107770000D03*
X190986000Y-105230000D03*
X191240000Y-102690000D03*
X190986000Y-100150000D03*
X191240000Y-97610000D03*
X190986000Y-95070000D03*
X191240000Y-92530000D03*
X190986000Y-89990000D03*
X191240000Y-87450000D03*
X190986000Y-84910000D03*
X191240000Y-82370000D03*
X190986000Y-79830000D03*
X191240000Y-77290000D03*
X190986000Y-74750000D03*
X191240000Y-72210000D03*
X190986000Y-69670000D03*
X191240000Y-67130000D03*
X190986000Y-64590000D03*
X191240000Y-62050000D03*
X190986000Y-59510000D03*
X191240000Y-56970000D03*
X190986000Y-54430000D03*
X191240000Y-51890000D03*
X190986000Y-49350000D03*
%TD*%
D14*
%TO.C,R14*%
X156250000Y-77675000D03*
X156250000Y-79325000D03*
%TD*%
D39*
%TO.C,J1*%
X156200000Y-119775000D03*
X156200000Y-124875000D03*
X161300000Y-119775000D03*
X161300000Y-124875000D03*
D40*
X158750000Y-122325000D03*
%TD*%
D25*
%TO.C,TP11*%
X149500000Y-79500000D03*
%TD*%
%TO.C,TP3*%
X149500000Y-93000000D03*
%TD*%
%TO.C,TP6*%
X149500000Y-57000000D03*
%TD*%
%TO.C,TP2*%
X149500000Y-106500000D03*
%TD*%
%TO.C,TP4*%
X149500000Y-88500000D03*
%TD*%
%TO.C,TP8*%
X149500000Y-111000000D03*
%TD*%
%TO.C,TP9*%
X149500000Y-97500000D03*
%TD*%
%TO.C,TP10*%
X149500000Y-61500000D03*
%TD*%
%TO.C,TP13*%
X149500000Y-75000000D03*
%TD*%
%TO.C,TP1*%
X149500000Y-84000000D03*
%TD*%
%TO.C,TP5*%
X149500000Y-115500000D03*
%TD*%
%TO.C,TP12*%
X149500000Y-70500000D03*
%TD*%
%TO.C,TP14*%
X149500000Y-102000000D03*
%TD*%
M02*
