M48
; DRILL file KiCad 10.0.5 date 2026-08-18T22:05:46
; FORMAT={-:-/ absolute / inch / decimal}
; #@! TF.CreationDate,2026-08-18T22:05:46-06:00
; #@! TF.GenerationSoftware,Kicad,Pcbnew,10.0.5
; #@! TF.FileFunction,Plated,1,4,PTH
FMAT,2
INCH
; #@! TA.AperFunction,Plated,PTH,ViaDrill
T1C0.0118
; #@! TA.AperFunction,Plated,PTH,ComponentDrill
T2C0.0394
; #@! TA.AperFunction,Plated,PTH,ComponentDrill
T3C0.0402
; #@! TA.AperFunction,Plated,PTH,ComponentDrill
T4C0.0551
%
G90
G05
T1
X6.0526Y-3.7795
X6.0723Y-3.3661
X6.0802Y-3.0118
X6.0821Y-2.9035
X6.1113Y-3.1541
X6.1116Y-3.0906
X6.1313Y-3.9075
X6.1412Y-2.1555
X6.1412Y-2.5984
X6.1509Y-3.8116
X6.151Y-3.5335
X6.2002Y-3.5433
X6.2303Y-3.563
X6.2598Y-2.1654
X6.2691Y-3.7697
X6.2697Y-2.6378
X6.2894Y-2.7953
X6.2983Y-3.2963
X6.2987Y-3.5138
X6.3085Y-3.1201
X6.3282Y-3.5728
X6.3287Y-2.687
X6.3774Y-3.4054
X6.3976Y-2.5984
X6.4069Y-2.2047
X6.4069Y-2.2736
X6.4069Y-2.3524
X6.4069Y-2.4114
X6.4069Y-2.4803
X6.4069Y-2.9232
X6.4365Y-2.2441
X6.4365Y-2.3819
X6.437Y-3.6811
X6.465Y-3.0102
X6.465Y-3.1677
X6.465Y-3.2858
X6.5053Y-3.6516
X6.5053Y-3.75
X6.5053Y-3.8484
X6.5059Y-3.2283
X6.5083Y-3.0807
X6.525Y-3.4744
X6.5354Y-3.2677
X6.5634Y-3.0496
X6.5634Y-3.1874
X6.5644Y-2.8642
X6.5742Y-2.8051
X6.5742Y-2.9331
X6.6235Y-3.5354
X6.624Y-2.5591
X6.6535Y-3.4449
X6.6581Y-3.3408
X6.6732Y-2.7953
X6.6831Y-3.376
X6.6929Y-3.6417
X6.7126Y-3.7402
X6.7407Y-3.6474
T2
X5.8858Y-2.2441
X5.8858Y-2.4213
X5.8858Y-2.5984
X5.8858Y-2.7756
X5.8858Y-2.9528
X5.8858Y-3.1299
X5.8858Y-3.3071
X5.8858Y-3.4843
X5.8858Y-3.6614
X5.8858Y-3.8386
X5.8858Y-4.0157
X5.8858Y-4.1929
X5.8858Y-4.3701
X5.8858Y-4.5472
T3
X6.9191Y-1.9429
X6.9191Y-2.1429
X6.9191Y-2.3429
X6.9191Y-2.5429
X6.9191Y-2.7429
X6.9191Y-2.9429
X6.9191Y-3.1429
X6.9191Y-3.3429
X6.9191Y-3.5429
X6.9191Y-3.7429
X6.9191Y-3.9429
X6.9191Y-4.1429
X6.9191Y-4.3429
X6.9191Y-4.5429
X6.9191Y-4.7429
X6.9291Y-2.0429
X6.9291Y-2.2429
X6.9291Y-2.4429
X6.9291Y-2.6429
X6.9291Y-2.8429
X6.9291Y-3.0429
X6.9291Y-3.2429
X6.9291Y-3.4429
X6.9291Y-3.6429
X6.9291Y-3.8429
X6.9291Y-4.0429
X6.9291Y-4.2429
X6.9291Y-4.4429
X6.9291Y-4.6429
X6.9291Y-4.8429
X7.5191Y-1.9429
X7.5191Y-2.1429
X7.5191Y-2.3429
X7.5191Y-2.5429
X7.5191Y-2.7429
X7.5191Y-2.9429
X7.5191Y-3.1429
X7.5191Y-3.3429
X7.5191Y-3.5429
X7.5191Y-3.7429
X7.5191Y-3.9429
X7.5191Y-4.1429
X7.5191Y-4.3429
X7.5191Y-4.5429
X7.5191Y-4.7429
X7.5291Y-2.0429
X7.5291Y-2.2429
X7.5291Y-2.4429
X7.5291Y-2.6429
X7.5291Y-2.8429
X7.5291Y-3.0429
X7.5291Y-3.2429
X7.5291Y-3.4429
X7.5291Y-3.6429
X7.5291Y-3.8429
X7.5291Y-4.0429
X7.5291Y-4.2429
X7.5291Y-4.4429
X7.5291Y-4.6429
X7.5291Y-4.8429
T4
X6.1496Y-4.7156
X6.1496Y-4.9163
X6.25Y-4.8159
X6.3504Y-4.7156
X6.3504Y-4.9163
M30
