%TF.GenerationSoftware,KiCad,Pcbnew,10.0.5*%
%TF.CreationDate,2026-08-20T01:13:31-06:00*%
%TF.ProjectId,ADC_AMP_with_MCP4161,4144435f-414d-4505-9f77-6974685f4d43,rev?*%
%TF.SameCoordinates,Original*%
%TF.FileFunction,Copper,L1,Top*%
%TF.FilePolarity,Positive*%
%FSLAX46Y46*%
G04 Gerber Fmt 4.6, Leading zero omitted, Abs format (unit mm)*
G04 Created by KiCad (PCBNEW 10.0.5) date 2026-08-20 01:13:31*
%MOMM*%
%LPD*%
G01*
G04 APERTURE LIST*
G04 Aperture macros list*
%AMRoundRect*
0 Rectangle with rounded corners*
0 $1 Rounding radius*
0 $2 $3 $4 $5 $6 $7 $8 $9 X,Y pos of 4 corners*
0 Add a 4 corners polygon primitive as box body*
4,1,4,$2,$3,$4,$5,$6,$7,$8,$9,$2,$3,0*
0 Add four circle primitives for the rounded corners*
1,1,$1+$1,$2,$3*
1,1,$1+$1,$4,$5*
1,1,$1+$1,$6,$7*
1,1,$1+$1,$8,$9*
0 Add four rect primitives between the rounded corners*
20,1,$1+$1,$2,$3,$4,$5,0*
20,1,$1+$1,$4,$5,$6,$7,0*
20,1,$1+$1,$6,$7,$8,$9,0*
20,1,$1+$1,$8,$9,$2,$3,0*%
G04 Aperture macros list end*
%TA.AperFunction,SMDPad,CuDef*%
%ADD10RoundRect,0.250000X0.325000X0.650000X-0.325000X0.650000X-0.325000X-0.650000X0.325000X-0.650000X0*%
%TD*%
%TA.AperFunction,SMDPad,CuDef*%
%ADD11RoundRect,0.200000X-0.200000X-0.275000X0.200000X-0.275000X0.200000X0.275000X-0.200000X0.275000X0*%
%TD*%
%TA.AperFunction,SMDPad,CuDef*%
%ADD12RoundRect,0.218750X-0.218750X-0.256250X0.218750X-0.256250X0.218750X0.256250X-0.218750X0.256250X0*%
%TD*%
%TA.AperFunction,SMDPad,CuDef*%
%ADD13RoundRect,0.200000X-0.275000X0.200000X-0.275000X-0.200000X0.275000X-0.200000X0.275000X0.200000X0*%
%TD*%
%TA.AperFunction,SMDPad,CuDef*%
%ADD14RoundRect,0.225000X0.225000X0.250000X-0.225000X0.250000X-0.225000X-0.250000X0.225000X-0.250000X0*%
%TD*%
%TA.AperFunction,SMDPad,CuDef*%
%ADD15RoundRect,0.200000X0.275000X-0.200000X0.275000X0.200000X-0.275000X0.200000X-0.275000X-0.200000X0*%
%TD*%
%TA.AperFunction,ComponentPad*%
%ADD16C,2.000000*%
%TD*%
%TA.AperFunction,SMDPad,CuDef*%
%ADD17RoundRect,0.200000X0.200000X0.275000X-0.200000X0.275000X-0.200000X-0.275000X0.200000X-0.275000X0*%
%TD*%
%TA.AperFunction,SMDPad,CuDef*%
%ADD18RoundRect,0.250000X0.650000X-0.325000X0.650000X0.325000X-0.650000X0.325000X-0.650000X-0.325000X0*%
%TD*%
%TA.AperFunction,SMDPad,CuDef*%
%ADD19RoundRect,0.250000X-0.650000X0.325000X-0.650000X-0.325000X0.650000X-0.325000X0.650000X0.325000X0*%
%TD*%
%TA.AperFunction,SMDPad,CuDef*%
%ADD20RoundRect,0.250000X-0.325000X-0.650000X0.325000X-0.650000X0.325000X0.650000X-0.325000X0.650000X0*%
%TD*%
%TA.AperFunction,SMDPad,CuDef*%
%ADD21RoundRect,0.225000X-0.250000X0.225000X-0.250000X-0.225000X0.250000X-0.225000X0.250000X0.225000X0*%
%TD*%
%TA.AperFunction,SMDPad,CuDef*%
%ADD22RoundRect,0.218750X-0.381250X0.218750X-0.381250X-0.218750X0.381250X-0.218750X0.381250X0.218750X0*%
%TD*%
%TA.AperFunction,SMDPad,CuDef*%
%ADD23R,1.981200X0.558800*%
%TD*%
%TA.AperFunction,SMDPad,CuDef*%
%ADD24RoundRect,0.250000X-0.475000X0.250000X-0.475000X-0.250000X0.475000X-0.250000X0.475000X0.250000X0*%
%TD*%
%TA.AperFunction,SMDPad,CuDef*%
%ADD25RoundRect,0.150000X0.150000X-0.512500X0.150000X0.512500X-0.150000X0.512500X-0.150000X-0.512500X0*%
%TD*%
%TA.AperFunction,SMDPad,CuDef*%
%ADD26RoundRect,0.225000X0.225000X0.375000X-0.225000X0.375000X-0.225000X-0.375000X0.225000X-0.375000X0*%
%TD*%
%TA.AperFunction,SMDPad,CuDef*%
%ADD27RoundRect,0.250000X0.475000X-0.250000X0.475000X0.250000X-0.475000X0.250000X-0.475000X-0.250000X0*%
%TD*%
%TA.AperFunction,SMDPad,CuDef*%
%ADD28R,1.651000X0.431800*%
%TD*%
%TA.AperFunction,SMDPad,CuDef*%
%ADD29RoundRect,0.250000X-0.250000X-0.475000X0.250000X-0.475000X0.250000X0.475000X-0.250000X0.475000X0*%
%TD*%
%TA.AperFunction,SMDPad,CuDef*%
%ADD30RoundRect,0.225000X-0.225000X-0.375000X0.225000X-0.375000X0.225000X0.375000X-0.225000X0.375000X0*%
%TD*%
%TA.AperFunction,SMDPad,CuDef*%
%ADD31RoundRect,0.218750X-0.256250X0.218750X-0.256250X-0.218750X0.256250X-0.218750X0.256250X0.218750X0*%
%TD*%
%TA.AperFunction,ComponentPad*%
%ADD32R,1.370000X1.370000*%
%TD*%
%TA.AperFunction,ComponentPad*%
%ADD33C,1.370000*%
%TD*%
%TA.AperFunction,SMDPad,CuDef*%
%ADD34RoundRect,0.150000X-0.512500X-0.150000X0.512500X-0.150000X0.512500X0.150000X-0.512500X0.150000X0*%
%TD*%
%TA.AperFunction,SMDPad,CuDef*%
%ADD35RoundRect,0.250000X0.450000X-0.262500X0.450000X0.262500X-0.450000X0.262500X-0.450000X-0.262500X0*%
%TD*%
%TA.AperFunction,SMDPad,CuDef*%
%ADD36R,0.558800X1.981200*%
%TD*%
%TA.AperFunction,ComponentPad*%
%ADD37RoundRect,0.200100X0.949900X0.949900X-0.949900X0.949900X-0.949900X-0.949900X0.949900X-0.949900X0*%
%TD*%
%TA.AperFunction,ComponentPad*%
%ADD38C,2.200000*%
%TD*%
%TA.AperFunction,ViaPad*%
%ADD39C,0.600000*%
%TD*%
%TA.AperFunction,Conductor*%
%ADD40C,0.250000*%
%TD*%
%TA.AperFunction,Conductor*%
%ADD41C,0.600000*%
%TD*%
%TA.AperFunction,Conductor*%
%ADD42C,0.200000*%
%TD*%
%TA.AperFunction,Conductor*%
%ADD43C,1.000000*%
%TD*%
G04 APERTURE END LIST*
D10*
%TO.P,C14,2*%
%TO.N,GND*%
X155877413Y-64251576D03*
%TO.P,C14,1*%
%TO.N,+3.3V*%
X158827413Y-64251576D03*
%TD*%
D11*
%TO.P,R15,2*%
%TO.N,Net-(D4-K)*%
X170075000Y-103250000D03*
%TO.P,R15,1*%
%TO.N,GND*%
X168425000Y-103250000D03*
%TD*%
D12*
%TO.P,D4,1,K_1*%
%TO.N,Net-(D4-K)*%
X171712500Y-103250000D03*
%TO.P,D4,2,A_2*%
%TO.N,Net-(D4-A)*%
X173287500Y-103250000D03*
%TD*%
D13*
%TO.P,R7,1*%
%TO.N,Net-(U4--)*%
X153735850Y-86675000D03*
%TO.P,R7,2*%
%TO.N,Net-(R3-Pad1)*%
X153735850Y-88325000D03*
%TD*%
%TO.P,R14,1*%
%TO.N,Net-(U6--IN)*%
X156250000Y-77675000D03*
%TO.P,R14,2*%
%TO.N,+5V*%
X156250000Y-79325000D03*
%TD*%
D11*
%TO.P,R17,1*%
%TO.N,Net-(U6--OUT)*%
X152675000Y-70500000D03*
%TO.P,R17,2*%
%TO.N,Net-(U6-+IN)*%
X154325000Y-70500000D03*
%TD*%
D14*
%TO.P,C16,1*%
%TO.N,GND*%
X162911082Y-106738335D03*
%TO.P,C16,2*%
%TO.N,Net-(D1-A)*%
X161361082Y-106738335D03*
%TD*%
D15*
%TO.P,R20,1*%
%TO.N,GND*%
X158000000Y-79325000D03*
%TO.P,R20,2*%
%TO.N,Net-(U6--IN)*%
X158000000Y-77675000D03*
%TD*%
D16*
%TO.P,TP2,1,1_1*%
%TO.N,Net-(U7-P0A)*%
X149500000Y-102000000D03*
%TD*%
D17*
%TO.P,R16,1*%
%TO.N,Net-(U6-+OUT)*%
X157755496Y-70338097D03*
%TO.P,R16,2*%
%TO.N,Net-(U6--IN)*%
X156105496Y-70338097D03*
%TD*%
D11*
%TO.P,R6,1*%
%TO.N,Net-(U7-P0A)*%
X163497593Y-98808897D03*
%TO.P,R6,2*%
%TO.N,Net-(U3--)*%
X165147593Y-98808897D03*
%TD*%
D16*
%TO.P,TP4,1,1_1*%
%TO.N,Net-(C4-Pad1)*%
X149500000Y-88500000D03*
%TD*%
D18*
%TO.P,C11,1*%
%TO.N,Net-(U5-CAPT)*%
X156500000Y-59475000D03*
%TO.P,C11,2*%
%TO.N,Net-(U5-CAPB)*%
X156500000Y-56525000D03*
%TD*%
D19*
%TO.P,C8,1*%
%TO.N,GND*%
X154235850Y-81275000D03*
%TO.P,C8,2*%
%TO.N,+5V*%
X154235850Y-84225000D03*
%TD*%
D20*
%TO.P,C9,1*%
%TO.N,+5V*%
X166525000Y-93500000D03*
%TO.P,C9,2*%
%TO.N,GND*%
X169475000Y-93500000D03*
%TD*%
D21*
%TO.P,C3,1*%
%TO.N,Net-(U3-+)*%
X161365947Y-98735124D03*
%TO.P,C3,2*%
%TO.N,Net-(D1-A)*%
X161365947Y-100285124D03*
%TD*%
D22*
%TO.P,FB1,1*%
%TO.N,Net-(J2-VBUS_5V+)*%
X168250000Y-66187500D03*
%TO.P,FB1,2*%
%TO.N,+5V*%
X168250000Y-68312500D03*
%TD*%
D14*
%TO.P,C13,1*%
%TO.N,Net-(U5-VINA)*%
X156010850Y-67250000D03*
%TO.P,C13,2*%
%TO.N,Net-(U5-VINB)*%
X154460850Y-67250000D03*
%TD*%
D23*
%TO.P,U6,1,-IN_1*%
%TO.N,Net-(U6--IN)*%
X157699650Y-75905000D03*
%TO.P,U6,2,VOCM_2*%
%TO.N,Net-(U5-VREF)*%
X157699650Y-74635000D03*
%TO.P,U6,3,V+_3*%
%TO.N,+5V*%
X157699650Y-73365000D03*
%TO.P,U6,4,+OUT_4*%
%TO.N,Net-(U6-+OUT)*%
X157699650Y-72095000D03*
%TO.P,U6,5,-OUT_5*%
%TO.N,Net-(U6--OUT)*%
X152772050Y-72095000D03*
%TO.P,U6,6,V-_6*%
%TO.N,GND*%
X152772050Y-73365000D03*
%TO.P,U6,7,NC_7*%
%TO.N,unconnected-(U6-NC-Pad7)*%
X152772050Y-74635000D03*
%TO.P,U6,8,+IN_8*%
%TO.N,Net-(U6-+IN)*%
X152772050Y-75905000D03*
%TD*%
D13*
%TO.P,R5,1*%
%TO.N,Net-(U6-+IN)*%
X154235850Y-77675000D03*
%TO.P,R5,2*%
%TO.N,Net-(C4-Pad1)*%
X154235850Y-79325000D03*
%TD*%
%TO.P,R9,1*%
%TO.N,Net-(C7-Pad1)*%
X158735850Y-81150000D03*
%TO.P,R9,2*%
%TO.N,GND*%
X158735850Y-82800000D03*
%TD*%
D24*
%TO.P,C17,1*%
%TO.N,GND*%
X168235850Y-72550000D03*
%TO.P,C17,2*%
%TO.N,+5V*%
X168235850Y-74450000D03*
%TD*%
D25*
%TO.P,U4,1*%
%TO.N,Net-(R3-Pad1)*%
X155285850Y-88387500D03*
%TO.P,U4,2,V-_2*%
%TO.N,GND*%
X156235850Y-88387500D03*
%TO.P,U4,3,+_3*%
%TO.N,Net-(U4-+)*%
X157185850Y-88387500D03*
%TO.P,U4,4,-_4*%
%TO.N,Net-(U4--)*%
X157185850Y-86112500D03*
%TO.P,U4,5,V+_5*%
%TO.N,+5V*%
X155285850Y-86112500D03*
%TD*%
D20*
%TO.P,C1,1*%
%TO.N,+5V*%
X159904260Y-72675499D03*
%TO.P,C1,2*%
%TO.N,GND*%
X162854260Y-72675499D03*
%TD*%
D16*
%TO.P,TP12,1,1_1*%
%TO.N,Net-(U5-VREF)*%
X149500000Y-70500000D03*
%TD*%
%TO.P,TP8,1,1_1*%
%TO.N,Net-(U7-P0B)*%
X149500000Y-111000000D03*
%TD*%
D19*
%TO.P,C7,1*%
%TO.N,Net-(C7-Pad1)*%
X156735850Y-81275000D03*
%TO.P,C7,2*%
%TO.N,Net-(U4--)*%
X156735850Y-84225000D03*
%TD*%
D26*
%TO.P,D1,1,K_1*%
%TO.N,GND*%
X164650000Y-104750000D03*
%TO.P,D1,2,A_2*%
%TO.N,Net-(D1-A)*%
X161350000Y-104750000D03*
%TD*%
D22*
%TO.P,FB2,1*%
%TO.N,+3.3V*%
X160650315Y-64800645D03*
%TO.P,FB2,2*%
%TO.N,Net-(FB2-Pad2)*%
X160650315Y-66925645D03*
%TD*%
D27*
%TO.P,C12,1*%
%TO.N,GND*%
X158235850Y-100750000D03*
%TO.P,C12,2*%
%TO.N,Net-(C12-Pad2)*%
X158235850Y-98850000D03*
%TD*%
D13*
%TO.P,R18,1*%
%TO.N,Net-(U5-VINB)*%
X152735850Y-67175000D03*
%TO.P,R18,2*%
%TO.N,Net-(U6--OUT)*%
X152735850Y-68825000D03*
%TD*%
D28*
%TO.P,U5,1,CLK_1*%
%TO.N,Net-(J2-GP12_RX)*%
X168368050Y-63475000D03*
%TO.P,U5,2,(LSB)BIT12_2*%
%TO.N,Net-(J2-GP11_TX)*%
X168368050Y-62824999D03*
%TO.P,U5,3,BIT11_3*%
%TO.N,Net-(J2-GP10_SCK)*%
X168368050Y-62175000D03*
%TO.P,U5,4,BIT10_4*%
%TO.N,Net-(J2-GP9_CSn)*%
X168368050Y-61524999D03*
%TO.P,U5,5,BIT9_5*%
%TO.N,Net-(J2-GP8_RX)*%
X168368050Y-60875001D03*
%TO.P,U5,6,BIT8_6*%
%TO.N,Net-(J2-GP7_TX)*%
X168368050Y-60224999D03*
%TO.P,U5,7,BIT7_7*%
%TO.N,Net-(J2-GP6_SCK)*%
X168368050Y-59575001D03*
%TO.P,U5,8,BIT6_8*%
%TO.N,Net-(J2-GP5_CSn)*%
X168368050Y-58925002D03*
%TO.P,U5,9,BIT5_9*%
%TO.N,Net-(J2-GP4_RX)*%
X168368050Y-58275001D03*
%TO.P,U5,10,BIT4_10*%
%TO.N,Net-(J2-GP3_TX)*%
X168368050Y-57625002D03*
%TO.P,U5,11,BIT3_11*%
%TO.N,Net-(J2-GP2_SCK)*%
X168368050Y-56975001D03*
%TO.P,U5,12,BIT2_12*%
%TO.N,Net-(J2-GP1_CSn)*%
X168368050Y-56325002D03*
%TO.P,U5,13,(MSB)BIT1_13*%
%TO.N,Net-(J2-GP0_RX)*%
X168368050Y-55675001D03*
%TO.P,U5,14,OTR_14*%
%TO.N,Net-(D3-A)*%
X168368050Y-55025002D03*
%TO.P,U5,15,AVDD_15*%
%TO.N,+5V*%
X161103650Y-55025000D03*
%TO.P,U5,16,AVSS_16*%
%TO.N,GND*%
X161103650Y-55675001D03*
%TO.P,U5,17,SENSE_17*%
X161103650Y-56325000D03*
%TO.P,U5,18,VREF_18*%
%TO.N,Net-(U5-VREF)*%
X161103650Y-56975001D03*
%TO.P,U5,19,REFCOM(AVSS)_19*%
%TO.N,GND*%
X161103650Y-57624999D03*
%TO.P,U5,20,CAPB_20*%
%TO.N,Net-(U5-CAPB)*%
X161103650Y-58275001D03*
%TO.P,U5,21,CAPT_21*%
%TO.N,Net-(U5-CAPT)*%
X161103650Y-58924999D03*
%TO.P,U5,22,MODE_22*%
%TO.N,GND*%
X161103650Y-59575001D03*
%TO.P,U5,23,VINA_23*%
%TO.N,Net-(U5-VINA)*%
X161103650Y-60224999D03*
%TO.P,U5,24,VINB_24*%
%TO.N,Net-(U5-VINB)*%
X161103650Y-60875001D03*
%TO.P,U5,25,AVSS_25*%
%TO.N,GND*%
X161103650Y-61524999D03*
%TO.P,U5,26,AVDD_26*%
%TO.N,+5V*%
X161103650Y-62175000D03*
%TO.P,U5,27,DRVSS_27*%
%TO.N,GND*%
X161103650Y-62824999D03*
%TO.P,U5,28,DRVDD_28*%
%TO.N,+3.3V*%
X161103650Y-63475000D03*
%TD*%
D16*
%TO.P,TP10,1,1_1*%
%TO.N,Net-(D3-A)*%
X149500000Y-61500000D03*
%TD*%
D29*
%TO.P,C10,1*%
%TO.N,GND*%
X162800000Y-93250000D03*
%TO.P,C10,2*%
%TO.N,Net-(U7-P0B)*%
X164700000Y-93250000D03*
%TD*%
D16*
%TO.P,TP1,1,1_1*%
%TO.N,Net-(U2-3Y)*%
X149500000Y-84000000D03*
%TD*%
D13*
%TO.P,R13,1*%
%TO.N,GND*%
X156235850Y-96425000D03*
%TO.P,R13,2*%
%TO.N,Net-(C12-Pad2)*%
X156235850Y-98075000D03*
%TD*%
D10*
%TO.P,C6,1*%
%TO.N,Net-(C6-Pad1)*%
X169725000Y-99500000D03*
%TO.P,C6,2*%
%TO.N,Net-(U3--)*%
X166775000Y-99500000D03*
%TD*%
D15*
%TO.P,R19,1*%
%TO.N,Net-(U6-+OUT)*%
X157735850Y-68825000D03*
%TO.P,R19,2*%
%TO.N,Net-(U5-VINA)*%
X157735850Y-67175000D03*
%TD*%
D30*
%TO.P,D2,1,K_1*%
%TO.N,Net-(D1-A)*%
X161350000Y-102250000D03*
%TO.P,D2,2,A_2*%
%TO.N,GND*%
X164650000Y-102250000D03*
%TD*%
D13*
%TO.P,R4,1*%
%TO.N,GND*%
X168750000Y-48550000D03*
%TO.P,R4,2*%
%TO.N,Net-(D3-K)*%
X168750000Y-50200000D03*
%TD*%
D31*
%TO.P,D3,1,K_1*%
%TO.N,Net-(D3-K)*%
X168750000Y-51800000D03*
%TO.P,D3,2,A_2*%
%TO.N,Net-(D3-A)*%
X168750000Y-53375000D03*
%TD*%
D17*
%TO.P,R8,1*%
%TO.N,Net-(C6-Pad1)*%
X169500000Y-101500000D03*
%TO.P,R8,2*%
%TO.N,GND*%
X167850000Y-101500000D03*
%TD*%
D11*
%TO.P,R2,1*%
%TO.N,Net-(C12-Pad2)*%
X158410850Y-97250000D03*
%TO.P,R2,2*%
%TO.N,Net-(U3-+)*%
X160060850Y-97250000D03*
%TD*%
D16*
%TO.P,TP5,1,1_1*%
%TO.N,GND*%
X149500000Y-115500000D03*
%TD*%
D13*
%TO.P,R12,1*%
%TO.N,Net-(C12-Pad2)*%
X156232934Y-99490597D03*
%TO.P,R12,2*%
%TO.N,+5V*%
X156232934Y-101140597D03*
%TD*%
D32*
%TO.P,J2,01,GP0_RX_01*%
%TO.N,Net-(J2-GP0_RX)*%
X175746000Y-49350000D03*
D33*
%TO.P,J2,02,GP1_CSn_02*%
%TO.N,Net-(J2-GP1_CSn)*%
X176000000Y-51890000D03*
%TO.P,J2,03,GND_03*%
%TO.N,GND*%
X175746000Y-54430000D03*
%TO.P,J2,04,GP2_SCK_04*%
%TO.N,Net-(J2-GP2_SCK)*%
X176000000Y-56970000D03*
%TO.P,J2,05,GP3_TX_05*%
%TO.N,Net-(J2-GP3_TX)*%
X175746000Y-59510000D03*
%TO.P,J2,06,GP4_RX_06*%
%TO.N,Net-(J2-GP4_RX)*%
X176000000Y-62050000D03*
%TO.P,J2,07,GP5_CSn_07*%
%TO.N,Net-(J2-GP5_CSn)*%
X175746000Y-64590000D03*
%TO.P,J2,08,GND_08*%
%TO.N,GND*%
X176000000Y-67130000D03*
%TO.P,J2,09,GP6_SCK_09*%
%TO.N,Net-(J2-GP6_SCK)*%
X175746000Y-69670000D03*
%TO.P,J2,10,GP7_TX_10*%
%TO.N,Net-(J2-GP7_TX)*%
X176000000Y-72210000D03*
%TO.P,J2,11,GP8_RX_11*%
%TO.N,Net-(J2-GP8_RX)*%
X175746000Y-74750000D03*
%TO.P,J2,12,GP9_CSn_12*%
%TO.N,Net-(J2-GP9_CSn)*%
X176000000Y-77290000D03*
%TO.P,J2,13,GND_13*%
%TO.N,GND*%
X175746000Y-79830000D03*
%TO.P,J2,14,GP10_SCK_14*%
%TO.N,Net-(J2-GP10_SCK)*%
X176000000Y-82370000D03*
%TO.P,J2,15,GP11_TX_15*%
%TO.N,Net-(J2-GP11_TX)*%
X175746000Y-84910000D03*
%TO.P,J2,16,GP12_RX_16*%
%TO.N,Net-(J2-GP12_RX)*%
X176000000Y-87450000D03*
%TO.P,J2,17,GP13_CSn_17*%
%TO.N,Net-(J2-GP13_CSn)*%
X175746000Y-89990000D03*
%TO.P,J2,18,GND_18*%
%TO.N,GND*%
X176000000Y-92530000D03*
%TO.P,J2,19,GP14_SCK_19*%
%TO.N,Net-(J2-GP14_SCK)*%
X175746000Y-95070000D03*
%TO.P,J2,20,GP15_TX_20*%
%TO.N,Net-(J2-GP15_TX)*%
X176000000Y-97610000D03*
%TO.P,J2,21,3V3_21*%
%TO.N,Net-(FB2-Pad2)*%
X175746000Y-100150000D03*
%TO.P,J2,22,GP31_TX_22*%
%TO.N,Net-(D4-A)*%
X176000000Y-102690000D03*
%TO.P,J2,23,GND_23*%
%TO.N,GND*%
X175746000Y-105230000D03*
%TO.P,J2,24,GP32_RX_24*%
%TO.N,unconnected-(J2-GP32_RX-Pad24)*%
X176000000Y-107770000D03*
%TO.P,J2,25,GP33_CSn_25*%
%TO.N,unconnected-(J2-GP33_CSn-Pad25)*%
X175746000Y-110310000D03*
%TO.P,J2,26,GP34_SCK_26*%
%TO.N,unconnected-(J2-GP34_SCK-Pad26)*%
X176000000Y-112850000D03*
%TO.P,J2,27,GP35_TX_27*%
%TO.N,unconnected-(J2-GP35_TX-Pad27)*%
X175746000Y-115390000D03*
%TO.P,J2,28,GND_28*%
%TO.N,GND*%
X176000000Y-117930000D03*
%TO.P,J2,29,GP36_RX_29*%
%TO.N,unconnected-(J2-GP36_RX-Pad29)*%
X175746000Y-120470000D03*
%TO.P,J2,30,GP37_CSn_30*%
%TO.N,unconnected-(J2-GP37_CSn-Pad30)*%
X176000000Y-123010000D03*
D32*
%TO.P,J2,31,GP38_SCK_31*%
%TO.N,unconnected-(J2-GP38_SCK-Pad31)*%
X191240000Y-123010000D03*
D33*
%TO.P,J2,32,GP39_TX_32*%
%TO.N,unconnected-(J2-GP39_TX-Pad32)*%
X190986000Y-120470000D03*
%TO.P,J2,33,GND_33*%
%TO.N,GND*%
X191240000Y-117930000D03*
%TO.P,J2,34,NC_34*%
%TO.N,unconnected-(J2-NC-Pad34)*%
X190986000Y-115390000D03*
%TO.P,J2,35,GP44_RX_35*%
%TO.N,unconnected-(J2-GP44_RX-Pad35)*%
X191240000Y-112850000D03*
%TO.P,J2,36,GP45_CSn_36*%
%TO.N,unconnected-(J2-GP45_CSn-Pad36)*%
X190986000Y-110310000D03*
%TO.P,J2,37,GP46_SCK_37*%
%TO.N,unconnected-(J2-GP46_SCK-Pad37)*%
X191240000Y-107770000D03*
%TO.P,J2,38,GND_38*%
%TO.N,GND*%
X190986000Y-105230000D03*
%TO.P,J2,39,NC_39*%
%TO.N,unconnected-(J2-NC-Pad39)*%
X191240000Y-102690000D03*
%TO.P,J2,40,GP30_BOOT_40*%
%TO.N,unconnected-(J2-GP30_BOOT-Pad40)*%
X190986000Y-100150000D03*
%TO.P,J2,41,GP16_RX_41*%
%TO.N,unconnected-(J2-GP16_RX-Pad41)*%
X191240000Y-97610000D03*
%TO.P,J2,42,GP17_CSn_42*%
%TO.N,unconnected-(J2-GP17_CSn-Pad42)*%
X190986000Y-95070000D03*
%TO.P,J2,43,GND_43*%
%TO.N,GND*%
X191240000Y-92530000D03*
%TO.P,J2,44,GP18_SCK_44*%
%TO.N,unconnected-(J2-GP18_SCK-Pad44)*%
X190986000Y-89990000D03*
%TO.P,J2,45,GP19_TX_45*%
%TO.N,unconnected-(J2-GP19_TX-Pad45)*%
X191240000Y-87450000D03*
%TO.P,J2,46,GP20_RX_46*%
%TO.N,unconnected-(J2-GP20_RX-Pad46)*%
X190986000Y-84910000D03*
%TO.P,J2,47,GP21_CSn_47*%
%TO.N,unconnected-(J2-GP21_CSn-Pad47)*%
X191240000Y-82370000D03*
%TO.P,J2,48,GND_48*%
%TO.N,GND*%
X190986000Y-79830000D03*
%TO.P,J2,49,GP22_SCK_49*%
%TO.N,unconnected-(J2-GP22_SCK-Pad49)*%
X191240000Y-77290000D03*
%TO.P,J2,50,RUN_50*%
%TO.N,unconnected-(J2-RUN-Pad50)*%
X190986000Y-74750000D03*
%TO.P,J2,51,GP26_SCK_ADC0_51*%
%TO.N,unconnected-(J2-GP26_SCK_ADC0-Pad51)*%
X191240000Y-72210000D03*
%TO.P,J2,52,GP27_TX_ADC1_52*%
%TO.N,unconnected-(J2-GP27_TX_ADC1-Pad52)*%
X190986000Y-69670000D03*
%TO.P,J2,53,GND_53*%
%TO.N,GND*%
X191240000Y-67130000D03*
%TO.P,J2,54,GP28_RX_ADC2_54*%
%TO.N,unconnected-(J2-GP28_RX_ADC2-Pad54)*%
X190986000Y-64590000D03*
%TO.P,J2,55,ADC_VREF_55*%
%TO.N,unconnected-(J2-ADC_VREF-Pad55)*%
X191240000Y-62050000D03*
%TO.P,J2,56,3V3_56*%
%TO.N,unconnected-(J2-3V3-Pad56)*%
X190986000Y-59510000D03*
%TO.P,J2,57,3V3_EN_57*%
%TO.N,unconnected-(J2-3V3_EN-Pad57)*%
X191240000Y-56970000D03*
%TO.P,J2,58,GND_58*%
%TO.N,GND*%
X190986000Y-54430000D03*
%TO.P,J2,59,VSYS_59*%
%TO.N,unconnected-(J2-VSYS-Pad59)*%
X191240000Y-51890000D03*
%TO.P,J2,60,VBUS_5V+_60*%
%TO.N,Net-(J2-VBUS_5V+)*%
X190986000Y-49350000D03*
%TD*%
D34*
%TO.P,U3,1*%
%TO.N,Net-(U7-P0A)*%
X162098350Y-95300000D03*
%TO.P,U3,2,V-_2*%
%TO.N,GND*%
X162098350Y-96250000D03*
%TO.P,U3,3,+_3*%
%TO.N,Net-(U3-+)*%
X162098350Y-97200000D03*
%TO.P,U3,4,-_4*%
%TO.N,Net-(U3--)*%
X164373350Y-97200000D03*
%TO.P,U3,5,V+_5*%
%TO.N,+5V*%
X164373350Y-95300000D03*
%TD*%
D16*
%TO.P,TP9,1,1_1*%
%TO.N,Net-(C12-Pad2)*%
X149500000Y-97500000D03*
%TD*%
D35*
%TO.P,R1,1*%
%TO.N,Net-(J1-SIGNAL)*%
X161359324Y-110149458D03*
%TO.P,R1,2*%
%TO.N,Net-(D1-A)*%
X161359324Y-108324458D03*
%TD*%
D36*
%TO.P,U7,1,\u002ACS_1*%
%TO.N,Net-(U2-3Y)*%
X166655000Y-86137800D03*
%TO.P,U7,2,SCK_2*%
%TO.N,Net-(U2-1Y)*%
X165385000Y-86137800D03*
%TO.P,U7,3,SDI/SDO_3*%
%TO.N,Net-(U2-2Y)*%
X164115000Y-86137800D03*
%TO.P,U7,4,VSS_4*%
%TO.N,GND*%
X162845000Y-86137800D03*
%TO.P,U7,5,P0A_5*%
%TO.N,Net-(U7-P0A)*%
X162845000Y-90862200D03*
%TO.P,U7,6,P0W_6*%
%TO.N,Net-(U4-+)*%
X164115000Y-90862200D03*
%TO.P,U7,7,P0B_7*%
%TO.N,Net-(U7-P0B)*%
X165385000Y-90862200D03*
%TO.P,U7,8,VDD_8*%
%TO.N,+5V*%
X166655000Y-90862200D03*
%TD*%
D16*
%TO.P,TP7,1,1_1*%
%TO.N,+5V*%
X149500000Y-66000000D03*
%TD*%
D27*
%TO.P,C18,1*%
%TO.N,Net-(U5-CAPT)*%
X158750000Y-59450000D03*
%TO.P,C18,2*%
%TO.N,Net-(U5-CAPB)*%
X158750000Y-57550000D03*
%TD*%
D16*
%TO.P,TP3,1,1_1*%
%TO.N,Net-(U4-+)*%
X149500000Y-93000000D03*
%TD*%
D23*
%TO.P,U2,1,\u002A1OE_1*%
%TO.N,GND*%
X163072400Y-76190000D03*
%TO.P,U2,2,1A_2*%
%TO.N,Net-(J2-GP14_SCK)*%
X163072400Y-77460000D03*
%TO.P,U2,3,1Y_3*%
%TO.N,Net-(U2-1Y)*%
X163072400Y-78730000D03*
%TO.P,U2,4,\u002A2OE_4*%
%TO.N,GND*%
X163072400Y-80000000D03*
%TO.P,U2,5,2A_5*%
%TO.N,Net-(J2-GP15_TX)*%
X163072400Y-81270000D03*
%TO.P,U2,6,2Y_6*%
%TO.N,Net-(U2-2Y)*%
X163072400Y-82540000D03*
%TO.P,U2,7,GND_7*%
%TO.N,GND*%
X163072400Y-83810000D03*
%TO.P,U2,8,3Y_8*%
%TO.N,Net-(U2-3Y)*%
X168000000Y-83810000D03*
%TO.P,U2,9,3A_9*%
%TO.N,Net-(J2-GP13_CSn)*%
X168000000Y-82540000D03*
%TO.P,U2,10,\u002A3OE_10*%
%TO.N,GND*%
X168000000Y-81270000D03*
%TO.P,U2,11,4Y_11*%
%TO.N,unconnected-(U2-4Y-Pad11)*%
X168000000Y-80000000D03*
%TO.P,U2,12,4A_12*%
%TO.N,GND*%
X168000000Y-78730000D03*
%TO.P,U2,13,\u002A4OE_13*%
X168000000Y-77460000D03*
%TO.P,U2,14,VCC_14*%
%TO.N,+5V*%
X168000000Y-76190000D03*
%TD*%
D13*
%TO.P,R3,1*%
%TO.N,Net-(R3-Pad1)*%
X153728926Y-89740963D03*
%TO.P,R3,2*%
%TO.N,Net-(C4-Pad1)*%
X153728926Y-91390963D03*
%TD*%
D37*
%TO.P,J1,1,SIGNAL_1*%
%TO.N,Net-(J1-SIGNAL)*%
X161300000Y-121975000D03*
D38*
%TO.P,J1,2,GND_2*%
%TO.N,GND*%
X163850000Y-124525000D03*
X163850000Y-119425000D03*
X158750000Y-124525000D03*
X158750000Y-119425000D03*
%TD*%
D11*
%TO.P,R11,1*%
%TO.N,GND*%
X168425000Y-91000000D03*
%TO.P,R11,2*%
%TO.N,Net-(U7-P0B)*%
X170075000Y-91000000D03*
%TD*%
D16*
%TO.P,TP13,1,1_1*%
%TO.N,Net-(J2-GP12_RX)*%
X149500000Y-75000000D03*
%TD*%
D11*
%TO.P,R10,1*%
%TO.N,Net-(U7-P0B)*%
X168425000Y-89250000D03*
%TO.P,R10,2*%
%TO.N,+5V*%
X170075000Y-89250000D03*
%TD*%
D19*
%TO.P,C19,1*%
%TO.N,Net-(U5-VREF)*%
X160295403Y-74938379D03*
%TO.P,C19,2*%
%TO.N,GND*%
X160295403Y-77888379D03*
%TD*%
D16*
%TO.P,TP6,1,1_1*%
%TO.N,GND*%
X149500000Y-57000000D03*
%TD*%
%TO.P,TP11,1,1_1*%
%TO.N,Net-(U6--IN)*%
X149500000Y-79500000D03*
%TD*%
D10*
%TO.P,C20,1*%
%TO.N,+5V*%
X166225000Y-68500000D03*
%TO.P,C20,2*%
%TO.N,GND*%
X163275000Y-68500000D03*
%TD*%
D16*
%TO.P,TP14,1,1_1*%
%TO.N,Net-(U3-+)*%
X149500000Y-106500000D03*
%TD*%
D21*
%TO.P,C4,1*%
%TO.N,Net-(C4-Pad1)*%
X153728926Y-92865305D03*
%TO.P,C4,2*%
%TO.N,GND*%
X153728926Y-94415305D03*
%TD*%
D10*
%TO.P,C5,1*%
%TO.N,GND*%
X169225000Y-96000000D03*
%TO.P,C5,2*%
%TO.N,+5V*%
X166275000Y-96000000D03*
%TD*%
D18*
%TO.P,C2,1*%
%TO.N,Net-(U5-VREF)*%
X165235850Y-74225000D03*
%TO.P,C2,2*%
%TO.N,GND*%
X165235850Y-71275000D03*
%TD*%
%TO.P,C21,2*%
%TO.N,GND*%
X160385027Y-50626832D03*
%TO.P,C21,1*%
%TO.N,+5V*%
X160385027Y-53576832D03*
%TD*%
D10*
%TO.P,C15,1*%
%TO.N,+5V*%
X158985850Y-61750000D03*
%TO.P,C15,2*%
%TO.N,GND*%
X156035850Y-61750000D03*
%TD*%
D39*
%TO.N,+5V*%
X157341316Y-65994097D03*
%TO.N,GND*%
X155985850Y-66000000D03*
X167500000Y-49500000D03*
%TO.N,Net-(D3-A)*%
X167500000Y-52250000D03*
%TO.N,GND*%
X162250000Y-50750000D03*
%TO.N,Net-(U6--IN)*%
X154435850Y-76500000D03*
%TO.N,+5V*%
X156232934Y-102315597D03*
X155235850Y-78500000D03*
X171750000Y-89250000D03*
X159750000Y-71000000D03*
X166250000Y-97750000D03*
X154235850Y-85500000D03*
X166985850Y-74500000D03*
%TO.N,GND*%
X162735850Y-63000000D03*
X156235850Y-95250000D03*
X161500000Y-93250000D03*
X166985850Y-71250000D03*
X159977938Y-83725000D03*
X164250000Y-106750000D03*
X166233471Y-81957497D03*
X164650000Y-100725000D03*
X164685850Y-80000000D03*
X162735850Y-56000000D03*
X165750000Y-76750000D03*
X162735850Y-74250000D03*
X156235850Y-89750000D03*
X160235850Y-79250000D03*
X164676117Y-83810001D03*
X162500000Y-66000000D03*
X160735850Y-95925000D03*
X153735850Y-96000000D03*
X154485850Y-73750000D03*
X162735850Y-59750000D03*
X170750000Y-95000000D03*
X162735850Y-57750000D03*
X159235850Y-101250000D03*
X166500000Y-102000000D03*
X162735850Y-61250000D03*
X155226665Y-80114108D03*
%TO.N,Net-(U7-P0A)*%
X159750000Y-95500000D03*
%TO.N,Net-(U3-+)*%
X159750000Y-98500000D03*
%TO.N,Net-(J2-VBUS_5V+)*%
X168250000Y-65000000D03*
%TO.N,Net-(U5-VINA)*%
X163485850Y-60500000D03*
X159250000Y-67000000D03*
%TO.N,Net-(U5-VREF)*%
X163485850Y-57000000D03*
X166735850Y-72750000D03*
%TO.N,Net-(U4-+)*%
X160000000Y-88500000D03*
%TO.N,Net-(U7-P0B)*%
X171185909Y-91498424D03*
%TO.N,Net-(FB2-Pad2)*%
X160750000Y-68250000D03*
%TO.N,Net-(J2-GP12_RX)*%
X169500000Y-71000000D03*
%TO.N,Net-(U2-3Y)*%
X169116499Y-84856957D03*
%TO.N,Net-(J2-GP13_CSn)*%
X166000000Y-83000000D03*
%TO.N,Net-(J2-GP14_SCK)*%
X165310850Y-78250000D03*
X171215000Y-92642884D03*
%TO.N,Net-(J2-GP15_TX)*%
X165250000Y-82000000D03*
X171250000Y-94000000D03*
%TD*%
%TO.N,+5V*%
D40*
X159410850Y-62175000D02*
X161103650Y-62175000D01*
X158985850Y-61750000D02*
X159410850Y-62175000D01*
%TO.N,Net-(D3-A)*%
X168750000Y-54950000D02*
X168750000Y-53375000D01*
X168674998Y-55025002D02*
X168750000Y-54950000D01*
X168368050Y-55025002D02*
X168674998Y-55025002D01*
%TO.N,Net-(U4-+)*%
X159887500Y-88387500D02*
X160000000Y-88500000D01*
X157185850Y-88387500D02*
X159887500Y-88387500D01*
X164115000Y-90212200D02*
X164115000Y-90862200D01*
X162402800Y-88500000D02*
X164115000Y-90212200D01*
X160000000Y-88500000D02*
X162402800Y-88500000D01*
%TO.N,Net-(U7-P0A)*%
X160875000Y-92832200D02*
X162845000Y-90862200D01*
X160875000Y-94076650D02*
X160875000Y-92832200D01*
X162098350Y-95300000D02*
X160875000Y-94076650D01*
%TO.N,GND*%
X161500000Y-93250000D02*
X162800000Y-93250000D01*
X168450000Y-48550000D02*
X167500000Y-49500000D01*
X168750000Y-48550000D02*
X168450000Y-48550000D01*
X162126832Y-50626832D02*
X162250000Y-50750000D01*
X160385027Y-50626832D02*
X162126832Y-50626832D01*
%TO.N,+5V*%
D41*
X161103650Y-54295455D02*
X161103650Y-54959101D01*
X160385027Y-53576832D02*
X161103650Y-54295455D01*
X161444053Y-53576832D02*
X160385027Y-53576832D01*
X164285850Y-56418629D02*
X161444053Y-53576832D01*
%TO.N,Net-(D3-A)*%
D42*
X168625000Y-53375000D02*
X167500000Y-52250000D01*
X168750000Y-53375000D02*
X168625000Y-53375000D01*
%TO.N,Net-(U4--)*%
D40*
X156960850Y-84225000D02*
X157235850Y-84500000D01*
X156048350Y-87250000D02*
X154310850Y-87250000D01*
X156735850Y-84225000D02*
X156960850Y-84225000D01*
X157185850Y-86112500D02*
X156048350Y-87250000D01*
X157235850Y-84500000D02*
X157185850Y-84550000D01*
X154310850Y-87250000D02*
X153735850Y-86675000D01*
X157185850Y-84550000D02*
X157185850Y-86112500D01*
%TO.N,Net-(R3-Pad1)*%
X153798350Y-88387500D02*
X153735850Y-88325000D01*
X153728926Y-88331924D02*
X153735850Y-88325000D01*
X155285850Y-88387500D02*
X153798350Y-88387500D01*
X153728926Y-89740963D02*
X153728926Y-88331924D01*
X153735850Y-89650000D02*
X153735850Y-88325000D01*
%TO.N,Net-(U6--IN)*%
D41*
X157135322Y-76469328D02*
X157699650Y-75905000D01*
D40*
X156250000Y-77675000D02*
X155610850Y-77675000D01*
X156085850Y-75255000D02*
X156735850Y-75905000D01*
D41*
X157135322Y-77373214D02*
X157141816Y-77366720D01*
X157135322Y-77675000D02*
X157135322Y-77123214D01*
X157135322Y-77360226D02*
X157135322Y-76469328D01*
D40*
X156735850Y-75905000D02*
X157699650Y-75905000D01*
X156085850Y-70250000D02*
X156085850Y-75255000D01*
D41*
X157141816Y-77366720D02*
X157135322Y-77360226D01*
X157135322Y-77675000D02*
X156235850Y-77675000D01*
D40*
X156085850Y-70250000D02*
X155985850Y-70250000D01*
D41*
X156250000Y-77675000D02*
X157135322Y-77675000D01*
D40*
X155610850Y-77675000D02*
X154435850Y-76500000D01*
D41*
X158000000Y-77675000D02*
X157135322Y-77675000D01*
%TO.N,+5V*%
X164825000Y-69900000D02*
X160850000Y-69900000D01*
X154235850Y-85500000D02*
X154235850Y-84225000D01*
X166655000Y-93370000D02*
X166525000Y-93500000D01*
X156250000Y-79325000D02*
X156060850Y-79325000D01*
X166250000Y-96025000D02*
X166275000Y-96000000D01*
X157699650Y-73365000D02*
X159214759Y-73365000D01*
X154475000Y-84225000D02*
X155285850Y-85035850D01*
X170075000Y-89250000D02*
X171750000Y-89250000D01*
X166655000Y-90862200D02*
X166655000Y-93370000D01*
X164373350Y-95300000D02*
X165575000Y-95300000D01*
X168000000Y-74685850D02*
X168235850Y-74450000D01*
D40*
X164398350Y-95275000D02*
X164373350Y-95300000D01*
D41*
X159750000Y-72521239D02*
X159904260Y-72675499D01*
X160850000Y-69900000D02*
X159750000Y-71000000D01*
X159750000Y-71000000D02*
X159750000Y-72521239D01*
X166525000Y-95750000D02*
X166275000Y-96000000D01*
X168185850Y-74500000D02*
X168235850Y-74450000D01*
D40*
X166287500Y-67812500D02*
X166225000Y-67750000D01*
D41*
X166655000Y-93120000D02*
X166525000Y-93250000D01*
D40*
X166500000Y-91017200D02*
X166655000Y-90862200D01*
D41*
X166525000Y-93500000D02*
X166525000Y-95750000D01*
X168250000Y-68312500D02*
X166412500Y-68312500D01*
X166250000Y-97750000D02*
X166250000Y-96025000D01*
X154235850Y-84225000D02*
X154475000Y-84225000D01*
X159214759Y-73365000D02*
X159904260Y-72675499D01*
X166225000Y-68500000D02*
X164825000Y-69900000D01*
X165575000Y-95300000D02*
X166275000Y-96000000D01*
X155285850Y-85035850D02*
X155285850Y-86112500D01*
X166985850Y-74500000D02*
X168185850Y-74500000D01*
X156060850Y-79325000D02*
X155235850Y-78500000D01*
X168000000Y-76190000D02*
X168000000Y-74685850D01*
X166412500Y-68312500D02*
X166225000Y-68500000D01*
X156232934Y-101140597D02*
X156232934Y-102315597D01*
%TO.N,Net-(U6--OUT)*%
D40*
X152692050Y-72175000D02*
X152772050Y-72095000D01*
X152735850Y-72058800D02*
X152772050Y-72095000D01*
X152735850Y-68825000D02*
X152735850Y-72058800D01*
X152122050Y-72095000D02*
X152772050Y-72095000D01*
%TO.N,Net-(U6-+IN)*%
X154235850Y-77675000D02*
X153885850Y-77675000D01*
X152772050Y-75905000D02*
X152060850Y-75905000D01*
X155110850Y-74277400D02*
X153483250Y-75905000D01*
X155110850Y-71285850D02*
X155110850Y-74277400D01*
X154235850Y-77368800D02*
X152772050Y-75905000D01*
X154325000Y-70500000D02*
X155110850Y-71285850D01*
X153483250Y-75905000D02*
X152772050Y-75905000D01*
X154235850Y-77675000D02*
X154235850Y-77368800D01*
%TO.N,GND*%
X155877413Y-64251576D02*
X155877413Y-61908437D01*
X169475000Y-93250000D02*
X169475000Y-92050000D01*
D41*
X162735850Y-74250000D02*
X162735850Y-72793909D01*
X154100850Y-73365000D02*
X154485850Y-73750000D01*
D40*
X155877413Y-61908437D02*
X156035850Y-61750000D01*
X158735850Y-100750000D02*
X159235850Y-101250000D01*
D41*
X163275000Y-68500000D02*
X163275000Y-66775000D01*
D40*
X153728926Y-95493076D02*
X153728926Y-94415305D01*
D41*
X154235850Y-81104923D02*
X155226665Y-80114108D01*
D40*
X161103650Y-55675001D02*
X162410851Y-55675001D01*
D41*
X168000000Y-77460000D02*
X166460000Y-77460000D01*
X160295403Y-77888379D02*
X160295403Y-79190447D01*
X153735850Y-96000000D02*
X153735850Y-94422229D01*
D43*
X164650000Y-102250000D02*
X164650000Y-103500000D01*
D40*
X160735850Y-95925000D02*
X161060850Y-96250000D01*
D41*
X154235850Y-81275000D02*
X154235850Y-81104923D01*
D40*
X162735850Y-61299998D02*
X162510849Y-61524999D01*
X153735850Y-96000000D02*
X153735850Y-95500000D01*
X169475000Y-92050000D02*
X168425000Y-91000000D01*
X161103650Y-59575001D02*
X162560851Y-59575001D01*
D41*
X159052938Y-82800000D02*
X159977938Y-83725000D01*
D40*
X162610849Y-57624999D02*
X162735850Y-57750000D01*
X169225000Y-96000000D02*
X169750000Y-96000000D01*
X153735850Y-95500000D02*
X153728926Y-95493076D01*
D41*
X153735850Y-94422229D02*
X153728926Y-94415305D01*
X166920968Y-81270000D02*
X166233471Y-81957497D01*
X163072400Y-76190000D02*
X165190000Y-76190000D01*
X156235850Y-95250000D02*
X156235850Y-96425000D01*
D40*
X154235850Y-81275000D02*
X154235850Y-81000000D01*
D41*
X168000000Y-81270000D02*
X166920968Y-81270000D01*
X163072400Y-80000000D02*
X164685850Y-80000000D01*
X163072400Y-83810000D02*
X164676116Y-83810000D01*
D40*
X169750000Y-96000000D02*
X170750000Y-95000000D01*
D41*
X168000000Y-78730000D02*
X168000000Y-77460000D01*
D40*
X162735850Y-61250000D02*
X162735850Y-61299998D01*
X161103650Y-62824999D02*
X162560849Y-62824999D01*
D41*
X166460000Y-77460000D02*
X165750000Y-76750000D01*
D40*
X157985850Y-79325000D02*
X160160850Y-79325000D01*
X170750000Y-94525000D02*
X169475000Y-93250000D01*
X162911082Y-106738335D02*
X164238335Y-106738335D01*
D41*
X158000000Y-79325000D02*
X160160850Y-79325000D01*
D40*
X162845000Y-84037400D02*
X163072400Y-83810000D01*
D41*
X160295403Y-79190447D02*
X160235850Y-79250000D01*
D40*
X156235850Y-88387500D02*
X156235850Y-89750000D01*
X170750000Y-95000000D02*
X170750000Y-94525000D01*
X161103650Y-57624999D02*
X162610849Y-57624999D01*
D41*
X160160850Y-79325000D02*
X160235850Y-79250000D01*
D40*
X162560849Y-62824999D02*
X162735850Y-63000000D01*
X162845000Y-86137800D02*
X162845000Y-84037400D01*
D41*
X158735850Y-82800000D02*
X159052938Y-82800000D01*
X152772050Y-73365000D02*
X154100850Y-73365000D01*
D40*
X153735850Y-95500000D02*
X153737309Y-95498541D01*
X161060850Y-96250000D02*
X162098350Y-96250000D01*
X162410851Y-55675001D02*
X162735850Y-56000000D01*
X162510849Y-61524999D02*
X161103650Y-61524999D01*
D43*
X164650000Y-100725000D02*
X164650000Y-103500000D01*
D40*
X153737309Y-95498541D02*
X153737309Y-94298081D01*
D41*
X168235850Y-72500000D02*
X166985850Y-71250000D01*
D43*
X164650000Y-103500000D02*
X164650000Y-104750000D01*
D41*
X162500000Y-66000000D02*
X163275000Y-66775000D01*
D40*
X167850000Y-101500000D02*
X167000000Y-101500000D01*
X164238335Y-106738335D02*
X164250000Y-106750000D01*
X161103650Y-56325000D02*
X162410850Y-56325000D01*
D41*
X165190000Y-76190000D02*
X165750000Y-76750000D01*
D40*
X167000000Y-101500000D02*
X166500000Y-102000000D01*
D41*
X166985850Y-71250000D02*
X165260850Y-71250000D01*
X164676116Y-83810000D02*
X164676117Y-83810001D01*
X168235850Y-72550000D02*
X168235850Y-72500000D01*
D40*
X162560851Y-59575001D02*
X162735850Y-59750000D01*
X162410850Y-56325000D02*
X162735850Y-56000000D01*
D41*
X162735850Y-72793909D02*
X162854260Y-72675499D01*
X165260850Y-71250000D02*
X165235850Y-71275000D01*
%TO.N,Net-(D1-A)*%
D43*
X161350000Y-100301071D02*
X161365947Y-100285124D01*
X161350000Y-104750000D02*
X161350000Y-102250000D01*
X161359324Y-108324458D02*
X161359324Y-104759324D01*
X161350000Y-102250000D02*
X161350000Y-100301071D01*
X161359324Y-104759324D02*
X161350000Y-104750000D01*
%TO.N,Net-(U7-P0A)*%
D40*
X162098350Y-95300000D02*
X159950000Y-95300000D01*
X163497593Y-98808897D02*
X163250000Y-98561304D01*
X159950000Y-95300000D02*
X159750000Y-95500000D01*
X162486758Y-95300000D02*
X162098350Y-95300000D01*
X163250000Y-96063242D02*
X162486758Y-95300000D01*
X163250000Y-98561304D02*
X163250000Y-96063242D01*
%TO.N,Net-(U6-+OUT)*%
X157735850Y-72058800D02*
X157699650Y-72095000D01*
X157735850Y-70250000D02*
X157735850Y-72058800D01*
X157755496Y-68844646D02*
X157735850Y-68825000D01*
X157755496Y-70338097D02*
X157755496Y-68844646D01*
%TO.N,Net-(U3--)*%
X165147593Y-97974243D02*
X164373350Y-97200000D01*
X165147593Y-98808897D02*
X165147593Y-97974243D01*
X165147593Y-98808897D02*
X166083897Y-98808897D01*
X166083897Y-98808897D02*
X166775000Y-99500000D01*
%TO.N,Net-(C4-Pad1)*%
X153728926Y-92865305D02*
X153728926Y-91390963D01*
X151590963Y-90590963D02*
X149500000Y-88500000D01*
X153735850Y-92700000D02*
X153735850Y-91300000D01*
X152928926Y-90590963D02*
X151590963Y-90590963D01*
X152928926Y-90590963D02*
X153728926Y-91390963D01*
X154235850Y-79325000D02*
X152928926Y-80631924D01*
X152928926Y-80631924D02*
X152928926Y-90590963D01*
%TO.N,Net-(U5-CAPT)*%
X158750000Y-59450000D02*
X156525000Y-59450000D01*
D42*
X159275001Y-58924999D02*
X161103650Y-58924999D01*
D40*
X156260850Y-59450000D02*
X156235850Y-59475000D01*
D42*
X158750000Y-59450000D02*
X159275001Y-58924999D01*
%TO.N,Net-(U5-CAPB)*%
D40*
X158750000Y-57550000D02*
X157525000Y-57550000D01*
X157525000Y-57550000D02*
X156500000Y-56525000D01*
D42*
X161103650Y-58275001D02*
X159475001Y-58275001D01*
X159475001Y-58275001D02*
X158750000Y-57550000D01*
%TO.N,Net-(U3-+)*%
D40*
X162010850Y-97287500D02*
X162098350Y-97200000D01*
D41*
X162098350Y-97200000D02*
X162098350Y-98002721D01*
X162098350Y-98002721D02*
X161365947Y-98735124D01*
X161130823Y-98500000D02*
X161365947Y-98735124D01*
D40*
X162098350Y-97200000D02*
X160110850Y-97200000D01*
D41*
X159750000Y-98500000D02*
X161130823Y-98500000D01*
%TO.N,Net-(J2-VBUS_5V+)*%
X168250000Y-65000000D02*
X168250000Y-66187500D01*
%TO.N,Net-(U5-VINA)*%
D40*
X159250000Y-67000000D02*
X157910850Y-67000000D01*
X162326965Y-60224999D02*
X162601966Y-60500000D01*
X157735850Y-67175000D02*
X156085850Y-67175000D01*
X162601966Y-60500000D02*
X163485850Y-60500000D01*
X156160850Y-67100000D02*
X156010850Y-67250000D01*
X161103650Y-60224999D02*
X162326965Y-60224999D01*
X156085850Y-67175000D02*
X156010850Y-67250000D01*
X157910850Y-67000000D02*
X157735850Y-67175000D01*
%TO.N,Net-(U5-VINB)*%
X159555950Y-60525000D02*
X155465750Y-60525000D01*
X152735850Y-67175000D02*
X154385850Y-67175000D01*
X154385850Y-67175000D02*
X154460850Y-67250000D01*
X159905951Y-60875001D02*
X159555950Y-60525000D01*
X161103650Y-60875001D02*
X159905951Y-60875001D01*
%TO.N,Net-(U5-VREF)*%
X163485850Y-57000000D02*
X161128649Y-57000000D01*
D41*
X166735850Y-72750000D02*
X166710850Y-72750000D01*
D40*
X159992024Y-74635000D02*
X160295403Y-74938379D01*
X157699650Y-74635000D02*
X159992024Y-74635000D01*
X161128649Y-57000000D02*
X161103650Y-56975001D01*
D41*
X166710850Y-72750000D02*
X165235850Y-74225000D01*
D40*
X157839650Y-74775000D02*
X157699650Y-74635000D01*
D41*
X160407024Y-75050000D02*
X160295403Y-74938379D01*
X164410850Y-75050000D02*
X160407024Y-75050000D01*
X165235850Y-74225000D02*
X164410850Y-75050000D01*
%TO.N,Net-(C7-Pad1)*%
D40*
X156735850Y-81275000D02*
X158610850Y-81275000D01*
X158610850Y-81275000D02*
X158735850Y-81150000D01*
%TO.N,Net-(U4-+)*%
X164115000Y-90862200D02*
X164115000Y-90151000D01*
%TO.N,Net-(U7-P0B)*%
X168425000Y-89250000D02*
X166347200Y-89250000D01*
X165385000Y-90212200D02*
X165385000Y-90862200D01*
X170075000Y-91000000D02*
X170687485Y-91000000D01*
X165385000Y-92565000D02*
X165385000Y-90862200D01*
X168425000Y-89350000D02*
X170075000Y-91000000D01*
X164700000Y-93250000D02*
X165385000Y-92565000D01*
X168425000Y-89250000D02*
X168425000Y-89350000D01*
X165550000Y-91027200D02*
X165385000Y-90862200D01*
X170075000Y-91000000D02*
X169925000Y-91000000D01*
X166347200Y-89250000D02*
X165385000Y-90212200D01*
X170687485Y-91000000D02*
X171185909Y-91498424D01*
%TO.N,+3.3V*%
X161103650Y-63475000D02*
X159603989Y-63475000D01*
X159603989Y-63475000D02*
X158827413Y-64251576D01*
D41*
X160650315Y-64800645D02*
X159376482Y-64800645D01*
X159376482Y-64800645D02*
X158827413Y-64251576D01*
%TO.N,Net-(FB2-Pad2)*%
X160750000Y-68250000D02*
X160750000Y-67025330D01*
X160750000Y-67025330D02*
X160650315Y-66925645D01*
%TO.N,Net-(C12-Pad2)*%
D40*
X155825000Y-98075000D02*
X155250000Y-97500000D01*
X156235850Y-98075000D02*
X155825000Y-98075000D01*
D41*
X158235850Y-98850000D02*
X156335850Y-98850000D01*
X158235850Y-97425000D02*
X158410850Y-97250000D01*
X156232934Y-98952916D02*
X156335850Y-98850000D01*
X156235850Y-98075000D02*
X156235850Y-98750000D01*
X158235850Y-98850000D02*
X158235850Y-97425000D01*
X156235850Y-98750000D02*
X156335850Y-98850000D01*
D40*
X155250000Y-97500000D02*
X149500000Y-97500000D01*
%TO.N,Net-(J2-GP12_RX)*%
X170000000Y-70500000D02*
X170000000Y-81450000D01*
X168368050Y-63475000D02*
X170000000Y-65106950D01*
X169500000Y-71000000D02*
X170000000Y-70500000D01*
X176000000Y-87500000D02*
X176000000Y-87520000D01*
X170000000Y-65106950D02*
X170000000Y-70500000D01*
X176000000Y-87450000D02*
X170000000Y-81450000D01*
%TO.N,Net-(J2-GP11_TX)*%
X170500000Y-64000000D02*
X170500000Y-79664000D01*
X168368050Y-62824999D02*
X169324999Y-62824999D01*
X170500000Y-79664000D02*
X175746000Y-84910000D01*
X169324999Y-62824999D02*
X170500000Y-64000000D01*
%TO.N,Net-(J2-GP10_SCK)*%
X171000000Y-77370000D02*
X171000000Y-63497526D01*
X171000000Y-63497526D02*
X169677474Y-62175000D01*
X176000000Y-82370000D02*
X171000000Y-77370000D01*
X169677474Y-62175000D02*
X168368050Y-62175000D01*
%TO.N,Net-(J2-GP9_CSn)*%
X170024999Y-61524999D02*
X168368050Y-61524999D01*
X171750000Y-63250000D02*
X170024999Y-61524999D01*
X171750000Y-73040000D02*
X171750000Y-63250000D01*
X176000000Y-77290000D02*
X171750000Y-73040000D01*
%TO.N,Net-(J2-GP8_RX)*%
X170375001Y-60875001D02*
X168368050Y-60875001D01*
X172500000Y-63000000D02*
X170375001Y-60875001D01*
X175746000Y-74750000D02*
X172500000Y-71504000D01*
X172500000Y-71504000D02*
X172500000Y-63000000D01*
%TO.N,Net-(J2-GP7_TX)*%
X170724999Y-60224999D02*
X168368050Y-60224999D01*
X173250000Y-62750000D02*
X170724999Y-60224999D01*
X176000000Y-72210000D02*
X173250000Y-69460000D01*
X173250000Y-69460000D02*
X173250000Y-62750000D01*
%TO.N,Net-(J2-GP6_SCK)*%
X168368050Y-59575001D02*
X171075001Y-59575001D01*
X174000000Y-62500000D02*
X174000000Y-67924000D01*
X174000000Y-67924000D02*
X175746000Y-69670000D01*
X171075001Y-59575001D02*
X174000000Y-62500000D01*
%TO.N,Net-(J2-GP5_CSn)*%
X175746000Y-63246000D02*
X175746000Y-64590000D01*
X171425002Y-58925002D02*
X175746000Y-63246000D01*
X168368050Y-58925002D02*
X171425002Y-58925002D01*
%TO.N,Net-(J2-GP4_RX)*%
X172775001Y-58275001D02*
X176000000Y-61500000D01*
X176000000Y-61500000D02*
X176000000Y-62050000D01*
X168368050Y-58275001D02*
X172775001Y-58275001D01*
%TO.N,Net-(J2-GP3_TX)*%
X168470199Y-57522853D02*
X173758853Y-57522853D01*
X168368050Y-57625002D02*
X168470199Y-57522853D01*
X173758853Y-57522853D02*
X175746000Y-59510000D01*
%TO.N,Net-(J2-GP2_SCK)*%
X175935001Y-56975001D02*
X176000000Y-57040000D01*
X171774999Y-56975001D02*
X171780000Y-56970000D01*
X168368050Y-56975001D02*
X171774999Y-56975001D01*
X171780000Y-56970000D02*
X176000000Y-56970000D01*
%TO.N,Net-(J2-GP1_CSn)*%
X171564998Y-56325002D02*
X168368050Y-56325002D01*
X176000000Y-51890000D02*
X171564998Y-56325002D01*
%TO.N,Net-(J2-GP0_RX)*%
X169420999Y-55675001D02*
X168368050Y-55675001D01*
X175746000Y-49350000D02*
X169420999Y-55675001D01*
%TO.N,Net-(D3-A)*%
X168750000Y-53375000D02*
X168750000Y-53139150D01*
%TO.N,Net-(U2-3Y)*%
X167810000Y-84000000D02*
X167250000Y-84000000D01*
X168000000Y-83810000D02*
X168069542Y-83810000D01*
X168000000Y-83810000D02*
X167810000Y-84000000D01*
X167750000Y-83750000D02*
X167810000Y-83810000D01*
X168069542Y-83810000D02*
X169116499Y-84856957D01*
X167810000Y-83810000D02*
X168210000Y-83810000D01*
X166655000Y-86137800D02*
X166655000Y-84595000D01*
X168210000Y-83810000D02*
X168210000Y-83950458D01*
X166655000Y-84595000D02*
X167250000Y-84000000D01*
%TO.N,Net-(C6-Pad1)*%
X169500000Y-99725000D02*
X169725000Y-99500000D01*
X169500000Y-101500000D02*
X169500000Y-99725000D01*
%TO.N,Net-(D3-K)*%
X168750000Y-51800000D02*
X168750000Y-50200000D01*
%TO.N,Net-(J2-GP13_CSn)*%
X168000000Y-82540000D02*
X166460000Y-82540000D01*
X166460000Y-82540000D02*
X166000000Y-83000000D01*
X168210000Y-82540000D02*
X168660850Y-82540000D01*
%TO.N,Net-(J2-GP14_SCK)*%
X171161058Y-92588942D02*
X171215000Y-92642884D01*
X171215000Y-92642884D02*
X173642116Y-95070000D01*
X173642116Y-95070000D02*
X175746000Y-95070000D01*
X164520850Y-77460000D02*
X165310850Y-78250000D01*
X163072400Y-77460000D02*
X164520850Y-77460000D01*
%TO.N,Net-(J2-GP15_TX)*%
X163072400Y-81270000D02*
X164520000Y-81270000D01*
X174860000Y-97610000D02*
X176000000Y-97610000D01*
X171250000Y-94000000D02*
X174860000Y-97610000D01*
X164520000Y-81270000D02*
X165250000Y-82000000D01*
%TO.N,Net-(J1-SIGNAL)*%
D43*
X161300000Y-121975000D02*
X161300000Y-110208782D01*
X161300000Y-110208782D02*
X161359324Y-110149458D01*
%TO.N,Net-(U2-1Y)*%
D40*
X165385000Y-86849000D02*
X165385000Y-86137800D01*
X164780600Y-87453400D02*
X165385000Y-86849000D01*
X161756800Y-79395600D02*
X161756800Y-86969600D01*
X161756800Y-86969600D02*
X162240600Y-87453400D01*
X163072400Y-78730000D02*
X162422400Y-78730000D01*
X162240600Y-87453400D02*
X164780600Y-87453400D01*
X162310850Y-78730000D02*
X163072400Y-78730000D01*
X162422400Y-78730000D02*
X161756800Y-79395600D01*
%TO.N,Net-(U2-2Y)*%
X162372050Y-82540000D02*
X162761700Y-82540000D01*
X164115000Y-85255002D02*
X165301117Y-84068885D01*
X163072400Y-82540000D02*
X162361200Y-82540000D01*
X164313000Y-82540000D02*
X163072400Y-82540000D01*
X164115000Y-86137800D02*
X164115000Y-85255002D01*
X165301117Y-84068885D02*
X165301117Y-83528117D01*
X165301117Y-83528117D02*
X164313000Y-82540000D01*
%TO.N,+5V*%
D41*
X164285850Y-64285850D02*
X164285850Y-56418629D01*
X166225000Y-66225000D02*
X164285850Y-64285850D01*
X166225000Y-68500000D02*
X166225000Y-66225000D01*
%TO.N,GND*%
D40*
X168425000Y-103250000D02*
X167750000Y-103250000D01*
X167750000Y-103250000D02*
X166500000Y-102000000D01*
%TO.N,Net-(D4-K)*%
X171712500Y-103250000D02*
X170075000Y-103250000D01*
%TO.N,Net-(D4-A)*%
X176000000Y-102690000D02*
X173847500Y-102690000D01*
X173847500Y-102690000D02*
X173287500Y-103250000D01*
%TO.N,GND*%
X156035850Y-65950000D02*
X155985850Y-66000000D01*
X155877413Y-65891563D02*
X155985850Y-66000000D01*
X155877413Y-64251576D02*
X155877413Y-65891563D01*
%TO.N,Net-(U5-VINB)*%
X155465750Y-60525000D02*
X154460850Y-61529900D01*
X154460850Y-61529900D02*
X154460850Y-67250000D01*
%TO.N,+5V*%
D41*
X157341316Y-63394534D02*
X158985850Y-61750000D01*
X157341316Y-65994097D02*
X157341316Y-63394534D01*
%TD*%
M02*
