%TF.GenerationSoftware,KiCad,Pcbnew,10.0.5*%
%TF.CreationDate,2026-08-20T01:13:31-06:00*%
%TF.ProjectId,ADC_AMP_with_MCP4161,4144435f-414d-4505-9f77-6974685f4d43,rev?*%
%TF.SameCoordinates,Original*%
%TF.FileFunction,Soldermask,Top*%
%TF.FilePolarity,Negative*%
%FSLAX46Y46*%
G04 Gerber Fmt 4.6, Leading zero omitted, Abs format (unit mm)*
G04 Created by KiCad (PCBNEW 10.0.5) date 2026-08-20 01:13:31*
%MOMM*%
%LPD*%
G01*
G04 APERTURE LIST*
G04 Aperture macros list*
%AMRoundRect*
0 Rectangle with rounded corners*
0 $1 Rounding radius*
0 $2 $3 $4 $5 $6 $7 $8 $9 X,Y pos of 4 corners*
0 Add a 4 corners polygon primitive as box body*
4,1,4,$2,$3,$4,$5,$6,$7,$8,$9,$2,$3,0*
0 Add four circle primitives for the rounded corners*
1,1,$1+$1,$2,$3*
1,1,$1+$1,$4,$5*
1,1,$1+$1,$6,$7*
1,1,$1+$1,$8,$9*
0 Add four rect primitives between the rounded corners*
20,1,$1+$1,$2,$3,$4,$5,0*
20,1,$1+$1,$4,$5,$6,$7,0*
20,1,$1+$1,$6,$7,$8,$9,0*
20,1,$1+$1,$8,$9,$2,$3,0*%
G04 Aperture macros list end*
%ADD10RoundRect,0.250000X0.325000X0.650000X-0.325000X0.650000X-0.325000X-0.650000X0.325000X-0.650000X0*%
%ADD11RoundRect,0.200000X-0.200000X-0.275000X0.200000X-0.275000X0.200000X0.275000X-0.200000X0.275000X0*%
%ADD12RoundRect,0.218750X-0.218750X-0.256250X0.218750X-0.256250X0.218750X0.256250X-0.218750X0.256250X0*%
%ADD13RoundRect,0.200000X-0.275000X0.200000X-0.275000X-0.200000X0.275000X-0.200000X0.275000X0.200000X0*%
%ADD14RoundRect,0.225000X0.225000X0.250000X-0.225000X0.250000X-0.225000X-0.250000X0.225000X-0.250000X0*%
%ADD15RoundRect,0.200000X0.275000X-0.200000X0.275000X0.200000X-0.275000X0.200000X-0.275000X-0.200000X0*%
%ADD16C,2.000000*%
%ADD17RoundRect,0.200000X0.200000X0.275000X-0.200000X0.275000X-0.200000X-0.275000X0.200000X-0.275000X0*%
%ADD18RoundRect,0.250000X0.650000X-0.325000X0.650000X0.325000X-0.650000X0.325000X-0.650000X-0.325000X0*%
%ADD19RoundRect,0.250000X-0.650000X0.325000X-0.650000X-0.325000X0.650000X-0.325000X0.650000X0.325000X0*%
%ADD20RoundRect,0.250000X-0.325000X-0.650000X0.325000X-0.650000X0.325000X0.650000X-0.325000X0.650000X0*%
%ADD21RoundRect,0.225000X-0.250000X0.225000X-0.250000X-0.225000X0.250000X-0.225000X0.250000X0.225000X0*%
%ADD22RoundRect,0.218750X-0.381250X0.218750X-0.381250X-0.218750X0.381250X-0.218750X0.381250X0.218750X0*%
%ADD23R,1.981200X0.558800*%
%ADD24RoundRect,0.250000X-0.475000X0.250000X-0.475000X-0.250000X0.475000X-0.250000X0.475000X0.250000X0*%
%ADD25RoundRect,0.150000X0.150000X-0.512500X0.150000X0.512500X-0.150000X0.512500X-0.150000X-0.512500X0*%
%ADD26RoundRect,0.225000X0.225000X0.375000X-0.225000X0.375000X-0.225000X-0.375000X0.225000X-0.375000X0*%
%ADD27RoundRect,0.250000X0.475000X-0.250000X0.475000X0.250000X-0.475000X0.250000X-0.475000X-0.250000X0*%
%ADD28R,1.651000X0.431800*%
%ADD29RoundRect,0.250000X-0.250000X-0.475000X0.250000X-0.475000X0.250000X0.475000X-0.250000X0.475000X0*%
%ADD30RoundRect,0.225000X-0.225000X-0.375000X0.225000X-0.375000X0.225000X0.375000X-0.225000X0.375000X0*%
%ADD31RoundRect,0.218750X-0.256250X0.218750X-0.256250X-0.218750X0.256250X-0.218750X0.256250X0.218750X0*%
%ADD32RoundRect,0.102000X-0.685000X0.685000X-0.685000X-0.685000X0.685000X-0.685000X0.685000X0.685000X0*%
%ADD33C,1.574000*%
%ADD34RoundRect,0.102000X0.685000X-0.685000X0.685000X0.685000X-0.685000X0.685000X-0.685000X-0.685000X0*%
%ADD35RoundRect,0.150000X-0.512500X-0.150000X0.512500X-0.150000X0.512500X0.150000X-0.512500X0.150000X0*%
%ADD36RoundRect,0.250000X0.450000X-0.262500X0.450000X0.262500X-0.450000X0.262500X-0.450000X-0.262500X0*%
%ADD37R,0.558800X1.981200*%
%ADD38RoundRect,0.200100X0.949900X0.949900X-0.949900X0.949900X-0.949900X-0.949900X0.949900X-0.949900X0*%
%ADD39C,2.200000*%
G04 APERTURE END LIST*
D10*
%TO.C,C14*%
X155877413Y-64251576D03*
X158827413Y-64251576D03*
%TD*%
D11*
%TO.C,R15*%
X170075000Y-103250000D03*
X168425000Y-103250000D03*
%TD*%
D12*
%TO.C,D4*%
X171712500Y-103250000D03*
X173287500Y-103250000D03*
%TD*%
D13*
%TO.C,R7*%
X153735850Y-86675000D03*
X153735850Y-88325000D03*
%TD*%
%TO.C,R14*%
X156250000Y-77675000D03*
X156250000Y-79325000D03*
%TD*%
D11*
%TO.C,R17*%
X152675000Y-70500000D03*
X154325000Y-70500000D03*
%TD*%
D14*
%TO.C,C16*%
X162911082Y-106738335D03*
X161361082Y-106738335D03*
%TD*%
D15*
%TO.C,R20*%
X158000000Y-79325000D03*
X158000000Y-77675000D03*
%TD*%
D16*
%TO.C,TP2*%
X149500000Y-102000000D03*
%TD*%
D17*
%TO.C,R16*%
X157755496Y-70338097D03*
X156105496Y-70338097D03*
%TD*%
D11*
%TO.C,R6*%
X163497593Y-98808897D03*
X165147593Y-98808897D03*
%TD*%
D16*
%TO.C,TP4*%
X149500000Y-88500000D03*
%TD*%
D18*
%TO.C,C11*%
X156500000Y-59475000D03*
X156500000Y-56525000D03*
%TD*%
D19*
%TO.C,C8*%
X154235850Y-81275000D03*
X154235850Y-84225000D03*
%TD*%
D20*
%TO.C,C9*%
X166525000Y-93500000D03*
X169475000Y-93500000D03*
%TD*%
D21*
%TO.C,C3*%
X161365947Y-98735124D03*
X161365947Y-100285124D03*
%TD*%
D22*
%TO.C,FB1*%
X168250000Y-66187500D03*
X168250000Y-68312500D03*
%TD*%
D14*
%TO.C,C13*%
X156010850Y-67250000D03*
X154460850Y-67250000D03*
%TD*%
D23*
%TO.C,U6*%
X157699650Y-75905000D03*
X157699650Y-74635000D03*
X157699650Y-73365000D03*
X157699650Y-72095000D03*
X152772050Y-72095000D03*
X152772050Y-73365000D03*
X152772050Y-74635000D03*
X152772050Y-75905000D03*
%TD*%
D13*
%TO.C,R5*%
X154235850Y-77675000D03*
X154235850Y-79325000D03*
%TD*%
%TO.C,R9*%
X158735850Y-81150000D03*
X158735850Y-82800000D03*
%TD*%
D24*
%TO.C,C17*%
X168235850Y-72550000D03*
X168235850Y-74450000D03*
%TD*%
D25*
%TO.C,U4*%
X155285850Y-88387500D03*
X156235850Y-88387500D03*
X157185850Y-88387500D03*
X157185850Y-86112500D03*
X155285850Y-86112500D03*
%TD*%
D20*
%TO.C,C1*%
X159904260Y-72675499D03*
X162854260Y-72675499D03*
%TD*%
D16*
%TO.C,TP12*%
X149500000Y-70500000D03*
%TD*%
%TO.C,TP8*%
X149500000Y-111000000D03*
%TD*%
D19*
%TO.C,C7*%
X156735850Y-81275000D03*
X156735850Y-84225000D03*
%TD*%
D26*
%TO.C,D1*%
X164650000Y-104750000D03*
X161350000Y-104750000D03*
%TD*%
D22*
%TO.C,FB2*%
X160650315Y-64800645D03*
X160650315Y-66925645D03*
%TD*%
D27*
%TO.C,C12*%
X158235850Y-100750000D03*
X158235850Y-98850000D03*
%TD*%
D13*
%TO.C,R18*%
X152735850Y-67175000D03*
X152735850Y-68825000D03*
%TD*%
D28*
%TO.C,U5*%
X168368050Y-63475000D03*
X168368050Y-62824999D03*
X168368050Y-62175000D03*
X168368050Y-61524999D03*
X168368050Y-60875001D03*
X168368050Y-60224999D03*
X168368050Y-59575001D03*
X168368050Y-58925002D03*
X168368050Y-58275001D03*
X168368050Y-57625002D03*
X168368050Y-56975001D03*
X168368050Y-56325002D03*
X168368050Y-55675001D03*
X168368050Y-55025002D03*
X161103650Y-55025000D03*
X161103650Y-55675001D03*
X161103650Y-56325000D03*
X161103650Y-56975001D03*
X161103650Y-57624999D03*
X161103650Y-58275001D03*
X161103650Y-58924999D03*
X161103650Y-59575001D03*
X161103650Y-60224999D03*
X161103650Y-60875001D03*
X161103650Y-61524999D03*
X161103650Y-62175000D03*
X161103650Y-62824999D03*
X161103650Y-63475000D03*
%TD*%
D16*
%TO.C,TP10*%
X149500000Y-61500000D03*
%TD*%
D29*
%TO.C,C10*%
X162800000Y-93250000D03*
X164700000Y-93250000D03*
%TD*%
D16*
%TO.C,TP1*%
X149500000Y-84000000D03*
%TD*%
D13*
%TO.C,R13*%
X156235850Y-96425000D03*
X156235850Y-98075000D03*
%TD*%
D10*
%TO.C,C6*%
X169725000Y-99500000D03*
X166775000Y-99500000D03*
%TD*%
D15*
%TO.C,R19*%
X157735850Y-68825000D03*
X157735850Y-67175000D03*
%TD*%
D30*
%TO.C,D2*%
X161350000Y-102250000D03*
X164650000Y-102250000D03*
%TD*%
D13*
%TO.C,R4*%
X168750000Y-48550000D03*
X168750000Y-50200000D03*
%TD*%
D31*
%TO.C,D3*%
X168750000Y-51800000D03*
X168750000Y-53375000D03*
%TD*%
D17*
%TO.C,R8*%
X169500000Y-101500000D03*
X167850000Y-101500000D03*
%TD*%
D11*
%TO.C,R2*%
X158410850Y-97250000D03*
X160060850Y-97250000D03*
%TD*%
D16*
%TO.C,TP5*%
X149500000Y-115500000D03*
%TD*%
D13*
%TO.C,R12*%
X156232934Y-99490597D03*
X156232934Y-101140597D03*
%TD*%
D32*
%TO.C,J2*%
X175746000Y-49350000D03*
D33*
X176000000Y-51890000D03*
X175746000Y-54430000D03*
X176000000Y-56970000D03*
X175746000Y-59510000D03*
X176000000Y-62050000D03*
X175746000Y-64590000D03*
X176000000Y-67130000D03*
X175746000Y-69670000D03*
X176000000Y-72210000D03*
X175746000Y-74750000D03*
X176000000Y-77290000D03*
X175746000Y-79830000D03*
X176000000Y-82370000D03*
X175746000Y-84910000D03*
X176000000Y-87450000D03*
X175746000Y-89990000D03*
X176000000Y-92530000D03*
X175746000Y-95070000D03*
X176000000Y-97610000D03*
X175746000Y-100150000D03*
X176000000Y-102690000D03*
X175746000Y-105230000D03*
X176000000Y-107770000D03*
X175746000Y-110310000D03*
X176000000Y-112850000D03*
X175746000Y-115390000D03*
X176000000Y-117930000D03*
X175746000Y-120470000D03*
X176000000Y-123010000D03*
D34*
X191240000Y-123010000D03*
D33*
X190986000Y-120470000D03*
X191240000Y-117930000D03*
X190986000Y-115390000D03*
X191240000Y-112850000D03*
X190986000Y-110310000D03*
X191240000Y-107770000D03*
X190986000Y-105230000D03*
X191240000Y-102690000D03*
X190986000Y-100150000D03*
X191240000Y-97610000D03*
X190986000Y-95070000D03*
X191240000Y-92530000D03*
X190986000Y-89990000D03*
X191240000Y-87450000D03*
X190986000Y-84910000D03*
X191240000Y-82370000D03*
X190986000Y-79830000D03*
X191240000Y-77290000D03*
X190986000Y-74750000D03*
X191240000Y-72210000D03*
X190986000Y-69670000D03*
X191240000Y-67130000D03*
X190986000Y-64590000D03*
X191240000Y-62050000D03*
X190986000Y-59510000D03*
X191240000Y-56970000D03*
X190986000Y-54430000D03*
X191240000Y-51890000D03*
X190986000Y-49350000D03*
%TD*%
D35*
%TO.C,U3*%
X162098350Y-95300000D03*
X162098350Y-96250000D03*
X162098350Y-97200000D03*
X164373350Y-97200000D03*
X164373350Y-95300000D03*
%TD*%
D16*
%TO.C,TP9*%
X149500000Y-97500000D03*
%TD*%
D36*
%TO.C,R1*%
X161359324Y-110149458D03*
X161359324Y-108324458D03*
%TD*%
D37*
%TO.C,U7*%
X166655000Y-86137800D03*
X165385000Y-86137800D03*
X164115000Y-86137800D03*
X162845000Y-86137800D03*
X162845000Y-90862200D03*
X164115000Y-90862200D03*
X165385000Y-90862200D03*
X166655000Y-90862200D03*
%TD*%
D16*
%TO.C,TP7*%
X149500000Y-66000000D03*
%TD*%
D27*
%TO.C,C18*%
X158750000Y-59450000D03*
X158750000Y-57550000D03*
%TD*%
D16*
%TO.C,TP3*%
X149500000Y-93000000D03*
%TD*%
D23*
%TO.C,U2*%
X163072400Y-76190000D03*
X163072400Y-77460000D03*
X163072400Y-78730000D03*
X163072400Y-80000000D03*
X163072400Y-81270000D03*
X163072400Y-82540000D03*
X163072400Y-83810000D03*
X168000000Y-83810000D03*
X168000000Y-82540000D03*
X168000000Y-81270000D03*
X168000000Y-80000000D03*
X168000000Y-78730000D03*
X168000000Y-77460000D03*
X168000000Y-76190000D03*
%TD*%
D13*
%TO.C,R3*%
X153728926Y-89740963D03*
X153728926Y-91390963D03*
%TD*%
D38*
%TO.C,J1*%
X161300000Y-121975000D03*
D39*
X163850000Y-124525000D03*
X163850000Y-119425000D03*
X158750000Y-124525000D03*
X158750000Y-119425000D03*
%TD*%
D11*
%TO.C,R11*%
X168425000Y-91000000D03*
X170075000Y-91000000D03*
%TD*%
D16*
%TO.C,TP13*%
X149500000Y-75000000D03*
%TD*%
D11*
%TO.C,R10*%
X168425000Y-89250000D03*
X170075000Y-89250000D03*
%TD*%
D19*
%TO.C,C19*%
X160295403Y-74938379D03*
X160295403Y-77888379D03*
%TD*%
D16*
%TO.C,TP6*%
X149500000Y-57000000D03*
%TD*%
%TO.C,TP11*%
X149500000Y-79500000D03*
%TD*%
D10*
%TO.C,C20*%
X166225000Y-68500000D03*
X163275000Y-68500000D03*
%TD*%
D16*
%TO.C,TP14*%
X149500000Y-106500000D03*
%TD*%
D21*
%TO.C,C4*%
X153728926Y-92865305D03*
X153728926Y-94415305D03*
%TD*%
D10*
%TO.C,C5*%
X169225000Y-96000000D03*
X166275000Y-96000000D03*
%TD*%
D18*
%TO.C,C2*%
X165235850Y-74225000D03*
X165235850Y-71275000D03*
%TD*%
%TO.C,C21*%
X160385027Y-50626832D03*
X160385027Y-53576832D03*
%TD*%
D10*
%TO.C,C15*%
X158985850Y-61750000D03*
X156035850Y-61750000D03*
%TD*%
M02*
