M48
; DRILL file KiCad 10.0.5 date 2026-08-20T01:13:31
; FORMAT={-:-/ absolute / inch / decimal}
; #@! TF.CreationDate,2026-08-20T01:13:31-06:00
; #@! TF.GenerationSoftware,Kicad,Pcbnew,10.0.5
; #@! TF.FileFunction,Plated,1,4,PTH
FMAT,2
INCH
; #@! TA.AperFunction,Plated,PTH,ViaDrill
T1C0.0118
; #@! TA.AperFunction,Plated,PTH,ComponentDrill
T2C0.0394
; #@! TA.AperFunction,Plated,PTH,ComponentDrill
T3C0.0402
; #@! TA.AperFunction,Plated,PTH,ComponentDrill
T4C0.0551
%
G90
G05
T1
X6.0526Y-3.7795
X6.0723Y-3.3661
X6.0802Y-3.0118
X6.0821Y-2.9035
X6.1113Y-3.1541
X6.1116Y-3.0906
X6.1412Y-2.5984
X6.1509Y-4.0282
X6.151Y-3.5335
X6.151Y-3.75
X6.1945Y-2.5982
X6.2691Y-3.9862
X6.2697Y-2.6378
X6.2894Y-2.7953
X6.2894Y-3.7598
X6.2894Y-3.878
X6.2983Y-3.2963
X6.2992Y-3.4843
X6.3085Y-3.1201
X6.3282Y-3.7766
X6.3287Y-2.687
X6.3583Y-3.6713
X6.3878Y-1.998
X6.3976Y-2.5984
X6.4069Y-2.2047
X6.4069Y-2.2736
X6.4069Y-2.3524
X6.4069Y-2.4114
X6.4069Y-2.4803
X6.4069Y-2.9232
X6.4365Y-2.2441
X6.4365Y-2.3819
X6.4665Y-4.2028
X6.4823Y-3.9656
X6.4833Y-3.2996
X6.4837Y-3.1496
X6.5059Y-3.2283
X6.5083Y-3.0807
X6.5256Y-3.0217
X6.5354Y-3.2677
X6.5446Y-3.2267
X6.5453Y-3.8484
X6.5551Y-4.0157
X6.5644Y-2.8642
X6.5742Y-2.8051
X6.5742Y-2.9331
X6.5945Y-1.9488
X6.5945Y-2.0571
X6.624Y-2.5591
X6.6581Y-3.3408
X6.6732Y-2.7953
X6.7224Y-3.7402
X6.7396Y-3.6023
X6.7407Y-3.6474
X6.7421Y-3.7008
X6.7618Y-3.5138
T2
X5.8858Y-2.2441
X5.8858Y-2.4213
X5.8858Y-2.5984
X5.8858Y-2.7756
X5.8858Y-2.9528
X5.8858Y-3.1299
X5.8858Y-3.3071
X5.8858Y-3.4843
X5.8858Y-3.6614
X5.8858Y-3.8386
X5.8858Y-4.0157
X5.8858Y-4.1929
X5.8858Y-4.3701
X5.8858Y-4.5472
T3
X6.9191Y-1.9429
X6.9191Y-2.1429
X6.9191Y-2.3429
X6.9191Y-2.5429
X6.9191Y-2.7429
X6.9191Y-2.9429
X6.9191Y-3.1429
X6.9191Y-3.3429
X6.9191Y-3.5429
X6.9191Y-3.7429
X6.9191Y-3.9429
X6.9191Y-4.1429
X6.9191Y-4.3429
X6.9191Y-4.5429
X6.9191Y-4.7429
X6.9291Y-2.0429
X6.9291Y-2.2429
X6.9291Y-2.4429
X6.9291Y-2.6429
X6.9291Y-2.8429
X6.9291Y-3.0429
X6.9291Y-3.2429
X6.9291Y-3.4429
X6.9291Y-3.6429
X6.9291Y-3.8429
X6.9291Y-4.0429
X6.9291Y-4.2429
X6.9291Y-4.4429
X6.9291Y-4.6429
X6.9291Y-4.8429
X7.5191Y-1.9429
X7.5191Y-2.1429
X7.5191Y-2.3429
X7.5191Y-2.5429
X7.5191Y-2.7429
X7.5191Y-2.9429
X7.5191Y-3.1429
X7.5191Y-3.3429
X7.5191Y-3.5429
X7.5191Y-3.7429
X7.5191Y-3.9429
X7.5191Y-4.1429
X7.5191Y-4.3429
X7.5191Y-4.5429
X7.5191Y-4.7429
X7.5291Y-2.0429
X7.5291Y-2.2429
X7.5291Y-2.4429
X7.5291Y-2.6429
X7.5291Y-2.8429
X7.5291Y-3.0429
X7.5291Y-3.2429
X7.5291Y-3.4429
X7.5291Y-3.6429
X7.5291Y-3.8429
X7.5291Y-4.0429
X7.5291Y-4.2429
X7.5291Y-4.4429
X7.5291Y-4.6429
X7.5291Y-4.8429
T4
X6.25Y-4.7018
X6.25Y-4.9026
X6.3504Y-4.8022
X6.4508Y-4.7018
X6.4508Y-4.9026
M30
