%TF.GenerationSoftware,KiCad,Pcbnew,10.0.5*%
%TF.CreationDate,2026-08-20T01:13:31-06:00*%
%TF.ProjectId,ADC_AMP_with_MCP4161,4144435f-414d-4505-9f77-6974685f4d43,rev?*%
%TF.SameCoordinates,Original*%
%TF.FileFunction,Soldermask,Bot*%
%TF.FilePolarity,Negative*%
%FSLAX46Y46*%
G04 Gerber Fmt 4.6, Leading zero omitted, Abs format (unit mm)*
G04 Created by KiCad (PCBNEW 10.0.5) date 2026-08-20 01:13:31*
%MOMM*%
%LPD*%
G01*
G04 APERTURE LIST*
G04 Aperture macros list*
%AMRoundRect*
0 Rectangle with rounded corners*
0 $1 Rounding radius*
0 $2 $3 $4 $5 $6 $7 $8 $9 X,Y pos of 4 corners*
0 Add a 4 corners polygon primitive as box body*
4,1,4,$2,$3,$4,$5,$6,$7,$8,$9,$2,$3,0*
0 Add four circle primitives for the rounded corners*
1,1,$1+$1,$2,$3*
1,1,$1+$1,$4,$5*
1,1,$1+$1,$6,$7*
1,1,$1+$1,$8,$9*
0 Add four rect primitives between the rounded corners*
20,1,$1+$1,$2,$3,$4,$5,0*
20,1,$1+$1,$4,$5,$6,$7,0*
20,1,$1+$1,$6,$7,$8,$9,0*
20,1,$1+$1,$8,$9,$2,$3,0*%
G04 Aperture macros list end*
%ADD10C,2.000000*%
%ADD11C,3.200000*%
%ADD12RoundRect,0.102000X-0.685000X0.685000X-0.685000X-0.685000X0.685000X-0.685000X0.685000X0.685000X0*%
%ADD13C,1.574000*%
%ADD14RoundRect,0.102000X0.685000X-0.685000X0.685000X0.685000X-0.685000X0.685000X-0.685000X-0.685000X0*%
%ADD15RoundRect,0.200100X0.949900X0.949900X-0.949900X0.949900X-0.949900X-0.949900X0.949900X-0.949900X0*%
%ADD16C,2.200000*%
G04 APERTURE END LIST*
D10*
%TO.C,TP2*%
X149500000Y-102000000D03*
%TD*%
%TO.C,TP4*%
X149500000Y-88500000D03*
%TD*%
%TO.C,TP12*%
X149500000Y-70500000D03*
%TD*%
%TO.C,TP8*%
X149500000Y-111000000D03*
%TD*%
%TO.C,TP10*%
X149500000Y-61500000D03*
%TD*%
D11*
%TO.C,REF\u002A\u002A*%
X196250000Y-123250000D03*
%TD*%
%TO.C,REF\u002A\u002A*%
X147750000Y-49250000D03*
%TD*%
D10*
%TO.C,TP1*%
X149500000Y-84000000D03*
%TD*%
D11*
%TO.C,REF\u002A\u002A*%
X147750000Y-123250000D03*
%TD*%
D10*
%TO.C,TP5*%
X149500000Y-115500000D03*
%TD*%
D12*
%TO.C,J2*%
X175746000Y-49350000D03*
D13*
X176000000Y-51890000D03*
X175746000Y-54430000D03*
X176000000Y-56970000D03*
X175746000Y-59510000D03*
X176000000Y-62050000D03*
X175746000Y-64590000D03*
X176000000Y-67130000D03*
X175746000Y-69670000D03*
X176000000Y-72210000D03*
X175746000Y-74750000D03*
X176000000Y-77290000D03*
X175746000Y-79830000D03*
X176000000Y-82370000D03*
X175746000Y-84910000D03*
X176000000Y-87450000D03*
X175746000Y-89990000D03*
X176000000Y-92530000D03*
X175746000Y-95070000D03*
X176000000Y-97610000D03*
X175746000Y-100150000D03*
X176000000Y-102690000D03*
X175746000Y-105230000D03*
X176000000Y-107770000D03*
X175746000Y-110310000D03*
X176000000Y-112850000D03*
X175746000Y-115390000D03*
X176000000Y-117930000D03*
X175746000Y-120470000D03*
X176000000Y-123010000D03*
D14*
X191240000Y-123010000D03*
D13*
X190986000Y-120470000D03*
X191240000Y-117930000D03*
X190986000Y-115390000D03*
X191240000Y-112850000D03*
X190986000Y-110310000D03*
X191240000Y-107770000D03*
X190986000Y-105230000D03*
X191240000Y-102690000D03*
X190986000Y-100150000D03*
X191240000Y-97610000D03*
X190986000Y-95070000D03*
X191240000Y-92530000D03*
X190986000Y-89990000D03*
X191240000Y-87450000D03*
X190986000Y-84910000D03*
X191240000Y-82370000D03*
X190986000Y-79830000D03*
X191240000Y-77290000D03*
X190986000Y-74750000D03*
X191240000Y-72210000D03*
X190986000Y-69670000D03*
X191240000Y-67130000D03*
X190986000Y-64590000D03*
X191240000Y-62050000D03*
X190986000Y-59510000D03*
X191240000Y-56970000D03*
X190986000Y-54430000D03*
X191240000Y-51890000D03*
X190986000Y-49350000D03*
%TD*%
D10*
%TO.C,TP9*%
X149500000Y-97500000D03*
%TD*%
%TO.C,TP7*%
X149500000Y-66000000D03*
%TD*%
%TO.C,TP3*%
X149500000Y-93000000D03*
%TD*%
D15*
%TO.C,J1*%
X161300000Y-121975000D03*
D16*
X163850000Y-124525000D03*
X163850000Y-119425000D03*
X158750000Y-124525000D03*
X158750000Y-119425000D03*
%TD*%
D10*
%TO.C,TP13*%
X149500000Y-75000000D03*
%TD*%
D11*
%TO.C,REF\u002A\u002A*%
X196250000Y-49250000D03*
%TD*%
D10*
%TO.C,TP6*%
X149500000Y-57000000D03*
%TD*%
%TO.C,TP11*%
X149500000Y-79500000D03*
%TD*%
%TO.C,TP14*%
X149500000Y-106500000D03*
%TD*%
M02*
